<svg width="120" height="119" viewBox="0 0 120 119" fill="none" xmlns="http://www.w3.org/2000/svg">
<g clip-path="url(#clip0)">
<path d="M35.6192 53.3372C26.2018 55.8605 16.5335 50.2149 14.0303 40.8728C11.4316 31.4756 17.0571 21.732 26.4744 19.2086C35.8918 16.6852 45.5601 22.3309 48.0633 31.6729C50.5867 41.0903 44.9612 50.834 35.6192 53.3372ZM27.08 21.4688C18.9434 23.649 14.0901 32.0552 16.2703 40.1919C18.4505 48.3285 26.8567 53.1819 34.9934 51.0017C43.13 48.8215 47.9834 40.4152 45.8032 32.2785C43.623 24.1419 35.2167 19.2886 27.08 21.4688Z" fill="#1B2D47"/>
<path d="M76.0006 42.5168C66.5832 45.0402 56.8396 39.4147 54.3162 29.9973C51.813 20.6553 57.4385 10.9116 66.8559 8.38825C76.2732 5.86487 85.9416 11.5106 88.4448 20.8526C90.9681 30.27 85.418 39.9935 76.0006 42.5168ZM67.4615 10.6484C59.2495 12.8488 54.3961 21.2551 56.5763 29.3917C58.7565 37.5283 67.1628 42.3817 75.2995 40.2015C83.4361 38.0213 88.2894 29.615 86.1092 21.4784C84.0044 13.3216 75.5981 8.46822 67.4615 10.6484Z" fill="#1B2D47"/>
<path d="M33.3178 44.7485C28.6468 46.0001 23.8705 43.2425 22.6189 38.5715C21.3673 33.9005 24.1249 29.1242 28.7959 27.8726C29.3986 27.7111 30.0673 28.0972 30.2288 28.6999C30.3903 29.3026 30.0042 29.9713 29.4015 30.1328C26.0112 31.0412 23.9706 34.5757 24.879 37.9659C25.7874 41.3562 29.3219 43.3968 32.7122 42.4884C36.1024 41.58 38.143 38.0455 37.2346 34.6552C37.0731 34.0525 37.4592 33.3838 38.0619 33.2223C38.6646 33.0608 39.3333 33.4469 39.4948 34.0496C40.7262 38.6453 37.9135 43.5171 33.3178 44.7485Z" fill="#1B2D47"/>
<path d="M73.6996 33.9282C69.0286 35.1798 64.2523 32.4222 63.0007 27.7512C61.7491 23.0802 64.5067 18.3039 69.1777 17.0523C69.7804 16.8908 70.4491 17.2769 70.6106 17.8796C70.7721 18.4823 70.386 19.151 69.7833 19.3125C66.3931 20.2209 64.3524 23.7553 65.2609 27.1456C66.1693 30.5359 69.7037 32.5765 73.094 31.6681C76.4843 30.7596 78.5249 27.2252 77.6165 23.8349C77.455 23.2322 77.841 22.5635 78.4437 22.402C79.0465 22.2405 79.7151 22.6266 79.8766 23.2293C81.108 27.825 78.3706 32.6766 73.6996 33.9282Z" fill="#1B2D47"/>
<path d="M55.749 30.8247L47.2357 33.1058C46.633 33.2673 45.9643 32.8812 45.8028 32.2785C45.6413 31.6758 46.0274 31.0071 46.6301 30.8456L55.1434 28.5645C55.7461 28.403 56.4148 28.7891 56.5763 29.3918C56.7378 29.9945 56.4271 30.643 55.749 30.8247Z" fill="#1B2D47"/>
<path d="M99.745 88.6408L39.8504 104.69C37.3642 105.356 34.7097 103.887 34.0233 101.325L24.6162 66.2173C23.95 63.7311 25.4189 61.0765 27.9804 60.3902L87.875 44.3415C90.3612 43.6753 93.0157 45.1442 93.7021 47.7058L103.109 82.8137C103.796 85.3753 102.306 87.9545 99.745 88.6408ZM28.5861 62.6503C27.3053 62.9935 26.5332 64.3309 26.8763 65.6117L36.2835 100.72C36.6267 102 37.964 102.773 39.2448 102.429L99.1394 86.3807C100.42 86.0375 101.192 84.7001 100.849 83.4193L91.4419 48.3114C91.0987 47.0306 89.7614 46.2585 88.4806 46.6016L28.5861 62.6503Z" fill="#1B2D47"/>
<path d="M15.9279 64.831L13.1403 65.5779C11.7842 65.9413 11.0323 67.354 11.3755 68.6347L13.4749 76.47C13.8181 77.7507 15.1757 78.5982 16.5318 78.2349L19.3193 77.4879C20.6001 77.1448 21.4475 75.7872 21.0842 74.4311L18.9847 66.5958C18.5662 65.3353 17.2087 64.4878 15.9279 64.831Z" fill="#1B2D47"/>
<path d="M106.237 51.695L103.45 52.4419C102.169 52.7851 101.322 54.1426 101.685 55.4987L106.146 72.1487C106.49 73.4294 107.847 74.2769 109.203 73.9135L111.991 73.1666C113.272 72.8234 114.119 71.4659 113.756 70.1098L109.294 53.4598C108.931 52.1037 107.518 51.3518 106.237 51.695Z" fill="#1B2D47"/>
<path d="M37.4762 60.2682C36.8735 60.4297 36.2048 60.0436 36.0433 59.4409L34.1861 52.5097C34.0246 51.907 34.4107 51.2383 35.0134 51.0768C35.6161 50.9153 36.2848 51.3014 36.4463 51.9041L38.3035 58.8353C38.4852 59.5134 38.0789 60.1067 37.4762 60.2682Z" fill="#1B2D47"/>
<path d="M77.858 49.4481C77.2553 49.6096 76.5866 49.2236 76.4251 48.6208L74.5679 41.6897C74.4064 41.0869 74.7925 40.4183 75.3952 40.2568C75.9979 40.0953 76.6666 40.4813 76.8281 41.084L78.6853 48.0152C78.867 48.6933 78.4607 49.2866 77.858 49.4481Z" fill="#1B2D47"/>
<path d="M100.869 78.9729L42.6317 94.5775C42.029 94.739 41.3603 94.3529 41.1988 93.7502C41.0373 93.1475 41.4234 92.4788 42.0261 92.3173L100.263 76.7127C100.866 76.5512 101.535 76.9373 101.696 77.54C101.858 78.1427 101.471 78.8114 100.869 78.9729Z" fill="#1B2D47"/>
<path d="M26.049 67.0446L19.4945 68.8009C18.8918 68.9624 18.2231 68.5763 18.0616 67.9736C17.9001 67.3709 18.2862 66.7022 18.8889 66.5407L25.4434 64.7844C26.0461 64.6229 26.7148 65.009 26.8763 65.6117C27.0378 66.2144 26.6517 66.8831 26.049 67.0446Z" fill="#1B2D47"/>
<path d="M27.9469 74.1264L21.3924 75.8827C20.7897 76.0442 20.121 75.6581 19.9595 75.0554C19.798 74.4527 20.1841 73.784 20.7868 73.6225L27.3413 71.8662C27.944 71.7047 28.6127 72.0908 28.7742 72.6935C28.9357 73.2962 28.5496 73.9649 27.9469 74.1264Z" fill="#1B2D47"/>
<path d="M102.29 57.7591L95.5853 59.5558C94.9826 59.7172 94.3139 59.3312 94.1524 58.7285C93.9909 58.1258 94.377 57.4571 94.9797 57.2956L101.685 55.4989C102.288 55.3374 102.956 55.7235 103.118 56.3262C103.279 56.9289 102.969 57.5774 102.29 57.7591Z" fill="#1B2D47"/>
<path d="M106.146 72.1488L99.4413 73.9454C98.8386 74.1069 98.1699 73.7208 98.0084 73.1181C97.8469 72.5154 98.2329 71.8467 98.8357 71.6852L105.541 69.8886C106.144 69.7271 106.812 70.1132 106.974 70.7159C107.135 71.3186 106.824 71.9671 106.146 72.1488Z" fill="#1B2D47"/>
<path d="M77.9647 83.8991C78.0656 84.2758 77.9405 84.713 77.5491 85.0602C70.6922 90.2081 66.1697 98.0413 65.1399 106.554C65.1103 107.046 64.7942 107.373 64.3422 107.494L59.356 88.8853L77.9647 83.8991Z" fill="url(#paint0_linear)"/>
<path d="M59.4312 88.865L64.3972 107.398C64.0205 107.499 63.5832 107.374 63.2361 106.983C58.0881 100.126 50.255 95.6034 41.7427 94.5736C41.2503 94.544 40.9234 94.2279 40.8022 93.7759L59.411 88.7897L59.4312 88.865Z" fill="url(#paint1_linear)"/>
<path d="M54.4652 70.3317L59.4312 88.8651L40.8225 93.8513C40.7215 93.4746 40.8466 93.0373 41.2381 92.6902C48.095 87.5422 52.6175 79.7091 53.6473 71.1968C53.697 70.7798 54.0132 70.4528 54.4652 70.3317Z" fill="url(#paint2_linear)"/>
<path d="M77.9643 83.8992L59.4309 88.8652L54.4648 70.3318C54.8415 70.2309 55.2788 70.3559 55.6259 70.7474C60.6986 77.6245 68.5317 82.147 77.044 83.1768C77.5364 83.2064 77.8633 83.5225 77.9643 83.8992Z" fill="url(#paint3_linear)"/>
<path d="M82.2652 62.8827C82.3258 63.1087 82.2908 63.2796 82.085 63.4155C78.5913 66.0473 76.3301 69.9639 75.8528 74.2099C75.838 74.4562 75.6322 74.5921 75.4815 74.6324L72.9985 65.3657L82.2652 62.8827Z" fill="url(#paint4_linear)"/>
<path d="M72.9986 65.3656L75.4816 74.6323C75.2556 74.6929 75.0848 74.6579 74.9489 74.4521C72.3372 71.0337 68.496 68.7523 64.1544 68.2199C63.9082 68.2051 63.7723 67.9993 63.7319 67.8486L72.9986 65.3656Z" fill="url(#paint5_linear)"/>
<path d="M70.5152 56.099L72.9982 65.3657L63.7315 67.8487C63.671 67.6227 63.7059 67.4518 63.9118 67.3159C67.3503 64.7796 69.6116 60.8631 70.144 56.5215C70.1587 56.2753 70.2892 56.1596 70.5152 56.099Z" fill="url(#paint6_linear)"/>
<path d="M82.2653 62.8826L72.9986 65.3656L70.5156 56.0989C70.7416 56.0383 70.9125 56.0733 71.0484 56.2791C73.5847 59.7177 77.5013 61.9789 81.8429 62.5113C82.0137 62.5463 82.2249 62.7319 82.2653 62.8826Z" fill="url(#paint7_linear)"/>
<path d="M43.7501 67.7118C43.8107 67.9378 43.7757 68.1087 43.5699 68.2446C40.1515 70.8563 37.8701 74.6975 37.3377 79.039C37.3229 79.2852 37.1171 79.4211 36.9664 79.4615L34.4834 70.1948L43.7501 67.7118Z" fill="url(#paint8_linear)"/>
<path d="M34.4835 70.1947L36.9665 79.4614C36.7405 79.522 36.5696 79.487 36.4337 79.2812C33.8221 75.8628 29.9808 73.5814 25.6393 73.049C25.3931 73.0342 25.2572 72.8284 25.2168 72.6777L34.4835 70.1947Z" fill="url(#paint9_linear)"/>
<path d="M32.0006 60.9281L34.4836 70.1948L25.2169 72.6778C25.1563 72.4518 25.1913 72.2809 25.3971 72.145C28.8357 69.6087 31.0969 65.6922 31.6293 61.3506C31.6441 61.1044 31.8499 60.9685 32.0006 60.9281Z" fill="url(#paint10_linear)"/>
<path d="M43.7502 67.7119L34.4835 70.1949L32.0005 60.9282C32.2265 60.8677 32.3974 60.9026 32.5333 61.1085C35.0696 64.547 38.9862 66.8082 43.3277 67.3406C43.5739 67.3554 43.7098 67.5612 43.7502 67.7119Z" fill="url(#paint11_linear)"/>
</g>
<defs>
<linearGradient id="paint0_linear" x1="58.5306" y1="92.9994" x2="75.382" y2="96.5813" gradientUnits="userSpaceOnUse">
<stop stop-color="#F1E2B8"/>
<stop offset="1" stop-color="#DBB64D"/>
</linearGradient>
<linearGradient id="paint1_linear" x1="49.4071" y1="103.541" x2="62.2098" y2="92.0134" gradientUnits="userSpaceOnUse">
<stop stop-color="#F1E2B8"/>
<stop offset="1" stop-color="#DBB64D"/>
</linearGradient>
<linearGradient id="paint2_linear" x1="43.4235" y1="81.2103" x2="60.275" y2="84.7921" gradientUnits="userSpaceOnUse">
<stop stop-color="#F1E2B8"/>
<stop offset="1" stop-color="#DBB64D"/>
</linearGradient>
<linearGradient id="paint3_linear" x1="56.5952" y1="85.7782" x2="69.398" y2="74.2505" gradientUnits="userSpaceOnUse">
<stop stop-color="#F1E2B8"/>
<stop offset="1" stop-color="#DBB64D"/>
</linearGradient>
<linearGradient id="paint4_linear" x1="72.5428" y1="67.4328" x2="80.9685" y2="69.2238" gradientUnits="userSpaceOnUse">
<stop stop-color="#F1E2B8"/>
<stop offset="1" stop-color="#DBB64D"/>
</linearGradient>
<linearGradient id="paint5_linear" x1="67.9812" y1="72.7037" x2="74.3826" y2="66.9398" gradientUnits="userSpaceOnUse">
<stop stop-color="#F1E2B8"/>
<stop offset="1" stop-color="#DBB64D"/>
</linearGradient>
<linearGradient id="paint6_linear" x1="64.989" y1="61.5383" x2="73.4148" y2="63.3292" gradientUnits="userSpaceOnUse">
<stop stop-color="#F1E2B8"/>
<stop offset="1" stop-color="#DBB64D"/>
</linearGradient>
<linearGradient id="paint7_linear" x1="71.5754" y1="63.8221" x2="77.9768" y2="58.0582" gradientUnits="userSpaceOnUse">
<stop stop-color="#F1E2B8"/>
<stop offset="1" stop-color="#DBB64D"/>
</linearGradient>
<linearGradient id="paint8_linear" x1="34.0798" y1="72.252" x2="42.5055" y2="74.0429" gradientUnits="userSpaceOnUse">
<stop stop-color="#F1E2B8"/>
<stop offset="1" stop-color="#DBB64D"/>
</linearGradient>
<linearGradient id="paint9_linear" x1="29.5181" y1="77.5228" x2="35.9196" y2="71.7589" gradientUnits="userSpaceOnUse">
<stop stop-color="#F1E2B8"/>
<stop offset="1" stop-color="#DBB64D"/>
</linearGradient>
<linearGradient id="paint10_linear" x1="26.5264" y1="66.3574" x2="34.9522" y2="68.1484" gradientUnits="userSpaceOnUse">
<stop stop-color="#F1E2B8"/>
<stop offset="1" stop-color="#DBB64D"/>
</linearGradient>
<linearGradient id="paint11_linear" x1="33.1124" y1="68.6414" x2="39.5138" y2="62.8775" gradientUnits="userSpaceOnUse">
<stop stop-color="#F1E2B8"/>
<stop offset="1" stop-color="#DBB64D"/>
</linearGradient>
<clipPath id="clip0">
<rect width="98.5098" height="95" fill="white" transform="translate(0.0302734 26.2942) rotate(-15)"/>
</clipPath>
</defs>
</svg>
