<svg width="105" height="101" viewBox="0 0 105 101" fill="none" xmlns="http://www.w3.org/2000/svg">
<g clip-path="url(#clip0)">
<path d="M29.2739 38.1024C19.0111 38.1024 10.7189 29.728 10.7189 19.5474C10.6368 9.28466 19.0111 0.910278 29.2739 0.910278C39.5366 0.910278 47.8289 9.28466 47.8289 19.4653C47.8289 29.728 39.4545 38.1024 29.2739 38.1024ZM29.2739 3.37333C20.4069 3.37333 13.1819 10.5983 13.1819 19.4653C13.1819 28.3323 20.4069 35.5572 29.2739 35.5572C38.1409 35.5572 45.3658 28.3323 45.3658 19.4653C45.3658 10.5983 38.1409 3.37333 29.2739 3.37333Z" fill="#1B2D47"/>
<path d="M73.2804 38.1024C63.0177 38.1024 54.6433 29.728 54.6433 19.4653C54.6433 9.28466 63.0177 0.910278 73.2804 0.910278C83.5431 0.910278 91.8354 9.28466 91.8354 19.4653C91.8354 29.728 83.5431 38.1024 73.2804 38.1024ZM73.2804 3.37333C64.3313 3.37333 57.1064 10.5983 57.1064 19.4653C57.1064 28.3323 64.3313 35.5572 73.1983 35.5572C82.0653 35.5572 89.2903 28.3323 89.2903 19.4653C89.3724 10.5983 82.1474 3.37333 73.2804 3.37333Z" fill="#1B2D47"/>
<path d="M29.2738 28.7428C24.1835 28.7428 20.0784 24.6377 20.0784 19.5474C20.0784 14.4571 24.1835 10.352 29.2738 10.352C29.9306 10.352 30.5053 10.9267 30.5053 11.5835C30.5053 12.2403 29.9306 12.815 29.2738 12.815C25.5792 12.815 22.5414 15.8528 22.5414 19.5474C22.5414 23.242 25.5792 26.2797 29.2738 26.2797C32.9684 26.2797 36.0061 23.242 36.0061 19.5474C36.0061 18.8906 36.5808 18.3159 37.2376 18.3159C37.8945 18.3159 38.4692 18.8906 38.4692 19.5474C38.4692 24.5556 34.282 28.7428 29.2738 28.7428Z" fill="#1B2D47"/>
<path d="M73.2804 28.7428C68.19 28.7428 64.085 24.6377 64.085 19.5474C64.085 14.4571 68.19 10.352 73.2804 10.352C73.9372 10.352 74.5119 10.9267 74.5119 11.5835C74.5119 12.2403 73.9372 12.815 73.2804 12.815C69.5858 12.815 66.548 15.8528 66.548 19.5474C66.548 23.242 69.5858 26.2797 73.2804 26.2797C76.9749 26.2797 80.0127 23.242 80.0127 19.5474C80.0127 18.8906 80.5874 18.3159 81.2442 18.3159C81.901 18.3159 82.4758 18.8906 82.4758 19.5474C82.4758 24.5556 78.3707 28.7428 73.2804 28.7428Z" fill="#1B2D47"/>
<path d="M55.8748 20.6968H46.5973C45.9404 20.6968 45.3657 20.1221 45.3657 19.4653C45.3657 18.8085 45.9404 18.2338 46.5973 18.2338H55.8748C56.5316 18.2338 57.1063 18.8085 57.1063 19.4653C57.1063 20.1221 56.6137 20.6968 55.8748 20.6968Z" fill="#1B2D47"/>
<path d="M84.8568 91.4686H19.5858C16.8765 91.4686 14.5776 89.2518 14.5776 86.4604V48.2009C14.5776 45.4916 16.7944 43.1927 19.5858 43.1927H84.8568C87.5661 43.1927 89.865 45.4095 89.865 48.2009V86.4604C89.865 89.2518 87.6482 91.4686 84.8568 91.4686ZM19.5858 45.6558C18.1901 45.6558 17.0407 46.8052 17.0407 48.2009V86.4604C17.0407 87.8561 18.1901 89.0055 19.5858 89.0055H84.8568C86.2525 89.0055 87.4019 87.8561 87.4019 86.4604V48.2009C87.4019 46.8052 86.2525 45.6558 84.8568 45.6558H19.5858Z" fill="#1B2D47"/>
<path d="M6.12108 44.4242H3.08331C1.60548 44.4242 0.456055 45.6558 0.456055 47.0515V55.5901C0.456055 56.9858 1.60548 58.2173 3.08331 58.2173H6.12108C7.51681 58.2173 8.74834 57.0679 8.74834 55.5901V47.0515C8.66624 45.6558 7.51681 44.4242 6.12108 44.4242Z" fill="#1B2D47"/>
<path d="M101.523 55.6722H98.4857C97.0899 55.6722 95.8584 56.8216 95.8584 58.2994V76.4439C95.8584 77.8397 97.0078 79.0712 98.4857 79.0712H101.523C102.919 79.0712 104.151 77.9218 104.151 76.4439V58.2994C104.151 56.8216 102.919 55.6722 101.523 55.6722Z" fill="#1B2D47"/>
<path d="M29.2738 45.6558C28.6169 45.6558 28.0422 45.0811 28.0422 44.4242V36.8709C28.0422 36.2141 28.6169 35.6393 29.2738 35.6393C29.9306 35.6393 30.5053 36.2141 30.5053 36.8709V44.4242C30.5053 45.1632 29.9306 45.6558 29.2738 45.6558Z" fill="#1B2D47"/>
<path d="M73.2804 45.6558C72.6235 45.6558 72.0488 45.0811 72.0488 44.4242V36.8709C72.0488 36.2141 72.6235 35.6393 73.2804 35.6393C73.9372 35.6393 74.5119 36.2141 74.5119 36.8709V44.4242C74.5119 45.1632 73.9372 45.6558 73.2804 45.6558Z" fill="#1B2D47"/>
<path d="M88.6335 81.9447H25.1688C24.512 81.9447 23.9373 81.37 23.9373 80.7132C23.9373 80.0564 24.512 79.4817 25.1688 79.4817H88.6335C89.2903 79.4817 89.865 80.0564 89.865 80.7132C89.865 81.37 89.2903 81.9447 88.6335 81.9447Z" fill="#1B2D47"/>
<path d="M15.8092 49.4324H8.66634C8.00953 49.4324 7.43481 48.8577 7.43481 48.2009C7.43481 47.5441 8.00953 46.9694 8.66634 46.9694H15.8092C16.466 46.9694 17.0407 47.5441 17.0407 48.2009C17.0407 48.8577 16.466 49.4324 15.8092 49.4324Z" fill="#1B2D47"/>
<path d="M15.8092 57.15H8.66634C8.00953 57.15 7.43481 56.5753 7.43481 55.9185C7.43481 55.2617 8.00953 54.687 8.66634 54.687H15.8092C16.466 54.687 17.0407 55.2617 17.0407 55.9185C17.0407 56.5753 16.466 57.15 15.8092 57.15Z" fill="#1B2D47"/>
<path d="M95.8584 60.7625H88.5514C87.8945 60.7625 87.3198 60.1878 87.3198 59.531C87.3198 58.8742 87.8945 58.2994 88.5514 58.2994H95.8584C96.5152 58.2994 97.0899 58.8742 97.0899 59.531C97.0899 60.1878 96.5973 60.7625 95.8584 60.7625Z" fill="#1B2D47"/>
<path d="M95.8584 76.444H88.5514C87.8945 76.444 87.3198 75.8692 87.3198 75.2124C87.3198 74.5556 87.8945 73.9809 88.5514 73.9809H95.8584C96.5152 73.9809 97.0899 74.5556 97.0899 75.2124C97.0899 75.8692 96.5973 76.444 95.8584 76.444Z" fill="#1B2D47"/>
<path d="M64.003 80.7132C64.003 81.1237 63.7567 81.5342 63.2641 81.7806C54.8897 85.1467 48.1574 91.8791 44.7912 100.253C44.627 100.746 44.2165 100.992 43.7239 100.992V80.7132H64.003Z" fill="url(#paint0_linear)"/>
<path d="M43.806 80.7132V100.91C43.3955 100.91 42.985 100.664 42.7387 100.171C39.3725 91.797 32.6402 85.0646 24.2658 81.6985C23.7732 81.5343 23.5269 81.1237 23.5269 80.6311H43.806V80.7132Z" fill="url(#paint1_linear)"/>
<path d="M43.806 60.5162V80.7132H23.5269C23.5269 80.3027 23.7732 79.8922 24.2658 79.6459C32.6402 76.2798 39.3725 69.5474 42.7387 61.173C42.9029 60.7625 43.3134 60.5162 43.806 60.5162Z" fill="url(#paint2_linear)"/>
<path d="M64.0029 80.7132H43.8059V60.5162C44.2164 60.5162 44.6269 60.7625 44.8732 61.2551C48.1573 69.6295 54.8897 76.3619 63.264 79.728C63.7566 79.8922 64.0029 80.3027 64.0029 80.7132Z" fill="url(#paint3_linear)"/>
<path d="M74.1014 60.5162C74.1014 60.7625 74.0194 60.9267 73.773 61.0088C69.5038 62.733 66.1376 66.0991 64.4955 70.2863C64.4134 70.5326 64.1671 70.6147 64.0029 70.6147V60.5162H74.1014Z" fill="url(#paint4_linear)"/>
<path d="M64.0028 60.5162V70.6147C63.7565 70.6147 63.5923 70.5326 63.5102 70.2863C61.7861 66.0991 58.502 62.733 54.2327 61.0088C53.9864 60.9267 53.9043 60.6804 53.9043 60.5162H64.0028Z" fill="url(#paint5_linear)"/>
<path d="M64.0028 50.4177V60.5162H53.9043C53.9043 60.2699 53.9864 60.1057 54.2327 60.0236C58.4199 58.3815 61.7861 55.0154 63.5102 50.7461C63.5923 50.4998 63.7565 50.4177 64.0028 50.4177Z" fill="url(#paint6_linear)"/>
<path d="M74.1014 60.5162H64.0029V50.4177C64.2492 50.4177 64.4134 50.4998 64.4955 50.7461C66.1376 54.9333 69.5038 58.2994 73.773 60.0236C73.9372 60.1057 74.1014 60.352 74.1014 60.5162Z" fill="url(#paint7_linear)"/>
<path d="M33.6254 54.9333C33.6254 55.1796 33.5433 55.3438 33.297 55.4259C29.1098 57.15 25.7436 60.4341 24.0195 64.7034C23.9374 64.9497 23.6911 65.0318 23.5269 65.0318V54.9333H33.6254Z" fill="url(#paint8_linear)"/>
<path d="M23.5267 54.9333V65.0318C23.2804 65.0318 23.1162 64.9497 23.0341 64.7034C21.31 60.5162 18.0259 57.15 13.7566 55.4259C13.5103 55.3438 13.4282 55.0975 13.4282 54.9333H23.5267Z" fill="url(#paint9_linear)"/>
<path d="M23.5267 44.8347V54.9333H13.4282C13.4282 54.687 13.5103 54.5228 13.7566 54.4407C17.9438 52.7986 21.31 49.4325 23.0341 45.1632C23.1162 44.9169 23.3625 44.8347 23.5267 44.8347Z" fill="url(#paint10_linear)"/>
<path d="M33.6254 54.9333H23.5269V44.8347C23.7732 44.8347 23.9374 44.9169 24.0195 45.1632C25.6615 49.3503 29.0277 52.7165 33.297 54.4407C33.5433 54.5228 33.6254 54.7691 33.6254 54.9333Z" fill="url(#paint11_linear)"/>
</g>
<defs>
<linearGradient id="paint0_linear" x1="41.7638" y1="84.6714" x2="57.9219" y2="92.9044" gradientUnits="userSpaceOnUse">
<stop stop-color="#F1E2B8"/>
<stop offset="1" stop-color="#DBB64D"/>
</linearGradient>
<linearGradient id="paint1_linear" x1="29.6154" y1="92.9045" x2="45.7735" y2="84.6715" gradientUnits="userSpaceOnUse">
<stop stop-color="#F1E2B8"/>
<stop offset="1" stop-color="#DBB64D"/>
</linearGradient>
<linearGradient id="paint2_linear" x1="29.6154" y1="68.569" x2="45.7736" y2="76.8019" gradientUnits="userSpaceOnUse">
<stop stop-color="#F1E2B8"/>
<stop offset="1" stop-color="#DBB64D"/>
</linearGradient>
<linearGradient id="paint3_linear" x1="41.7637" y1="76.8019" x2="57.9218" y2="68.569" gradientUnits="userSpaceOnUse">
<stop stop-color="#F1E2B8"/>
<stop offset="1" stop-color="#DBB64D"/>
</linearGradient>
<linearGradient id="paint4_linear" x1="62.9764" y1="62.4938" x2="71.0554" y2="66.6103" gradientUnits="userSpaceOnUse">
<stop stop-color="#F1E2B8"/>
<stop offset="1" stop-color="#DBB64D"/>
</linearGradient>
<linearGradient id="paint5_linear" x1="56.9021" y1="66.6103" x2="64.9811" y2="62.4938" gradientUnits="userSpaceOnUse">
<stop stop-color="#F1E2B8"/>
<stop offset="1" stop-color="#DBB64D"/>
</linearGradient>
<linearGradient id="paint6_linear" x1="56.9021" y1="54.4425" x2="64.9811" y2="58.559" gradientUnits="userSpaceOnUse">
<stop stop-color="#F1E2B8"/>
<stop offset="1" stop-color="#DBB64D"/>
</linearGradient>
<linearGradient id="paint7_linear" x1="62.9763" y1="58.559" x2="71.0554" y2="54.4425" gradientUnits="userSpaceOnUse">
<stop stop-color="#F1E2B8"/>
<stop offset="1" stop-color="#DBB64D"/>
</linearGradient>
<linearGradient id="paint8_linear" x1="22.556" y1="56.915" x2="30.6351" y2="61.0314" gradientUnits="userSpaceOnUse">
<stop stop-color="#F1E2B8"/>
<stop offset="1" stop-color="#DBB64D"/>
</linearGradient>
<linearGradient id="paint9_linear" x1="16.4817" y1="61.0314" x2="24.5607" y2="56.915" gradientUnits="userSpaceOnUse">
<stop stop-color="#F1E2B8"/>
<stop offset="1" stop-color="#DBB64D"/>
</linearGradient>
<linearGradient id="paint10_linear" x1="16.4817" y1="48.8636" x2="24.5607" y2="52.9802" gradientUnits="userSpaceOnUse">
<stop stop-color="#F1E2B8"/>
<stop offset="1" stop-color="#DBB64D"/>
</linearGradient>
<linearGradient id="paint11_linear" x1="22.556" y1="52.9802" x2="30.6351" y2="48.8637" gradientUnits="userSpaceOnUse">
<stop stop-color="#F1E2B8"/>
<stop offset="1" stop-color="#DBB64D"/>
</linearGradient>
<clipPath id="clip0">
<rect width="103.695" height="100" fill="white" transform="translate(0.456055 0.910278)"/>
</clipPath>
</defs>
</svg>
