<svg width="111" height="91" viewBox="0 0 111 91" fill="none" xmlns="http://www.w3.org/2000/svg">
<path d="M86.7251 90.714H44.8133C42.1285 90.714 39.9658 88.548 39.9658 85.8592V50.0086C39.9658 47.3198 42.1285 45.1538 44.8133 45.1538H86.7251C89.4099 45.1538 91.5726 47.3198 91.5726 50.0086V85.8592C91.5726 88.548 89.4099 90.714 86.7251 90.714ZM44.8133 47.3945C43.3963 47.3945 42.2031 48.5895 42.2031 50.0086V85.8592C42.2031 87.2783 43.3963 88.4733 44.8133 88.4733H86.7251C88.1421 88.4733 89.3353 87.2783 89.3353 85.8592V50.0086C89.3353 48.5895 88.1421 47.3945 86.7251 47.3945H44.8133Z" fill="#1B2D47"/>
<path d="M105.518 85.1871H90.4541C89.8575 85.1871 89.3354 84.6642 89.3354 84.0667C89.3354 83.4692 89.8575 82.9464 90.4541 82.9464H105.518C106.935 82.9464 108.129 81.6767 108.129 80.0335V41.5688C108.129 40.0003 106.935 38.6559 105.518 38.6559H100.746C100.149 38.6559 99.627 38.1331 99.627 37.5356C99.627 36.9381 100.149 36.4153 100.746 36.4153H105.518C108.203 36.4153 110.366 38.7306 110.366 41.5688V80.1082C110.366 82.8717 108.129 85.1871 105.518 85.1871Z" fill="#1B2D47"/>
<path d="M87.098 35.4443C77.8506 35.4443 70.3184 27.9007 70.3184 18.6393C70.3184 9.37792 77.8506 1.83435 87.098 1.83435C96.3455 1.83435 103.878 9.37792 103.878 18.6393C103.878 27.9007 96.3455 35.4443 87.098 35.4443ZM87.098 4.07501C79.0438 4.07501 72.5556 10.6476 72.5556 18.6393C72.5556 26.631 79.1184 33.2036 87.098 33.2036C95.0777 33.2036 101.64 26.631 101.64 18.6393C101.64 10.6476 95.0777 4.07501 87.098 4.07501Z" fill="#1B2D47"/>
<path d="M65.9182 60.6144C65.9928 60.9131 65.8437 60.9131 65.9182 60.6144C67.7081 52.3239 83.2199 52.772 81.3555 64.9463C80.0877 73.0874 68.9013 80.7803 66.4403 82.3488C66.142 82.5729 65.7691 82.5729 65.4708 82.3488C62.9352 80.7803 51.1521 73.0874 50.1081 64.8716C48.6166 52.2492 63.8301 52.2492 65.9182 60.6144Z" fill="#1B2D47"/>
<path d="M74.4945 69.7265C74.2708 69.7265 73.9725 69.6518 73.7487 69.4277C73.3013 69.0543 73.2267 68.3821 73.5996 67.8593C73.8979 67.3364 74.5691 67.1124 75.0911 67.4111C75.6131 67.7099 75.8369 68.3821 75.6131 68.9049C75.5386 69.0543 75.464 69.129 75.3894 69.2783C75.0911 69.5771 74.7928 69.7265 74.4945 69.7265ZM76.6572 66.1414C76.5081 66.1414 76.3589 66.1414 76.2098 66.0667C75.6131 65.8427 75.3894 65.1705 75.6131 64.5729C76.2098 63.2285 75.8369 61.6601 74.7182 60.6891C74.2708 60.3157 74.1962 59.5688 74.5691 59.1207C74.942 58.6725 75.6877 58.5978 76.1352 58.9713C77.9996 60.5398 78.6708 63.1539 77.7013 65.3945C77.4775 65.8427 77.1047 66.1414 76.6572 66.1414Z" fill="white"/>
<path d="M65.7693 40.5979C76.1485 40.5979 84.5625 32.1712 84.5625 21.7763C84.5625 11.3814 76.1485 2.95471 65.7693 2.95471C55.3901 2.95471 46.9761 11.3814 46.9761 21.7763C46.9761 32.1712 55.3901 40.5979 65.7693 40.5979Z" fill="#C1C1C1"/>
<path d="M65.7693 41.7182C54.8066 41.7182 45.8574 32.7555 45.8574 21.7763C45.8574 10.797 54.8066 1.83435 65.7693 1.83435C76.732 1.83435 85.6812 10.797 85.6812 21.7763C85.6812 32.7555 76.732 41.7182 65.7693 41.7182ZM65.7693 4.07501C55.9998 4.07501 48.0947 11.992 48.0947 21.7763C48.0947 31.5605 55.9998 39.4775 65.7693 39.4775C75.5388 39.4775 83.4439 31.5605 83.4439 21.7763C83.4439 11.992 75.4642 4.07501 65.7693 4.07501Z" fill="#1B2D47"/>
<path d="M47.647 34.324C47.647 34.6974 47.4232 35.1456 46.9758 35.2949C39.1453 38.5065 32.8063 44.7804 29.6741 52.6227C29.5249 53.0709 29.0775 53.2949 28.7046 53.2949V34.324H47.647Z" fill="url(#paint0_linear)"/>
<path d="M28.7046 34.324V53.2949C28.3317 53.2949 27.8842 53.0709 27.7351 52.6227C24.6029 44.7057 18.3385 38.4319 10.4334 35.2949C9.98594 35.1456 9.76221 34.6974 9.76221 34.324H28.7046Z" fill="url(#paint1_linear)"/>
<path d="M28.7047 15.4277V34.324H9.83691C9.83691 33.9506 10.0606 33.5024 10.5081 33.353C18.4132 30.2161 24.6776 23.9423 27.8098 16.0252C27.9589 15.6518 28.3318 15.4277 28.7047 15.4277Z" fill="url(#paint2_linear)"/>
<path d="M47.647 34.324H28.7046V15.4277C29.0775 15.4277 29.5249 15.6518 29.6741 16.0999C32.8063 24.0169 39.0707 30.2908 46.9758 33.4277C47.4232 33.5771 47.647 33.9506 47.647 34.324Z" fill="url(#paint3_linear)"/>
<path d="M57.1183 15.4277C57.1183 15.6518 57.0437 15.8012 56.82 15.8759C52.8674 17.4443 49.7352 20.5813 48.1691 24.5398C48.0946 24.7638 47.8708 24.8385 47.7217 24.8385V15.4277H57.1183Z" fill="url(#paint4_linear)"/>
<path d="M47.6471 15.4277V24.9132C47.4234 24.9132 47.2742 24.8385 47.1996 24.6145C45.6335 20.656 42.5013 17.519 38.5488 15.9506C38.3251 15.8759 38.2505 15.6518 38.2505 15.5024H47.6471V15.4277Z" fill="url(#paint5_linear)"/>
<path d="M47.647 5.94226V15.4277H38.1758C38.1758 15.2037 38.2504 15.0543 38.4741 14.9796C42.4266 13.4111 45.5588 10.2742 47.1249 6.3157C47.2741 6.01695 47.4232 5.94226 47.647 5.94226Z" fill="url(#paint6_linear)"/>
<path d="M57.1182 15.4277H47.647V5.94226C47.8707 5.94226 48.0199 6.01695 48.0944 6.24102C49.6605 10.1995 52.7927 13.3365 56.7453 14.9049C56.969 14.9796 57.1182 15.2037 57.1182 15.4277Z" fill="url(#paint7_linear)"/>
<path d="M19.3082 10.1995C19.3082 10.4235 19.2337 10.5729 19.0099 10.6476C15.0574 12.2161 11.9252 15.353 10.3591 19.3115C10.2845 19.5356 10.0608 19.6103 9.91162 19.6103V10.1995H19.3082Z" fill="url(#paint8_linear)"/>
<path d="M9.83691 10.1995V19.6849C9.61318 19.6849 9.46403 19.6103 9.38945 19.3862C7.82335 15.4277 4.69115 12.2907 0.738604 10.7223C0.440299 10.5729 0.365723 10.3488 0.365723 10.1995H9.83691Z" fill="url(#paint9_linear)"/>
<path d="M9.83691 0.713989V10.1995H0.365723C0.365723 9.9754 0.440299 9.82602 0.664028 9.75133C4.61657 8.10818 7.74877 4.97125 9.31488 1.01274C9.38945 0.788678 9.61318 0.713989 9.83691 0.713989Z" fill="url(#paint10_linear)"/>
<path d="M19.3081 10.1995H9.83691V0.713989C10.0606 0.713989 10.2098 0.788678 10.2844 1.01274C11.8505 4.97125 14.9827 8.10818 18.9352 9.67665C19.1589 9.75133 19.3081 9.9754 19.3081 10.1995Z" fill="url(#paint11_linear)"/>
<defs>
<linearGradient id="paint0_linear" x1="26.8517" y1="38.0326" x2="41.9778" y2="45.7281" gradientUnits="userSpaceOnUse">
<stop stop-color="#F1E2B8"/>
<stop offset="1" stop-color="#DBB64D"/>
</linearGradient>
<linearGradient id="paint1_linear" x1="15.4862" y1="45.7465" x2="30.6123" y2="38.051" gradientUnits="userSpaceOnUse">
<stop stop-color="#F1E2B8"/>
<stop offset="1" stop-color="#DBB64D"/>
</linearGradient>
<linearGradient id="paint2_linear" x1="15.4863" y1="22.945" x2="30.6125" y2="30.6406" gradientUnits="userSpaceOnUse">
<stop stop-color="#F1E2B8"/>
<stop offset="1" stop-color="#DBB64D"/>
</linearGradient>
<linearGradient id="paint3_linear" x1="26.8516" y1="30.6591" x2="41.9778" y2="22.9635" gradientUnits="userSpaceOnUse">
<stop stop-color="#F1E2B8"/>
<stop offset="1" stop-color="#DBB64D"/>
</linearGradient>
<linearGradient id="paint4_linear" x1="46.6974" y1="17.2528" x2="54.2605" y2="21.1006" gradientUnits="userSpaceOnUse">
<stop stop-color="#F1E2B8"/>
<stop offset="1" stop-color="#DBB64D"/>
</linearGradient>
<linearGradient id="paint5_linear" x1="41.0147" y1="21.1098" x2="48.5777" y2="17.2621" gradientUnits="userSpaceOnUse">
<stop stop-color="#F1E2B8"/>
<stop offset="1" stop-color="#DBB64D"/>
</linearGradient>
<linearGradient id="paint6_linear" x1="41.0145" y1="9.70904" x2="48.5776" y2="13.5569" gradientUnits="userSpaceOnUse">
<stop stop-color="#F1E2B8"/>
<stop offset="1" stop-color="#DBB64D"/>
</linearGradient>
<linearGradient id="paint7_linear" x1="46.6972" y1="13.5661" x2="54.2604" y2="9.71827" gradientUnits="userSpaceOnUse">
<stop stop-color="#F1E2B8"/>
<stop offset="1" stop-color="#DBB64D"/>
</linearGradient>
<linearGradient id="paint8_linear" x1="8.88195" y1="12.0255" x2="16.445" y2="15.8733" gradientUnits="userSpaceOnUse">
<stop stop-color="#F1E2B8"/>
<stop offset="1" stop-color="#DBB64D"/>
</linearGradient>
<linearGradient id="paint9_linear" x1="3.19902" y1="15.8825" x2="10.7621" y2="12.0348" gradientUnits="userSpaceOnUse">
<stop stop-color="#F1E2B8"/>
<stop offset="1" stop-color="#DBB64D"/>
</linearGradient>
<linearGradient id="paint10_linear" x1="3.1991" y1="4.48182" x2="10.7622" y2="8.32959" gradientUnits="userSpaceOnUse">
<stop stop-color="#F1E2B8"/>
<stop offset="1" stop-color="#DBB64D"/>
</linearGradient>
<linearGradient id="paint11_linear" x1="8.88182" y1="8.33882" x2="16.4449" y2="4.49104" gradientUnits="userSpaceOnUse">
<stop stop-color="#F1E2B8"/>
<stop offset="1" stop-color="#DBB64D"/>
</linearGradient>
</defs>
</svg>
