<svg width="31" height="31" viewBox="0 0 31 31" fill="none" xmlns="http://www.w3.org/2000/svg">
<path fill-rule="evenodd" clip-rule="evenodd" d="M9.94472 0.516113C4.94347 0.516113 0.88916 4.57042 0.88916 9.57167V21.2906C0.88916 26.2919 4.94347 30.3462 9.94472 30.3462H21.6637C26.6649 30.3462 30.7192 26.2919 30.7192 21.2906V9.57167C30.7192 4.57043 26.6649 0.516113 21.6637 0.516113H9.94472ZM9.41204 3.71219C6.47013 3.71219 4.08524 6.09708 4.08524 9.03899V21.8233C4.08524 24.7652 6.47013 27.1501 9.41204 27.1501H22.1964C25.1383 27.1501 27.5232 24.7652 27.5232 21.8233V9.03899C27.5232 6.09708 25.1383 3.71219 22.1964 3.71219H9.41204Z" fill="#1B2D47"/>
<path d="M23.2617 15.4312C23.2617 19.5498 19.9229 22.8887 15.8042 22.8887C11.6855 22.8887 8.34668 19.5498 8.34668 15.4312C8.34668 11.3125 11.6855 7.97363 15.8042 7.97363C19.9229 7.97363 23.2617 11.3125 23.2617 15.4312ZM11.0327 15.4312C11.0327 18.0664 13.1689 20.2027 15.8042 20.2027C18.4394 20.2027 20.5757 18.0664 20.5757 15.4312C20.5757 12.7959 18.4394 10.6596 15.8042 10.6596C13.1689 10.6596 11.0327 12.7959 11.0327 15.4312Z" fill="#1B2D47"/>
<path d="M25.4989 7.76042C25.4989 8.81951 24.6403 9.67807 23.5812 9.67807C22.5221 9.67807 21.6636 8.81951 21.6636 7.76042C21.6636 6.70133 22.5221 5.84277 23.5812 5.84277C24.6403 5.84277 25.4989 6.70133 25.4989 7.76042Z" fill="#1B2D47"/>
</svg>
