<svg width="30" height="31" viewBox="0 0 30 31" fill="none" xmlns="http://www.w3.org/2000/svg">
<path fill-rule="evenodd" clip-rule="evenodd" d="M3.25516 0.346191C1.49002 0.346191 0.059082 1.77713 0.059082 3.54227V26.9802C0.059082 28.7453 1.49002 30.1763 3.25516 30.1763H20.1526H26.6931C28.4582 30.1763 29.8892 28.7453 29.8892 26.9802V3.54227C29.8892 1.77712 28.4582 0.346191 26.6931 0.346191H3.25516ZM20.1526 30.1763L20.1716 19.13H23.9938C24.3375 19.13 24.627 18.8733 24.6674 18.5325L25.0902 14.9718C25.1381 14.5691 24.8229 14.215 24.4166 14.215H20.1526V11.2364C20.1526 9.88562 20.5284 8.96518 22.4689 8.96518L24.2658 8.96435C24.6402 8.96412 24.9438 8.66104 24.9438 8.28718V5.2848C24.9438 4.91079 24.64 4.60763 24.2654 4.60763H21.3374C17.7692 4.60763 15.3263 6.78168 15.3263 10.7744V14.2149H12.4564C12.0808 14.2149 11.7766 14.5196 11.778 14.8946L11.7918 18.4553C11.7933 18.8283 12.0965 19.1298 12.4702 19.1298H15.3452L15.3262 30.1761L20.1526 30.1763Z" fill="#1B2D47"/>
</svg>
