<svg width="25" height="31" viewBox="0 0 25 31" fill="none" xmlns="http://www.w3.org/2000/svg">
<path d="M13.7104 30.3332C11.6435 30.1553 9.64515 29.859 7.94071 28.624C7.58807 28.377 7.2942 28.0214 7.02971 27.6756C6.81421 27.3792 6.76523 27.0136 7.01012 26.6382C7.23542 26.7568 7.46072 26.8457 7.66643 26.9741C7.9701 27.1618 8.1954 27.0828 8.35213 26.7765C8.85171 25.8083 9.0966 23.4372 8.30315 22.2714C7.11787 22.5678 5.9424 22.9037 4.75712 23.1507C4.15959 23.2791 3.53266 23.3187 2.91554 23.3088C1.92618 23.2989 1.10334 22.3109 1.38741 21.3526C1.71067 20.2461 2.22984 19.2087 2.67065 18.1319C2.72942 18.1516 2.7784 18.1714 2.83717 18.201C2.65105 18.7642 2.43555 19.3273 2.26902 19.9003C2.16127 20.2757 2.08291 20.6709 2.02413 21.0562C1.8772 22.0541 2.3278 22.6073 3.33675 22.6271C3.66001 22.637 3.99306 22.5876 4.29672 22.4789C5.57016 22.0343 6.8436 21.5601 8.10724 21.0958C8.1954 21.0661 8.27376 21.0068 8.27376 21.0068C8.01907 20.0584 7.77418 19.1495 7.52929 18.2504C7.56847 18.2405 7.59786 18.2307 7.63704 18.2109C7.84275 18.6259 8.04846 19.0507 8.26397 19.4656C8.91048 20.7203 9.52761 21.0464 10.8892 20.7006C11.5847 20.5227 12.2704 20.2165 12.9169 19.8707C13.7691 19.4162 14.5724 18.8827 15.3952 18.3789C15.503 18.3196 15.6107 18.2603 15.7185 18.201C15.7478 18.2405 15.7772 18.2899 15.8066 18.3295C14.8271 18.9914 13.8769 19.6928 12.8679 20.3153C12.4761 20.5623 12.3096 20.7697 12.4565 21.2439C12.7112 22.0541 12.9169 22.884 13.1716 23.8225C13.6908 23.2989 14.1512 22.884 14.5528 22.4196C16.0221 20.7401 17.3054 18.9124 18.3143 16.9167C19.0098 15.5434 19.431 14.0812 19.2449 12.5005C19.2351 12.4313 19.2351 12.3721 19.2155 12.3029C19 11.2557 18.7355 11.0581 17.6972 11.1865C17.4229 11.2161 17.1584 11.2557 16.8841 11.2952C16.8646 11.2359 16.8548 11.1766 16.8352 11.1272C17.4425 10.9494 18.0498 10.6629 18.667 10.6333C20.2343 10.5542 21.7134 10.1096 23.2121 9.73421C23.7509 9.59589 24.2701 9.35878 24.3093 8.70673C24.3484 8.0448 23.9174 7.65949 23.3787 7.39274C23.1632 7.28407 22.9281 7.20503 22.7517 6.99756C23.2415 7.20503 23.7803 7.33347 24.2113 7.62985C24.9362 8.10407 24.9656 8.78577 24.3093 9.33903C23.888 9.68481 23.4081 10.0108 22.8987 10.1788C21.9779 10.4851 21.0081 10.6629 20.0579 10.8901C19.9012 10.9296 19.7445 10.9494 19.6171 10.9692C20.6065 13.3304 20.3028 15.5731 19.1665 17.7466C17.9519 20.0584 16.3062 22.064 14.5332 23.951C13.9161 24.6129 13.6418 25.1661 13.8867 26.1245C14.2001 27.4681 14.0532 28.8809 13.7104 30.3332Z" fill="#1B2D47"/>
<path d="M18.0601 8.57812C19.02 8.72631 19.8135 8.59787 20.4992 8.02486C20.029 8.67691 19.3433 8.8745 18.6086 8.88438C17.776 8.89426 16.9434 8.85474 16.1205 8.74607C15.3173 8.64727 14.7295 8.86462 14.2691 9.54632C13.8675 10.1292 13.4561 10.7022 12.9761 11.216C12.5059 11.7297 11.9574 12.1743 11.4382 12.6485C12.0553 13.3598 12.6627 13.429 13.5149 12.8856C14.0145 12.5695 14.5238 12.2434 15.0724 11.9965C14.3769 12.6386 13.6814 13.3006 12.7508 13.5574C12.4374 13.6464 12.0259 13.4784 11.6831 13.3401C11.3402 13.2018 11.0366 12.9647 10.7329 12.7868C11.4872 12.115 12.261 11.5222 12.9173 10.8208C13.5834 10.1095 14.1516 9.29933 14.7099 8.58799C14.4357 8.27185 14.1222 7.93594 13.8381 7.56052C13.6618 7.33329 13.7108 7.09617 13.9067 6.84918C14.2496 6.41448 14.563 5.95014 14.8667 5.47592C14.9646 5.32772 15.0234 5.14989 15.0626 4.97206C15.1312 4.60651 14.945 4.43856 14.6316 4.63615C14.1614 4.93254 13.7402 5.29809 13.2994 5.63399C12.9663 4.77447 12.8096 3.75687 12.8488 2.71951C12.8684 2.23541 12.6431 2.08721 12.261 2.10697C11.8006 2.13661 11.35 2.24529 10.8603 2.31445C11.35 1.66239 11.9966 1.23757 12.7312 0.95106C14.6512 0.219969 16.5221 0.378043 18.256 1.4648C18.7751 1.79083 19.2453 2.28481 19.598 2.79855C20.2347 3.69759 20.2151 4.66579 19.6176 5.61423C19.167 6.33544 18.7262 7.06654 18.305 7.79763C18.207 8.03474 18.158 8.30149 18.0601 8.57812Z" fill="#1B2D47"/>
<path d="M6.3834 11.6904C5.2569 11.6805 4.22835 11.3841 3.23899 10.9297C3.12144 10.8704 3.00389 10.8111 2.89614 10.7519C0.995784 9.71449 0.329679 8.15352 0.93701 6.04916C1.1819 5.2094 1.75005 4.64626 2.55329 4.32023C3.07246 4.10288 3.60143 3.89541 4.1206 3.6583C5.54097 2.98649 6.19728 3.08528 7.30419 4.21156C7.78418 4.69566 8.1956 5.23904 8.55804 5.84169C8.43069 5.78241 8.31314 5.71326 8.176 5.68362C7.5197 5.4959 6.87318 5.23903 6.20708 5.16988C5.32547 5.07108 4.72793 5.53542 4.39488 6.36531C3.57204 8.43015 3.99326 9.92197 5.76627 11.236C5.97198 11.3841 6.17769 11.5422 6.3834 11.6904Z" fill="#1B2D47"/>
<path d="M15.8463 14.4762C15.1018 15.1085 14.3867 15.7803 13.6227 16.3731C12.937 16.9066 12.075 16.9461 11.2423 16.9856C10.3313 17.0251 9.4203 17.0152 8.5093 16.9955C7.27503 16.9658 6.07015 17.1733 4.92405 17.608C4.5812 17.7364 4.38529 17.6574 4.15998 17.4104C3.27837 16.4422 3.04327 14.8615 3.62122 13.6858C3.92489 13.0733 4.45386 12.7868 5.08078 12.6287C6.06036 12.3817 7.98033 12.5496 8.9697 12.9843C8.51909 13.3005 8.0489 13.587 7.61788 13.9229C7.1183 14.3082 6.86361 14.8022 7.02034 15.474C7.19667 16.2249 7.5689 16.6003 8.33297 16.6003C9.73377 16.6003 11.1346 16.5706 12.5354 16.5311C12.7802 16.5212 13.0545 16.4323 13.2602 16.294C14.1027 15.6815 14.9255 15.0393 15.7582 14.407C15.7875 14.4268 15.8169 14.4465 15.8463 14.4762Z" fill="#1B2D47"/>
<path d="M12.6822 10.2677C12.4079 9.61562 11.8691 9.66502 11.3402 9.68478C10.9483 9.69466 10.5565 9.71442 10.1647 9.68478C9.77285 9.65514 9.44959 9.47731 9.43979 9.03273C9.41041 6.68138 9.86101 4.51775 11.9377 2.93701C11.634 3.34208 11.3499 3.65822 11.1246 4.01389C10.8896 4.39919 10.674 4.81414 10.5075 5.23896C10.3508 5.64402 10.2137 6.07872 10.1451 6.51343C10.0471 7.12596 10.0275 7.74838 9.98835 8.37079C9.95896 8.86477 10.2234 9.15128 10.6936 9.22044C10.9777 9.25996 11.2814 9.2896 11.5655 9.26984C12.4177 9.22044 12.545 9.31923 12.6822 10.2677Z" fill="#1B2D47"/>
<path d="M18.2852 26.4803C18.2754 25.3738 19.1277 24.5044 20.2248 24.5044C21.2925 24.5044 22.1545 25.3639 22.1741 26.4408C22.1937 27.5276 21.3023 28.4266 20.215 28.4167C19.1375 28.4068 18.295 27.5671 18.2852 26.4803ZM21.8509 26.4408C21.8411 25.5121 21.1162 24.7909 20.1954 24.8008C19.304 24.8107 18.5791 25.5319 18.5791 26.4309C18.5693 27.3497 19.304 28.0907 20.215 28.1006C21.1358 28.1006 21.8607 27.3695 21.8509 26.4408Z" fill="#1B2D47"/>
<path d="M20.3033 25.6304C20.6953 25.6304 20.8815 25.8577 20.8815 26.1246C20.8815 26.3223 20.7737 26.5298 20.4993 26.599L20.9011 27.281H20.5777L20.2053 26.6188H19.9995V27.281H19.7349V25.6304H20.3033ZM20.3033 25.8577H20.0093V26.4112H20.3033C20.5091 26.4112 20.6071 26.2926 20.6071 26.1345C20.6071 25.9664 20.5189 25.8577 20.3033 25.8577Z" fill="#1B2D47"/>
</svg>
