<svg width="33" height="29" viewBox="0 0 33 29" fill="none" xmlns="http://www.w3.org/2000/svg">
<path d="M0.779297 7.70642C1.54226 7.01913 2.29892 6.33183 3.05557 5.63823C4.5815 4.25102 6.08851 2.83229 7.8036 1.66578C8.4909 1.19917 9.19711 0.745178 10.0294 0.606457C11.7382 0.316405 13.1128 1.06045 13.9451 2.67465C14.5126 3.77811 14.7585 4.97615 14.9414 6.19311C15.4017 9.25757 15.8116 12.3346 16.7069 15.3108C16.9213 16.017 17.1988 16.717 17.5456 17.3664C18.1067 18.4131 18.7751 18.514 19.5633 17.6439C20.2821 16.8494 20.9316 15.9792 21.5306 15.0838C22.3062 13.9173 22.9935 12.6878 23.4664 11.3573C23.7754 10.4934 23.9204 9.61068 23.6997 8.70269C23.5042 7.89559 22.9304 7.41637 22.1044 7.31548C21.2973 7.2146 20.5154 7.34701 19.7525 7.60554C19.5948 7.65598 19.4372 7.71904 19.248 7.78209C19.267 7.66859 19.2733 7.59293 19.2922 7.51726C19.8723 5.73912 20.6416 4.06186 21.9279 2.66835C23.2646 1.21809 24.9167 0.37946 26.8777 0.221823C27.7289 0.152463 28.6054 0.146157 29.4377 0.297489C31.1969 0.612763 32.2373 1.76036 32.6787 3.45653C33.2777 5.75173 33.0003 7.98387 32.1617 10.1719C31.2537 12.5364 29.961 14.6866 28.5297 16.7611C26.7326 19.3589 24.8284 21.8748 22.6089 24.1322C21.2658 25.5005 19.8155 26.73 18.0941 27.6065C17.3312 27.9974 16.5241 28.2497 15.6728 28.3316C14.3928 28.4514 13.3903 27.8903 12.5958 26.9381C11.4292 25.5509 10.7041 23.9178 10.2312 22.1901C9.46194 19.3968 8.76203 16.5782 8.01168 13.7786C7.64596 12.404 7.2361 11.0357 6.56142 9.76832C6.33442 9.34585 6.05698 8.9423 5.7291 8.5955C5.2688 8.10367 4.84633 8.05953 4.26623 8.40633C3.60415 8.80358 2.96099 9.23866 2.28 9.67373C1.79448 9.0621 1.28374 8.41264 0.779297 7.76948C0.779297 7.74426 0.779297 7.72534 0.779297 7.70642Z" fill="#1B2D47"/>
</svg>
