<svg width="40" height="46" viewBox="0 0 40 46" fill="none" xmlns="http://www.w3.org/2000/svg">
<path fill-rule="evenodd" clip-rule="evenodd" d="M22.7882 8.66152C22.3499 8.2748 21.6732 8.2748 21.235 8.66152L21.2334 8.66291L5.64664 22.3158C5.64616 22.3162 5.64568 22.3166 5.64521 22.3171C5.42285 22.5156 5.26113 22.8593 5.26113 23.1974V42.9266C5.26113 43.5732 5.77502 44.0871 6.42167 44.0871H37.6789C38.3255 44.0871 38.8394 43.5732 38.8394 42.9266V23.1974C38.8394 22.8862 38.6997 22.5809 38.3946 22.3312L38.387 22.325L22.7898 8.66291L22.7882 8.66152ZM23.5553 7.7906C22.6785 7.01772 21.3447 7.01772 20.4679 7.7906C20.4677 7.79083 20.4674 7.79107 20.4671 7.7913L4.87879 21.4456L4.87562 21.4484C4.40238 21.869 4.10059 22.5303 4.10059 23.1974V42.9266C4.10059 44.2141 5.13407 45.2476 6.42167 45.2476H37.6789C38.9665 45.2476 40 44.2141 40 42.9266V23.1974C40 22.5061 39.6786 21.8858 39.1375 21.4396L23.556 7.7913C23.5558 7.79107 23.5555 7.79083 23.5553 7.7906Z" fill="#1B2D47"/>
<path fill-rule="evenodd" clip-rule="evenodd" d="M20.7037 32.3213C21.4942 31.7432 22.5752 31.7564 23.3847 32.3129L23.3898 32.3164L39.1396 43.6547C39.3997 43.8419 39.4588 44.2046 39.2715 44.4647C39.0843 44.7247 38.7216 44.7838 38.4616 44.5966L22.7225 33.266C22.2956 32.9753 21.7559 32.9888 21.3875 33.259L21.3851 33.2607L5.59945 44.597C5.33915 44.7839 4.97659 44.7244 4.78965 44.4641C4.60272 44.2038 4.6622 43.8412 4.9225 43.6543L20.7037 32.3213Z" fill="#1B2D47"/>
<path fill-rule="evenodd" clip-rule="evenodd" d="M4.77765 22.0974C4.95165 21.8323 5.30022 21.7635 5.55621 21.9437L20.8376 32.698C21.0936 32.8782 21.1601 33.2391 20.9861 33.5041C20.8121 33.7692 20.4635 33.838 20.2075 33.6578L4.92611 22.9035C4.67012 22.7233 4.60366 22.3624 4.77765 22.0974Z" fill="#1B2D47"/>
<path fill-rule="evenodd" clip-rule="evenodd" d="M39.2843 22.0974C39.4579 22.3624 39.3916 22.7233 39.1362 22.9035L23.8908 33.6578C23.6354 33.838 23.2877 33.7692 23.1141 33.5041C22.9405 33.2391 23.0068 32.8782 23.2622 32.698L38.5076 21.9437C38.763 21.7635 39.1107 21.8323 39.2843 22.0974Z" fill="#1B2D47"/>
<path d="M22.0504 16.3888C22.0504 16.5823 21.9343 16.7757 21.7796 16.8531C18.1045 18.3231 15.2032 21.2631 13.7332 24.8995C13.6558 25.0929 13.4624 25.1703 13.269 25.1703C13.0755 25.1703 12.9208 25.0929 12.8048 24.8995C11.3347 21.2244 8.3947 18.3231 4.75834 16.8531C4.56492 16.7757 4.48755 16.5823 4.48755 16.3888C4.48755 16.1954 4.56492 16.0407 4.75834 15.9246C8.43338 14.4933 11.3347 11.5146 12.8048 7.87821C12.9208 7.68479 13.0755 7.60742 13.269 7.60742C13.4624 7.60742 13.6558 7.68479 13.7332 7.87821C15.2032 11.5533 18.1432 14.4933 21.7796 15.9246C21.9343 16.0407 22.0504 16.1954 22.0504 16.3888Z" fill="url(#paint0_linear)"/>
<path d="M26.4604 7.60732C26.4604 7.68469 26.383 7.76206 26.3056 7.83943C24.4874 8.57443 23.0174 10.0058 22.2437 11.8626C22.205 11.94 22.1277 12.0174 22.0116 12.0174C21.9342 12.0174 21.8569 11.94 21.7795 11.8626C21.0832 10.0445 19.6132 8.57443 17.7563 7.83943C17.6789 7.76206 17.6016 7.72337 17.6016 7.60732C17.6016 7.52995 17.6789 7.4139 17.7563 7.37521C19.5745 6.6402 21.0445 5.17018 21.7795 3.31332C21.8569 3.23595 21.9342 3.19727 22.0116 3.19727C22.089 3.19727 22.205 3.23595 22.2437 3.31332C22.9787 5.1315 24.4487 6.60152 26.3056 7.37521C26.383 7.4139 26.4604 7.52995 26.4604 7.60732Z" fill="url(#paint1_linear)"/>
<path d="M8.85879 5.17031C8.85879 5.24768 8.78142 5.36373 8.70405 5.40241C6.88587 6.13742 5.41585 7.56876 4.68084 9.42562C4.60348 9.54168 4.56479 9.58036 4.44874 9.58036C4.33268 9.58036 4.25531 9.54168 4.21663 9.42562C3.48162 7.60744 2.0116 6.13742 0.154739 5.40241C0.0386845 5.36373 0 5.28636 0 5.17031C0 5.09294 0.0773692 4.97688 0.154739 4.9382C1.97292 4.20319 3.44294 2.77186 4.21663 0.914996C4.25531 0.798942 4.33268 0.760254 4.44874 0.760254C4.52611 0.760254 4.60348 0.798942 4.68084 0.914996C5.37717 2.73318 6.84719 4.20319 8.70405 4.9382C8.78142 4.97688 8.85879 5.09294 8.85879 5.17031Z" fill="url(#paint2_linear)"/>
<path d="M22.0503 16.4277C22.0503 16.6212 21.9343 16.8146 21.7409 16.892C18.0658 18.362 15.1645 21.2633 13.6944 24.9384C13.6171 25.1318 13.4236 25.2478 13.2302 25.2478V16.4277H22.0503Z" fill="url(#paint3_linear)"/>
<path d="M13.23 16.4277V25.2478C13.0366 25.2478 12.8432 25.1318 12.7658 24.9384C11.2958 21.2633 8.39443 18.362 4.71939 16.892C4.52597 16.8146 4.40991 16.6212 4.40991 16.4277H13.23Z" fill="url(#paint4_linear)"/>
<path d="M13.2301 7.60742V16.4275H4.44873C4.44873 16.2341 4.56478 16.0407 4.75821 15.9633C8.43325 14.4933 11.3346 11.5919 12.8046 7.91689C12.882 7.68479 13.0367 7.60742 13.2301 7.60742Z" fill="url(#paint5_linear)"/>
<path d="M22.0503 16.4275H13.2302V7.60742C13.4236 7.60742 13.6171 7.72347 13.6944 7.91689C15.1645 11.5919 18.0658 14.4933 21.7409 15.9633C21.9343 16.0407 22.0503 16.2341 22.0503 16.4275Z" fill="url(#paint6_linear)"/>
<path d="M26.4603 7.60742C26.4603 7.68479 26.4217 7.80084 26.3056 7.83953C24.4874 8.57453 23.0174 10.0446 22.2824 11.8627C22.2437 11.9788 22.1663 12.0175 22.0503 12.0175V7.60742H26.4603Z" fill="url(#paint7_linear)"/>
<path d="M22.0502 7.60742V12.0175C21.9728 12.0175 21.8568 11.9788 21.8181 11.8627C21.0831 10.0446 19.6131 8.57453 17.7949 7.83953C17.6788 7.80084 17.6401 7.72348 17.6401 7.60742H22.0502Z" fill="url(#paint8_linear)"/>
<path d="M22.0502 3.19727V7.60732H17.6401C17.6401 7.52995 17.6788 7.4139 17.7949 7.37521C19.6131 6.6402 21.0831 5.17019 21.8181 3.35201C21.8568 3.23595 21.9341 3.19727 22.0502 3.19727Z" fill="url(#paint9_linear)"/>
<path d="M26.4603 7.60732H22.0503V3.19727C22.1277 3.19727 22.2437 3.23595 22.2824 3.35201C23.0174 5.17019 24.4874 6.6402 26.3056 7.37521C26.383 7.4139 26.4603 7.52995 26.4603 7.60732Z" fill="url(#paint10_linear)"/>
<path d="M8.81996 5.17041C8.81996 5.24778 8.78128 5.36383 8.66523 5.40251C6.84705 6.13752 5.37703 7.60754 4.64202 9.42572C4.60334 9.54178 4.52597 9.58046 4.40991 9.58046V5.17041H8.81996Z" fill="url(#paint11_linear)"/>
<path d="M4.44887 5.17041V9.58046C4.3715 9.58046 4.25545 9.54178 4.21676 9.42572C3.48175 7.60754 2.01174 6.13752 0.193557 5.40251C0.0775029 5.36383 0.0388184 5.28646 0.0388184 5.17041H4.44887Z" fill="url(#paint12_linear)"/>
<path d="M4.44887 0.760254V5.17031H0.0388184C0.0388184 5.09294 0.0775029 4.97688 0.193557 4.9382C2.01174 4.20319 3.48175 2.73318 4.21676 0.914996C4.25545 0.837627 4.33282 0.760254 4.44887 0.760254Z" fill="url(#paint13_linear)"/>
<path d="M8.8201 5.17031H4.44873V0.760254C4.5261 0.760254 4.64215 0.798942 4.68084 0.914996C5.41585 2.73318 6.88586 4.20319 8.70404 4.9382C8.78141 4.97688 8.8201 5.09294 8.8201 5.17031Z" fill="url(#paint14_linear)"/>
<defs>
<linearGradient id="paint0_linear" x1="6.21037" y1="12.8215" x2="20.2753" y2="19.9879" gradientUnits="userSpaceOnUse">
<stop stop-color="#F1E2B8"/>
<stop offset="1" stop-color="#DBB64D"/>
</linearGradient>
<linearGradient id="paint1_linear" x1="18.525" y1="5.81277" x2="25.5724" y2="9.40364" gradientUnits="userSpaceOnUse">
<stop stop-color="#F1E2B8"/>
<stop offset="1" stop-color="#DBB64D"/>
</linearGradient>
<linearGradient id="paint2_linear" x1="0.907929" y1="3.37329" x2="7.9586" y2="6.96578" gradientUnits="userSpaceOnUse">
<stop stop-color="#F1E2B8"/>
<stop offset="1" stop-color="#DBB64D"/>
</linearGradient>
<linearGradient id="paint3_linear" x1="12.3674" y1="18.1237" x2="19.4069" y2="21.7106" gradientUnits="userSpaceOnUse">
<stop stop-color="#F1E2B8"/>
<stop offset="1" stop-color="#DBB64D"/>
</linearGradient>
<linearGradient id="paint4_linear" x1="7.07463" y1="21.7106" x2="14.1141" y2="18.1237" gradientUnits="userSpaceOnUse">
<stop stop-color="#F1E2B8"/>
<stop offset="1" stop-color="#DBB64D"/>
</linearGradient>
<linearGradient id="paint5_linear" x1="7.07476" y1="11.1083" x2="14.1143" y2="14.6951" gradientUnits="userSpaceOnUse">
<stop stop-color="#F1E2B8"/>
<stop offset="1" stop-color="#DBB64D"/>
</linearGradient>
<linearGradient id="paint6_linear" x1="12.3674" y1="14.6951" x2="19.4069" y2="11.1083" gradientUnits="userSpaceOnUse">
<stop stop-color="#F1E2B8"/>
<stop offset="1" stop-color="#DBB64D"/>
</linearGradient>
<linearGradient id="paint7_linear" x1="21.609" y1="8.46154" x2="25.1287" y2="10.255" gradientUnits="userSpaceOnUse">
<stop stop-color="#F1E2B8"/>
<stop offset="1" stop-color="#DBB64D"/>
</linearGradient>
<linearGradient id="paint8_linear" x1="18.9626" y1="10.255" x2="22.4823" y2="8.46154" gradientUnits="userSpaceOnUse">
<stop stop-color="#F1E2B8"/>
<stop offset="1" stop-color="#DBB64D"/>
</linearGradient>
<linearGradient id="paint9_linear" x1="18.9626" y1="4.95382" x2="22.4823" y2="6.7472" gradientUnits="userSpaceOnUse">
<stop stop-color="#F1E2B8"/>
<stop offset="1" stop-color="#DBB64D"/>
</linearGradient>
<linearGradient id="paint10_linear" x1="21.609" y1="6.74721" x2="25.1287" y2="4.95382" gradientUnits="userSpaceOnUse">
<stop stop-color="#F1E2B8"/>
<stop offset="1" stop-color="#DBB64D"/>
</linearGradient>
<linearGradient id="paint11_linear" x1="3.99912" y1="6.03118" x2="7.51884" y2="7.82457" gradientUnits="userSpaceOnUse">
<stop stop-color="#F1E2B8"/>
<stop offset="1" stop-color="#DBB64D"/>
</linearGradient>
<linearGradient id="paint12_linear" x1="1.35309" y1="7.82456" x2="4.87281" y2="6.03118" gradientUnits="userSpaceOnUse">
<stop stop-color="#F1E2B8"/>
<stop offset="1" stop-color="#DBB64D"/>
</linearGradient>
<linearGradient id="paint13_linear" x1="1.35309" y1="2.52342" x2="4.87282" y2="4.31685" gradientUnits="userSpaceOnUse">
<stop stop-color="#F1E2B8"/>
<stop offset="1" stop-color="#DBB64D"/>
</linearGradient>
<linearGradient id="paint14_linear" x1="3.99921" y1="4.31685" x2="7.51898" y2="2.52343" gradientUnits="userSpaceOnUse">
<stop stop-color="#F1E2B8"/>
<stop offset="1" stop-color="#DBB64D"/>
</linearGradient>
</defs>
</svg>
