<svg width="40" height="46" viewBox="0 0 40 46" fill="none" xmlns="http://www.w3.org/2000/svg">
<path d="M35.9644 14.3462C35.9644 14.544 35.8852 14.7023 35.6874 14.7814C32.3244 16.1266 29.6339 18.7775 28.3283 22.1801C28.2492 22.3779 28.0513 22.457 27.8931 22.457C27.7348 22.457 27.5765 22.3779 27.4579 22.1801C26.1126 18.7775 23.4618 16.1266 20.0987 14.7814C19.9009 14.7023 19.8218 14.544 19.8218 14.3462C19.8218 14.1879 19.9009 14.0297 20.0987 13.9505C23.4618 12.6053 26.1126 9.9149 27.4579 6.55186C27.537 6.35403 27.7348 6.2749 27.8931 6.2749C28.0513 6.2749 28.2096 6.35403 28.3283 6.55186C29.6339 9.9149 32.3244 12.6053 35.6874 13.9505C35.8852 14.0297 35.9644 14.1879 35.9644 14.3462Z" fill="url(#paint0_linear)"/>
<path d="M40 6.31445C40 6.39358 39.9209 6.47271 39.8813 6.51228C38.18 7.18489 36.8744 8.5301 36.1622 10.1918C36.1226 10.271 36.0435 10.3501 35.9644 10.3501C35.8852 10.3501 35.8061 10.271 35.7665 10.1918C35.0939 8.5301 33.7487 7.18489 32.0474 6.51228C31.9287 6.47271 31.9287 6.39358 31.9287 6.31445C31.9287 6.23532 31.9683 6.11663 32.0474 6.07706C33.7091 5.40445 35.0544 4.05924 35.7665 2.3975C35.8061 2.31837 35.8852 2.27881 35.9644 2.27881C36.0435 2.27881 36.1226 2.31837 36.1622 2.3975C36.8348 4.05924 38.18 5.40445 39.8813 6.07706C39.9604 6.11663 40 6.19576 40 6.31445Z" fill="url(#paint1_linear)"/>
<path d="M23.8574 4.05908C23.8574 4.13821 23.8179 4.21734 23.7387 4.25691C22.077 4.92952 20.7318 6.27473 20.0196 7.93647C19.98 8.0156 19.9009 8.09473 19.8218 8.09473C19.7426 8.09473 19.6635 8.0156 19.624 7.93647C18.9513 6.27473 17.6061 4.92952 15.9048 4.25691C15.8257 4.21734 15.7861 4.13821 15.7861 4.05908C15.7861 3.97995 15.8653 3.90082 15.9048 3.82169C17.6061 3.14908 18.9118 1.80387 19.624 0.142133C19.6635 0.0630026 19.7426 0.0234375 19.8218 0.0234375C19.9009 0.0234375 19.98 0.0630026 20.0196 0.142133C20.6922 1.84343 22.0374 3.18865 23.7387 3.82169C23.8179 3.90082 23.8574 3.97995 23.8574 4.05908Z" fill="url(#paint2_linear)"/>
<path d="M35.9643 14.3462C35.9643 14.5045 35.8852 14.7023 35.6874 14.7418C32.3243 16.0871 29.6339 18.7775 28.3283 22.101C28.2491 22.2988 28.0909 22.3779 27.9326 22.3779V14.3462H35.9643Z" fill="url(#paint3_linear)"/>
<path d="M27.8931 14.3462V22.4175C27.7348 22.4175 27.537 22.3384 27.4974 22.1405C26.1522 18.7775 23.4618 16.1266 20.1383 14.7814C19.9405 14.7023 19.8613 14.544 19.8613 14.3858H27.8931V14.3462Z" fill="url(#paint4_linear)"/>
<path d="M27.8931 6.2749V14.3462H19.8218C19.8218 14.1879 19.9009 13.9901 20.0987 13.9505C23.4618 12.6053 26.1126 9.9149 27.4579 6.59142C27.5765 6.3936 27.7348 6.2749 27.8931 6.2749Z" fill="url(#paint5_linear)"/>
<path d="M35.9644 14.3462H27.8931V6.2749C28.0513 6.2749 28.2492 6.35403 28.2887 6.55186C29.6339 9.9149 32.3244 12.6053 35.6478 13.911C35.8852 14.0297 35.9644 14.1879 35.9644 14.3462Z" fill="url(#paint6_linear)"/>
<path d="M40 6.2749C40 6.35403 39.9604 6.43316 39.8417 6.47273C38.18 7.14534 36.8348 8.49055 36.1622 10.1523C36.1226 10.2314 36.0435 10.3105 35.9644 10.3105V6.2749H40Z" fill="url(#paint7_linear)"/>
<path d="M35.9644 6.2749V10.3105C35.8852 10.3105 35.8061 10.271 35.7665 10.1523C35.0939 8.49055 33.7487 7.14534 32.087 6.47273C32.0078 6.43316 31.9287 6.35403 31.9287 6.2749H35.9644Z" fill="url(#paint8_linear)"/>
<path d="M35.9644 2.23926V6.2749H31.9287C31.9287 6.19577 31.9683 6.11664 32.087 6.07708C33.7487 5.40447 35.0939 4.05925 35.7665 2.39752C35.8061 2.27882 35.8852 2.23926 35.9644 2.23926Z" fill="url(#paint9_linear)"/>
<path d="M40 6.2749H35.9644V2.23926C36.0435 2.23926 36.1226 2.27882 36.1622 2.39752C36.8348 4.05925 38.18 5.40447 39.8417 6.07708C39.9604 6.11664 40 6.19577 40 6.2749Z" fill="url(#paint10_linear)"/>
<path d="M23.8574 4.05908C23.8574 4.13821 23.8179 4.21734 23.6992 4.25691C22.0374 4.92952 20.6922 6.27473 20.0196 7.93647C19.98 8.0156 19.9009 8.09473 19.8218 8.09473V4.05908H23.8574Z" fill="url(#paint11_linear)"/>
<path d="M19.8218 4.05908V8.09473C19.7426 8.09473 19.6635 8.05516 19.624 7.93647C18.9513 6.27473 17.6061 4.92952 15.9444 4.25691C15.8653 4.21734 15.7861 4.13821 15.7861 4.05908H19.8218Z" fill="url(#paint12_linear)"/>
<path d="M19.8218 0.0234375V4.05908H15.7861C15.7861 3.97995 15.8257 3.90082 15.9444 3.86126C17.6061 3.18865 18.9513 1.84343 19.624 0.181698C19.6635 0.0630026 19.7426 0.0234375 19.8218 0.0234375Z" fill="url(#paint13_linear)"/>
<path d="M23.8574 4.05908H19.8218V0.0234375C19.9009 0.0234375 19.98 0.0630026 20.0196 0.181698C20.6922 1.84343 22.0374 3.18865 23.7387 3.86126C23.8179 3.90082 23.8574 3.97995 23.8574 4.05908Z" fill="url(#paint14_linear)"/>
<path d="M6.60702 11.2202C7.12137 11.2202 7.55658 11.5367 7.83354 11.8136L7.8731 11.8532C8.38745 12.328 8.9018 12.8423 9.41615 13.3567C9.6931 13.6336 9.93049 13.9106 10.2074 14.1875L12.5418 16.5219C13.4122 17.3923 13.4122 18.2628 12.5418 19.1332C12.3044 19.4101 12.067 19.6475 11.7901 19.8849C11.0779 20.6367 10.4053 21.3093 9.65354 21.9819C9.61397 21.9819 9.61397 21.9819 9.61397 22.0214C8.86223 22.7732 9.02049 23.4458 9.17875 23.9206V23.9997C9.8118 25.4636 10.6427 26.888 11.9483 28.5101C14.3222 31.4379 16.7753 33.6536 19.5448 35.3945C19.8613 35.6319 20.257 35.7901 20.5735 35.9879C20.8505 36.1462 21.167 36.2649 21.4044 36.4232C21.4439 36.4232 21.4835 36.4627 21.5231 36.5023C21.8 36.621 22.077 36.7001 22.3539 36.7001C23.0661 36.7001 23.5013 36.2649 23.6596 36.1066L26.5874 33.1788C26.8644 32.9019 27.3392 32.5458 27.8931 32.5458C28.4074 32.5458 28.8426 32.8623 29.1196 33.1788L33.8278 37.8871C34.6983 38.7179 34.6983 39.6675 33.8278 40.5379C33.5113 40.894 33.1552 41.2501 32.7991 41.5666C32.2452 42.1205 31.6518 42.6744 31.1374 43.2679C30.3065 44.1779 29.2778 44.6131 27.9326 44.6131H27.5765C25.0444 44.4549 22.6705 43.4657 20.9296 42.6349C16.0631 40.3005 11.8296 36.9771 8.30832 32.7832C5.3805 29.3014 3.48137 26.0571 2.17572 22.6149C1.38442 20.4784 1.0679 18.8167 1.22616 17.2736C1.30529 16.2845 1.70094 15.4141 2.41312 14.7415L5.34094 11.8136C5.69702 11.4575 6.1718 11.2202 6.60702 11.2202ZM6.60702 10.0332C5.89485 10.0332 5.18268 10.3497 4.51007 10.9432H4.4705L4.43094 10.9828L1.54268 13.871C0.632683 14.781 0.118337 15.8888 0.0392062 17.1549C-0.119054 18.8958 0.197467 20.7158 1.0679 23.0106C2.41312 26.6506 4.43094 30.0136 7.35876 33.5349C10.9988 37.8871 15.3509 41.2897 20.2966 43.6636C22.1561 44.5736 24.6487 45.6023 27.4183 45.7605H27.4579H27.4974H27.8535C29.5152 45.7605 30.8605 45.2066 31.9287 44.0197C32.2848 43.624 32.72 43.1888 33.1157 42.7931C33.2344 42.6744 33.3926 42.5162 33.5113 42.3975C33.907 42.0414 34.2631 41.6853 34.5796 41.3292C35.4104 40.4984 35.5687 39.6675 35.5687 39.1532C35.5687 38.6388 35.3709 37.8079 34.54 37.0166L29.9109 32.3479C29.6339 32.0314 28.8822 31.3588 27.8139 31.3588C27.2996 31.3588 26.5083 31.5171 25.6774 32.3479L22.7892 35.2362C22.6705 35.3549 22.5122 35.4736 22.3539 35.4736C22.2748 35.4736 22.1957 35.4736 22.077 35.434C21.9979 35.3945 21.9583 35.3549 21.8792 35.3153C21.6022 35.1571 21.3253 35.0384 21.0879 34.9197C21.0087 34.8801 20.9296 34.8405 20.8505 34.801C20.6131 34.6823 20.3757 34.5636 20.1779 34.4053C17.5666 32.7436 15.1531 30.6071 12.8979 27.798C11.7901 26.3736 10.9988 25.1471 10.4053 23.8019L10.3657 23.6436C10.247 23.3271 10.247 23.1688 10.524 22.9314C11.1966 22.338 11.8692 21.6654 12.6605 20.8345C12.8583 20.6762 13.0166 20.4784 13.1748 20.3201C13.254 20.241 13.3331 20.1619 13.4122 20.0828C14.7574 18.7375 14.7574 17.1154 13.4122 15.8097L11.0779 13.4754C10.8009 13.1984 10.5635 12.961 10.3261 12.6841L10.2866 12.6445L10.247 12.6049C9.6931 12.051 9.21832 11.5762 8.70397 11.1015C8.03137 10.3497 7.31919 10.0332 6.60702 10.0332Z" fill="#1B2D47"/>
<defs>
<linearGradient id="paint0_linear" x1="21.4404" y1="11.0672" x2="34.3499" y2="17.6449" gradientUnits="userSpaceOnUse">
<stop stop-color="#F1E2B8"/>
<stop offset="1" stop-color="#DBB64D"/>
</linearGradient>
<linearGradient id="paint1_linear" x1="32.7326" y1="4.64718" x2="39.1902" y2="7.93753" gradientUnits="userSpaceOnUse">
<stop stop-color="#F1E2B8"/>
<stop offset="1" stop-color="#DBB64D"/>
</linearGradient>
<linearGradient id="paint2_linear" x1="16.6007" y1="2.41673" x2="23.0535" y2="5.7046" gradientUnits="userSpaceOnUse">
<stop stop-color="#F1E2B8"/>
<stop offset="1" stop-color="#DBB64D"/>
</linearGradient>
<linearGradient id="paint3_linear" x1="27.0954" y1="15.9258" x2="33.5467" y2="19.2129" gradientUnits="userSpaceOnUse">
<stop stop-color="#F1E2B8"/>
<stop offset="1" stop-color="#DBB64D"/>
</linearGradient>
<linearGradient id="paint4_linear" x1="22.245" y1="19.2129" x2="28.6963" y2="15.9258" gradientUnits="userSpaceOnUse">
<stop stop-color="#F1E2B8"/>
<stop offset="1" stop-color="#DBB64D"/>
</linearGradient>
<linearGradient id="paint5_linear" x1="22.2451" y1="9.49669" x2="28.6964" y2="12.7838" gradientUnits="userSpaceOnUse">
<stop stop-color="#F1E2B8"/>
<stop offset="1" stop-color="#DBB64D"/>
</linearGradient>
<linearGradient id="paint6_linear" x1="27.0954" y1="12.7838" x2="33.5467" y2="9.49669" gradientUnits="userSpaceOnUse">
<stop stop-color="#F1E2B8"/>
<stop offset="1" stop-color="#DBB64D"/>
</linearGradient>
<linearGradient id="paint7_linear" x1="35.5648" y1="7.07111" x2="38.7905" y2="8.71469" gradientUnits="userSpaceOnUse">
<stop stop-color="#F1E2B8"/>
<stop offset="1" stop-color="#DBB64D"/>
</linearGradient>
<linearGradient id="paint8_linear" x1="33.1396" y1="8.71469" x2="36.3653" y2="7.07111" gradientUnits="userSpaceOnUse">
<stop stop-color="#F1E2B8"/>
<stop offset="1" stop-color="#DBB64D"/>
</linearGradient>
<linearGradient id="paint9_linear" x1="33.1396" y1="3.85656" x2="36.3653" y2="5.50014" gradientUnits="userSpaceOnUse">
<stop stop-color="#F1E2B8"/>
<stop offset="1" stop-color="#DBB64D"/>
</linearGradient>
<linearGradient id="paint10_linear" x1="35.5648" y1="5.50014" x2="38.7905" y2="3.85656" gradientUnits="userSpaceOnUse">
<stop stop-color="#F1E2B8"/>
<stop offset="1" stop-color="#DBB64D"/>
</linearGradient>
<linearGradient id="paint11_linear" x1="19.4265" y1="4.84354" x2="22.6521" y2="6.48708" gradientUnits="userSpaceOnUse">
<stop stop-color="#F1E2B8"/>
<stop offset="1" stop-color="#DBB64D"/>
</linearGradient>
<linearGradient id="paint12_linear" x1="17.0013" y1="6.48708" x2="20.227" y2="4.84354" gradientUnits="userSpaceOnUse">
<stop stop-color="#F1E2B8"/>
<stop offset="1" stop-color="#DBB64D"/>
</linearGradient>
<linearGradient id="paint13_linear" x1="17.0013" y1="1.62899" x2="20.227" y2="3.27253" gradientUnits="userSpaceOnUse">
<stop stop-color="#F1E2B8"/>
<stop offset="1" stop-color="#DBB64D"/>
</linearGradient>
<linearGradient id="paint14_linear" x1="19.4265" y1="3.27253" x2="22.6521" y2="1.62899" gradientUnits="userSpaceOnUse">
<stop stop-color="#F1E2B8"/>
<stop offset="1" stop-color="#DBB64D"/>
</linearGradient>
</defs>
</svg>
