<svg width="42" height="45" viewBox="0 0 42 45" fill="none" xmlns="http://www.w3.org/2000/svg">
<g clip-path="url(#clip0)">
<path fill-rule="evenodd" clip-rule="evenodd" d="M1.39471 39.8178C1.39471 39.5311 1.62715 39.2986 1.91388 39.2986H17.0177C17.3044 39.2986 17.5369 39.5311 17.5369 39.8178V42.0825C17.5382 42.2168 17.5133 42.3501 17.4636 42.4748C17.4133 42.6009 17.3386 42.7159 17.2437 42.813C17.1489 42.9102 17.0358 42.9877 16.911 43.041C16.7861 43.0944 16.6519 43.1225 16.5162 43.1239L16.511 43.1239L2.41538 43.1239C2.27968 43.1226 2.14552 43.0944 2.02061 43.041C1.89576 42.9877 1.78267 42.9102 1.68785 42.813C1.59301 42.7159 1.51831 42.6009 1.46801 42.4748C1.41825 42.3501 1.39336 42.2168 1.39471 42.0825V39.8178ZM2.43305 40.337V42.0856H16.4985L16.4985 40.337H2.43305Z" fill="white"/>
<path fill-rule="evenodd" clip-rule="evenodd" d="M17.8248 24.9912H1.09802L1.69297 31.6294H6.44159L7.98837 29.1302C8.12345 28.9094 8.30111 28.7176 8.51102 28.566C8.72139 28.4142 8.95991 28.3058 9.21265 28.2472C9.46539 28.1886 9.72728 28.1809 9.98301 28.2247C10.2387 28.2685 10.4832 28.3628 10.702 28.5021L14.0945 30.6647C14.337 30.8201 14.5428 31.0264 14.6975 31.2693C14.7685 31.3807 14.8279 31.4986 14.8752 31.6211H17.2342L17.2389 31.5625L17.8248 24.9912ZM17.9099 23.9529C17.9371 23.9483 17.9651 23.9458 17.9936 23.9456C18.1179 23.9448 18.241 23.9704 18.3547 24.0207C18.4684 24.0709 18.5701 24.1447 18.6533 24.2371C18.7364 24.3296 18.7989 24.4386 18.8368 24.557C18.8739 24.673 18.8866 24.7954 18.8739 24.9165L18.2735 31.6501L18.2731 31.6547L18.231 32.1817C18.2094 32.4515 17.9841 32.6594 17.7134 32.6594H14.4759C14.2158 32.6594 13.9959 32.467 13.9613 32.2092C13.9431 32.0732 13.8954 31.9429 13.8217 31.8271C13.7481 31.7116 13.6503 31.6134 13.535 31.5395C13.5348 31.5393 13.5352 31.5396 13.535 31.5395L10.1444 29.378C10.1443 29.378 10.1445 29.3781 10.1444 29.378C10.042 29.3129 9.92743 29.2686 9.80781 29.2482C9.6881 29.2277 9.56552 29.2313 9.44721 29.2587C9.3289 29.2861 9.21725 29.3369 9.11879 29.4079C9.02033 29.479 8.93702 29.569 8.87373 29.6727L8.87208 29.6754L7.1723 32.4218C7.07767 32.5747 6.91065 32.6678 6.73083 32.6678H1.21824C0.949468 32.6678 0.725132 32.4626 0.701139 32.1949L0.0492465 24.9213C0.0375492 24.8001 0.0510653 24.6776 0.0889651 24.5618C0.127211 24.4449 0.18944 24.3372 0.271662 24.2458C0.353894 24.1543 0.454313 24.081 0.566488 24.0306C0.678679 23.9801 0.800154 23.9537 0.923137 23.9529L0.926465 23.9529L17.9099 23.9529Z" fill="white"/>
<path fill-rule="evenodd" clip-rule="evenodd" d="M0.835018 31.791C0.933372 31.6835 1.07241 31.6222 1.21815 31.6222H6.73074C6.91968 31.6222 7.09369 31.7248 7.18511 31.8902C7.27652 32.0555 7.27089 32.2575 7.17041 32.4175L6.73343 33.1133C6.60184 33.3275 6.55903 33.5846 6.61415 33.8298C6.66927 34.0751 6.81796 34.2892 7.02852 34.4264L10.4168 36.5884C10.4169 36.5885 10.4166 36.5883 10.4168 36.5884C10.5193 36.6534 10.6341 36.6976 10.7536 36.718C10.8734 36.7384 10.996 36.7348 11.1144 36.7073C11.2327 36.6799 11.3444 36.6292 11.443 36.5581C11.5416 36.4871 11.625 36.3971 11.6885 36.2935L11.6903 36.2905L13.8267 32.8562C13.8269 32.8558 13.8272 32.8554 13.8274 32.855C13.9451 32.6627 13.9927 32.4357 13.9624 32.2123C13.9422 32.0638 13.9872 31.9138 14.0857 31.8009C14.1843 31.688 14.3268 31.6233 14.4767 31.6232L17.7039 31.6222C17.8496 31.6221 17.9887 31.6834 18.0871 31.7909C18.1855 31.8985 18.2341 32.0425 18.2211 32.1877L17.5337 39.8642C17.5098 40.1319 17.2854 40.337 17.0166 40.337H1.90554C1.63675 40.337 1.4124 40.1319 1.38843 39.8642L0.701045 32.1877C0.688047 32.0425 0.736663 31.8986 0.835018 31.791ZM1.78589 32.6605L2.3803 39.2987H16.5419L17.1363 32.6607L14.9845 32.6614C14.9432 32.921 14.8512 33.172 14.7116 33.3993L14.71 33.402L12.5739 36.8359C12.5736 36.8364 12.5733 36.837 12.5729 36.8375C12.4376 37.0579 12.26 37.2492 12.0502 37.4005C11.8399 37.552 11.6015 37.6603 11.349 37.7188C11.0964 37.7774 10.8348 37.7851 10.5792 37.7416C10.3236 37.698 10.0793 37.604 9.86042 37.4651L9.85934 37.4644L6.46465 35.2984C6.02576 35.0134 5.7158 34.5681 5.60107 34.0575C5.4943 33.5824 5.56449 33.086 5.79617 32.6605H1.78589Z" fill="white"/>
<path fill-rule="evenodd" clip-rule="evenodd" d="M18.2462 31.8622L18.2202 32.1877L17.5348 39.8411V40.0786C18.0412 40.6844 18.6703 41.177 19.3813 41.5234C20.1451 41.8955 20.9834 42.0891 21.8329 42.0898H21.8566C22.7875 42.0829 23.7022 41.8461 24.5195 41.4004C25.3373 40.9544 26.0321 40.3132 26.542 39.5336L26.5438 39.531C27.1731 38.5819 27.5075 37.4679 27.505 36.3291L28.0242 36.328L27.505 36.3247C27.5147 34.8079 26.9225 33.3491 25.8582 32.2683C24.7945 31.188 23.346 30.5733 21.83 30.5589C20.5173 30.5586 19.2488 31.0214 18.2462 31.8622ZM28.5434 36.329C28.5542 34.5381 27.8547 32.8159 26.5981 31.5397C25.341 30.263 23.6289 29.5369 21.8373 29.5206L21.8329 29.5206C20.1945 29.5195 18.614 30.1266 17.3978 31.2243C17.2994 31.3131 17.2387 31.4362 17.2281 31.5683L17.1857 32.0975L16.4985 39.7716C16.4972 39.787 16.4965 39.8024 16.4965 39.8179V40.2623C16.4965 40.3784 16.5354 40.4912 16.607 40.5826C17.2282 41.375 18.0214 42.0159 18.9266 42.4569C19.8317 42.8979 20.8253 43.1274 21.8321 43.1281H21.8585L21.8621 43.1281C22.9648 43.1203 24.0485 42.84 25.0166 42.312C25.9843 41.7843 26.8065 41.0257 27.4101 40.1035C28.1516 38.9845 28.5459 37.6714 28.5434 36.329Z" fill="white"/>
<path fill-rule="evenodd" clip-rule="evenodd" d="M23.2963 33.2052C23.1752 33.3276 23.0927 33.483 23.0591 33.6519C23.0254 33.8208 23.0421 33.9958 23.1071 34.1553C23.172 34.3148 23.2823 34.4517 23.4244 34.5491C23.565 34.6455 23.7306 34.6989 23.901 34.7029C24.011 34.702 24.1197 34.6794 24.221 34.6366C24.3239 34.5931 24.4171 34.5295 24.4952 34.4495L25.2385 35.1745C25.064 35.3533 24.8556 35.4956 24.6255 35.5929C24.3953 35.6903 24.1481 35.7407 23.8982 35.7413L23.8879 35.7413L23.8879 35.7412C23.5124 35.7346 23.1471 35.6179 22.8374 35.4056C22.5276 35.1933 22.287 34.8947 22.1454 34.5469C22.0038 34.1991 21.9674 33.8173 22.0407 33.449C22.1141 33.0807 22.294 32.742 22.5581 32.475L23.2963 33.2052Z" fill="white"/>
<path fill-rule="evenodd" clip-rule="evenodd" d="M30.2289 39.8178V26.5405H31.2672V39.8178H30.2289Z" fill="white"/>
<path fill-rule="evenodd" clip-rule="evenodd" d="M37.6342 42.0908H41.0607V43.1291H37.6342V42.0908Z" fill="white"/>
<path fill-rule="evenodd" clip-rule="evenodd" d="M26.5438 39.534C26.6396 39.3872 26.8031 39.2986 26.9785 39.2986H35.9343C36.1272 39.2988 36.3167 39.3528 36.4807 39.4544C36.6446 39.556 36.777 39.7012 36.8631 39.8739L36.864 39.8756L38.0996 42.3791C38.179 42.54 38.1697 42.7306 38.075 42.883C37.9802 43.0354 37.8135 43.1281 37.634 43.1281H21.8605C21.5744 43.1281 21.3422 42.8966 21.3413 42.6105C21.3404 42.3243 21.5712 42.0915 21.8573 42.0897C22.7888 42.0841 23.7044 41.8477 24.5222 41.4017C25.34 40.9558 26.0346 40.3141 26.5438 39.534ZM27.2523 40.337C26.7527 41.0353 26.1233 41.6303 25.3991 42.0897H36.7988L35.9337 40.337L27.2523 40.337Z" fill="white"/>
<path fill-rule="evenodd" clip-rule="evenodd" d="M23.1917 7.8938V7.89381H35.0475C35.2022 7.89381 35.3487 7.96273 35.4474 8.08181C35.546 8.2009 35.5864 8.35775 35.5576 8.50967L34.2347 15.4884C34.1883 15.7335 33.9741 15.9109 33.7247 15.9109H21.8605C21.7197 15.9109 21.5849 15.8537 21.4871 15.7525C21.3893 15.6512 21.3368 15.5146 21.3416 15.3739C21.394 13.8503 21.5509 11.7007 21.7817 9.18583C21.8136 8.8342 21.9753 8.50704 22.2354 8.26817C22.4956 8.02911 22.8356 7.89564 23.189 7.89381L23.1917 7.8938ZM23.1933 8.93215C23.0986 8.93291 23.0076 8.96878 22.9378 9.03285C22.8678 9.09715 22.8243 9.18524 22.8158 9.27992L22.8157 9.28072C22.6118 11.5025 22.4671 13.4243 22.401 14.8725H33.2946L34.4207 8.93215H23.1933Z" fill="white"/>
<path fill-rule="evenodd" clip-rule="evenodd" d="M34.5386 8.31636C34.5851 8.07124 34.7993 7.8938 35.0487 7.8938H38.3088C38.6607 7.89781 38.9986 8.03173 39.2577 8.26976C39.5168 8.50777 39.6789 8.83315 39.7127 9.18341L39.7131 9.18709C39.9376 11.7015 40.0923 13.8507 40.1447 15.3739C40.1495 15.5146 40.097 15.6512 39.9992 15.7525C39.9013 15.8537 39.7666 15.9109 39.6258 15.9109H33.7269C33.5723 15.9109 33.4258 15.842 33.3271 15.7229C33.2285 15.6038 33.1881 15.447 33.2168 15.2951L34.5386 8.31636ZM35.4788 8.93215L34.3537 14.8725H39.0854C39.0197 13.4244 38.8773 11.5029 38.679 9.28164C38.6695 9.1869 38.6255 9.09891 38.5553 9.03444C38.4853 8.97017 38.3943 8.9338 38.2993 8.93215H35.4788Z" fill="white"/>
<path fill-rule="evenodd" clip-rule="evenodd" d="M21.3344 15.3794C21.3412 15.0975 21.5716 14.8726 21.8535 14.8726H39.6186C39.8925 14.8726 40.1193 15.0854 40.1367 15.3588C40.1627 15.7681 40.1627 16.1225 40.1627 16.4265V16.4301C40.1627 22.2359 36.0062 27.0597 30.7397 27.0597C25.4731 27.0597 21.3167 22.2359 21.3167 16.4301C21.3167 16.1263 21.3247 15.7899 21.3336 15.4131C21.3339 15.4019 21.3342 15.3907 21.3344 15.3794ZM22.361 15.9109C22.3574 16.0971 22.355 16.2689 22.355 16.4301C22.355 21.7906 26.1668 26.0213 30.7397 26.0213C35.3125 26.0213 39.1243 21.7906 39.1243 16.4301C39.1243 16.2644 39.1243 16.0928 39.1205 15.9109H22.361Z" fill="white"/>
<path fill-rule="evenodd" clip-rule="evenodd" d="M38.5101 4.04994L39.5059 3.70105L39.8492 4.68099L38.8555 5.02914L36.2626 5.96259C36.2625 5.96263 36.2627 5.96255 36.2626 5.96259C36.1888 5.9894 36.1229 6.03531 36.0724 6.09548C36.0217 6.15572 35.9879 6.22826 35.9742 6.30581L35.9732 6.31178L35.5599 8.50892L34.5394 8.31698L34.9522 6.12249C34.9979 5.86639 35.11 5.62671 35.2774 5.42747C35.4455 5.2274 35.6635 5.07521 35.9092 4.98625L38.5101 4.04994Z" fill="white"/>
<path fill-rule="evenodd" clip-rule="evenodd" d="M32.2894 20.1803L33.2167 15.2949L34.2368 15.4885L33.3096 20.3739L32.2894 20.1803Z" fill="white"/>
<path fill-rule="evenodd" clip-rule="evenodd" d="M9.80771 29.2402C9.68807 29.2196 9.56552 29.2232 9.44727 29.2506C9.32899 29.278 9.2174 29.3288 9.11905 29.3999C9.02067 29.471 8.93749 29.5611 8.87439 29.6648L8.87239 29.668L7.66278 31.6232H13.6494C13.6128 31.5901 13.5737 31.5598 13.5323 31.5324L10.1442 29.3705C10.0419 29.3052 9.92733 29.2608 9.80771 29.2402ZM14.4761 32.1424V32.6616H6.73109C6.54278 32.6616 6.36923 32.5596 6.27757 32.3951C6.18591 32.2306 6.1905 32.0294 6.28958 31.8692L7.98842 29.1233C8.12326 28.9022 8.3008 28.7102 8.51066 28.5584C8.7211 28.4063 8.95978 28.2977 9.21271 28.2391C9.46566 28.1804 9.72778 28.1729 9.98368 28.2169C10.2395 28.2609 10.484 28.3555 10.7027 28.4952L14.0996 30.6627C14.3399 30.8204 14.5436 31.0277 14.6972 31.2705C14.8509 31.5134 14.9508 31.7863 14.9904 32.0709L14.4761 32.1424Z" fill="white"/>
<path fill-rule="evenodd" clip-rule="evenodd" d="M6.28704 31.8745C6.38203 31.7233 6.5481 31.6315 6.72671 31.6315H14.4718C14.7306 31.6315 14.95 31.8222 14.9859 32.0786C15.0501 32.5363 14.954 33.0022 14.714 33.3973L14.2703 33.1277L14.7115 33.4014L12.5746 36.8459C12.4398 37.0669 12.2623 37.2588 12.0526 37.4105C11.8421 37.5626 11.6034 37.6712 11.3505 37.7299C11.0976 37.7885 10.8355 37.7961 10.5796 37.7521C10.3237 37.7081 10.0793 37.6135 9.86049 37.4738C9.86042 37.4737 9.86055 37.4738 9.86049 37.4738L6.45913 35.3067C6.02206 35.0208 5.71356 34.5759 5.59904 34.0663C5.48453 33.5568 5.57304 33.0227 5.84578 32.5773L5.84884 32.5723L6.28704 31.8745ZM13.8277 32.8563C13.8636 32.7971 13.8927 32.7345 13.9148 32.6698H7.01374L6.72992 33.1218C6.59927 33.3364 6.55701 33.5934 6.61212 33.8387C6.66722 34.0839 6.81533 34.298 7.02518 34.4361L10.4187 36.5982C10.5211 36.6636 10.6359 36.7082 10.7555 36.7288C10.8751 36.7493 10.9976 36.7458 11.116 36.7183C11.2342 36.6909 11.3458 36.6402 11.4442 36.569C11.5426 36.4979 11.6257 36.4079 11.6888 36.3041L11.6912 36.3003L13.8277 32.8563Z" fill="white"/>
<path d="M25.2998 16.2805C25.3005 16.3912 25.267 16.4994 25.2041 16.5905C25.1411 16.6815 25.0516 16.7509 24.9478 16.7893C22.8966 17.6023 21.0335 18.8266 19.4732 20.3868C17.913 21.947 16.6887 23.8101 15.8757 25.8614C15.8374 25.9652 15.7679 26.0547 15.6769 26.1176C15.5859 26.1806 15.4776 26.214 15.3669 26.2134V16.2805H25.2998Z" fill="url(#paint0_linear)"/>
<path d="M15.3677 16.2805V26.2123C15.257 26.213 15.1488 26.1796 15.0578 26.1166C14.9668 26.0536 14.8973 25.9641 14.8589 25.8603C14.0459 23.8091 12.8216 21.946 11.2614 20.3858C9.70121 18.8256 7.83811 17.6013 5.78688 16.7883C5.68342 16.7498 5.59428 16.6804 5.53151 16.5896C5.46874 16.4988 5.43537 16.3909 5.43592 16.2805H15.3677Z" fill="url(#paint1_linear)"/>
<path d="M15.3677 6.38824V16.2816H5.43592C5.43524 16.1709 5.46866 16.0627 5.53164 15.9717C5.59462 15.8807 5.6841 15.8112 5.78793 15.7728C7.83926 14.9597 9.70241 13.7353 11.2626 12.1749C12.8228 10.6145 14.0471 8.75117 14.86 6.69975C14.911 6.60879 14.9844 6.5324 15.0733 6.47787C15.1622 6.42334 15.2635 6.39249 15.3677 6.38824Z" fill="url(#paint2_linear)"/>
<path d="M25.2996 16.2816H15.3678V6.38819C15.4785 6.38751 15.5867 6.42093 15.6777 6.48391C15.7688 6.54689 15.8382 6.63637 15.8766 6.74019C16.6896 8.79142 17.9139 10.6545 19.4741 12.2147C21.0343 13.7749 22.8974 14.9992 24.9486 15.8122C25.0498 15.8424 25.1386 15.9043 25.2018 15.9888C25.265 16.0734 25.2993 16.176 25.2996 16.2816Z" fill="url(#paint3_linear)"/>
<path d="M30.2266 6.38818C30.2334 6.43967 30.2213 6.49187 30.1925 6.53505C30.1636 6.57822 30.12 6.60943 30.0699 6.62285C29.0444 7.02933 28.113 7.64142 27.3329 8.42143C26.5529 9.20144 25.9408 10.1329 25.5343 11.1584C25.5164 11.2057 25.4842 11.2462 25.4421 11.2743C25.4001 11.3024 25.3503 11.3167 25.2997 11.3151V6.38818H30.2266Z" fill="url(#paint4_linear)"/>
<path d="M25.2995 6.38818V11.3546C25.2481 11.3612 25.196 11.3489 25.1528 11.3201C25.1097 11.2913 25.0785 11.2479 25.0649 11.1978C24.6584 10.1723 24.0463 9.2409 23.2663 8.46089C22.4863 7.68087 21.5548 7.06878 20.5293 6.66231C20.482 6.64439 20.4415 6.61214 20.4134 6.57007C20.3853 6.528 20.371 6.47821 20.3726 6.42764H25.2995V6.38818Z" fill="url(#paint5_linear)"/>
<path d="M25.3008 1.42178V6.3882H20.3344C20.3276 6.33672 20.3397 6.28452 20.3686 6.24134C20.3974 6.19816 20.441 6.16695 20.4912 6.15353C21.5166 5.74706 22.4481 5.13497 23.2281 4.35495C24.0081 3.57494 24.6202 2.64351 25.0267 1.61803C25.0397 1.55704 25.075 1.50311 25.1257 1.46681C25.1764 1.43051 25.2388 1.41445 25.3008 1.42178Z" fill="url(#paint6_linear)"/>
<path d="M30.2278 6.38819H25.2614V1.42177C25.3128 1.41496 25.365 1.42712 25.4082 1.45597C25.4514 1.48482 25.4826 1.52839 25.496 1.57856C25.9025 2.60404 26.5146 3.53547 27.2946 4.31548C28.0746 5.0955 29.006 5.70759 30.0315 6.11407C30.0925 6.12709 30.1464 6.16241 30.1827 6.21312C30.219 6.26383 30.2351 6.32626 30.2278 6.38819Z" fill="url(#paint7_linear)"/>
<path d="M10.4023 3.65112C10.4091 3.70261 10.3969 3.75481 10.3681 3.79798C10.3392 3.84116 10.2957 3.87237 10.2455 3.88579C9.22002 4.29227 8.28859 4.90436 7.50858 5.68437C6.72857 6.46438 6.11648 7.39581 5.71001 8.4213C5.69208 8.46861 5.65983 8.50915 5.61776 8.53726C5.57569 8.56537 5.52591 8.57964 5.47534 8.57809V3.65112H10.4023Z" fill="url(#paint8_linear)"/>
<path d="M5.47519 3.65112V8.61755C5.42374 8.62413 5.37163 8.61188 5.3285 8.58306C5.28538 8.55425 5.25412 8.51081 5.24051 8.46076C4.83403 7.43527 4.22195 6.50384 3.44193 5.72383C2.66192 4.94381 1.73049 4.33172 0.705002 3.92525C0.657688 3.90733 0.617147 3.87508 0.58904 3.83301C0.560932 3.79094 0.546659 3.74115 0.54821 3.69058H5.47519V3.65112Z" fill="url(#paint9_linear)"/>
<path d="M5.47547 -1.31532V3.6511H0.509061C0.502482 3.59965 0.514722 3.54756 0.543538 3.50443C0.572354 3.4613 0.615802 3.43005 0.665853 3.41644C1.69144 3.00984 2.62292 2.39759 3.40294 1.6174C4.18296 0.837197 4.795 -0.0944308 5.20136 -1.12011C5.2146 -1.1809 5.25002 -1.23458 5.3007 -1.27067C5.35138 -1.30677 5.41369 -1.32268 5.47547 -1.31532Z" fill="url(#paint10_linear)"/>
<path d="M10.4023 3.65108H5.43591V-1.31534C5.48736 -1.32192 5.53945 -1.30967 5.58258 -1.28086C5.62571 -1.25204 5.65696 -1.2086 5.67058 -1.15855C6.07705 -0.133065 6.68915 0.798362 7.46917 1.57838C8.24918 2.35839 9.18061 2.97048 10.2061 3.37696C10.2671 3.38998 10.321 3.42531 10.3573 3.47601C10.3936 3.52672 10.4097 3.58915 10.4023 3.65108Z" fill="url(#paint11_linear)"/>
</g>
<defs>
<linearGradient id="paint0_linear" x1="14.3836" y1="18.2174" x2="22.31" y2="22.2601" gradientUnits="userSpaceOnUse">
<stop stop-color="#F1E2B8"/>
<stop offset="1" stop-color="#DBB64D"/>
</linearGradient>
<linearGradient id="paint1_linear" x1="8.42539" y1="22.2595" x2="16.351" y2="18.2172" gradientUnits="userSpaceOnUse">
<stop stop-color="#F1E2B8"/>
<stop offset="1" stop-color="#DBB64D"/>
</linearGradient>
<linearGradient id="paint2_linear" x1="8.42539" y1="10.3258" x2="16.3382" y2="14.3872" gradientUnits="userSpaceOnUse">
<stop stop-color="#F1E2B8"/>
<stop offset="1" stop-color="#DBB64D"/>
</linearGradient>
<linearGradient id="paint3_linear" x1="14.3846" y1="14.3623" x2="22.2974" y2="10.3009" gradientUnits="userSpaceOnUse">
<stop stop-color="#F1E2B8"/>
<stop offset="1" stop-color="#DBB64D"/>
</linearGradient>
<linearGradient id="paint4_linear" x1="24.792" y1="7.34404" x2="28.7591" y2="9.36526" gradientUnits="userSpaceOnUse">
<stop stop-color="#F1E2B8"/>
<stop offset="1" stop-color="#DBB64D"/>
</linearGradient>
<linearGradient id="paint5_linear" x1="21.8161" y1="9.36411" x2="25.7908" y2="7.36866" gradientUnits="userSpaceOnUse">
<stop stop-color="#F1E2B8"/>
<stop offset="1" stop-color="#DBB64D"/>
</linearGradient>
<linearGradient id="paint6_linear" x1="21.8131" y1="3.3924" x2="25.7777" y2="5.41451" gradientUnits="userSpaceOnUse">
<stop stop-color="#F1E2B8"/>
<stop offset="1" stop-color="#DBB64D"/>
</linearGradient>
<linearGradient id="paint7_linear" x1="24.7943" y1="5.41441" x2="28.759" y2="3.39239" gradientUnits="userSpaceOnUse">
<stop stop-color="#F1E2B8"/>
<stop offset="1" stop-color="#DBB64D"/>
</linearGradient>
<linearGradient id="paint8_linear" x1="4.96767" y1="4.60698" x2="8.92986" y2="6.6282" gradientUnits="userSpaceOnUse">
<stop stop-color="#F1E2B8"/>
<stop offset="1" stop-color="#DBB64D"/>
</linearGradient>
<linearGradient id="paint9_linear" x1="1.98681" y1="6.62705" x2="5.96148" y2="4.63653" gradientUnits="userSpaceOnUse">
<stop stop-color="#F1E2B8"/>
<stop offset="1" stop-color="#DBB64D"/>
</linearGradient>
<linearGradient id="paint10_linear" x1="1.98783" y1="0.655291" x2="5.95243" y2="2.67732" gradientUnits="userSpaceOnUse">
<stop stop-color="#F1E2B8"/>
<stop offset="1" stop-color="#DBB64D"/>
</linearGradient>
<linearGradient id="paint11_linear" x1="4.96891" y1="2.67732" x2="8.9335" y2="0.65528" gradientUnits="userSpaceOnUse">
<stop stop-color="#F1E2B8"/>
<stop offset="1" stop-color="#DBB64D"/>
</linearGradient>
<clipPath id="clip0">
<rect width="41.0148" height="44.4444" fill="white" transform="translate(0.045166 0.0736084)"/>
</clipPath>
</defs>
</svg>
