<svg width="60" height="51" viewBox="0 0 60 51" fill="none" xmlns="http://www.w3.org/2000/svg">
<g clip-path="url(#clip0)">
<path fill-rule="evenodd" clip-rule="evenodd" d="M10.237 14.3555C6.84911 16.3116 5.68826 20.6435 7.64416 24.0313C9.60006 27.419 13.9321 28.5796 17.32 26.6236C20.708 24.6676 21.8688 20.3356 19.9129 16.9479C17.957 13.5602 13.625 12.3995 10.237 14.3555ZM6.98724 24.4105C4.82185 20.66 6.10705 15.8641 9.85777 13.6986C13.6085 11.5331 18.4044 12.8181 20.5698 16.5686C22.7352 20.3192 21.45 25.1151 17.6993 27.2805C13.9486 29.446 9.15263 28.1611 6.98724 24.4105Z" fill="white"/>
<path fill-rule="evenodd" clip-rule="evenodd" d="M26.6598 4.87366C23.2718 6.82969 22.111 11.1617 24.0669 14.5494C26.0228 17.9371 30.3548 19.0978 33.7428 17.1418C37.1307 15.1857 38.2915 10.8537 36.3356 7.46602C34.3797 4.0783 30.0477 2.91764 26.6598 4.87366ZM23.41 14.9287C21.2446 11.1781 22.5298 6.38221 26.2805 4.21674C30.0312 2.05126 34.8272 3.33618 36.9926 7.08675C39.158 10.8373 37.8727 15.6332 34.122 17.7987C30.3713 19.9642 25.5754 18.6792 23.41 14.9287Z" fill="white"/>
<path fill-rule="evenodd" clip-rule="evenodd" d="M10.3682 18.808C10.7008 18.1334 11.226 17.5727 11.8773 17.1966L12.2566 17.8536C11.7352 18.1546 11.3148 18.6035 11.0485 19.1435C10.7822 19.6834 10.682 20.2902 10.7606 20.8871C10.8392 21.4841 11.093 22.0443 11.49 22.4969C11.887 22.9496 12.4092 23.2743 12.9908 23.4302C13.5723 23.586 14.187 23.5659 14.7571 23.3723C15.3272 23.1788 15.8272 22.8206 16.1937 22.3429C16.5602 21.8653 16.7768 21.2897 16.8162 20.6889C16.8556 20.0881 16.7159 19.4892 16.4149 18.9678L17.0718 18.5885C17.4479 19.2398 17.6223 19.988 17.5731 20.7385C17.5239 21.489 17.2533 22.208 16.7955 22.8047C16.3376 23.4014 15.7131 23.8489 15.001 24.0906C14.2888 24.3324 13.5209 24.3575 12.7945 24.1629C12.068 23.9682 11.4156 23.5625 10.9197 22.9971C10.4238 22.4316 10.1067 21.7318 10.0086 20.9862C9.91039 20.2405 10.0355 19.4825 10.3682 18.808Z" fill="white"/>
<path fill-rule="evenodd" clip-rule="evenodd" d="M26.7908 9.32603C27.1235 8.6515 27.6487 8.09076 28.3 7.71471L28.6793 8.37164C28.1579 8.67267 27.7375 9.12155 27.4712 9.66153C27.2049 10.2015 27.1047 10.8083 27.1833 11.4052C27.2619 12.0021 27.5157 12.5623 27.9127 13.015C28.3096 13.4676 28.8319 13.7924 29.4135 13.9482C29.995 14.1041 30.6097 14.0839 31.1798 13.8904C31.7499 13.6969 32.2498 13.3386 32.6163 12.861C32.9829 12.3834 33.1995 11.8077 33.2389 11.207C33.2783 10.6062 33.1386 10.0072 32.8376 9.48585L33.4945 9.10657C33.8705 9.7579 34.045 10.5061 33.9958 11.2566C33.9466 12.0071 33.676 12.7261 33.2181 13.3228C32.7603 13.9194 32.1358 14.367 31.4236 14.6087C30.7115 14.8505 29.9436 14.8756 29.2171 14.6809C28.4907 14.4863 27.8382 14.0806 27.3424 13.5151C26.8465 12.9497 26.5294 12.2499 26.4312 11.5042C26.3331 10.7586 26.4582 10.0006 26.7908 9.32603Z" fill="white"/>
<path fill-rule="evenodd" clip-rule="evenodd" d="M23.8955 15.0866L20.4309 17.0869L20.0516 16.43L23.5163 14.4297L23.8955 15.0866Z" fill="white"/>
<path fill-rule="evenodd" clip-rule="evenodd" d="M15.4568 31.4753L39.5752 17.5506L39.7648 17.879L39.58 17.5478C40.0723 17.2731 40.6533 17.2042 41.1962 17.3561C41.7387 17.5078 42.1993 17.8677 42.4777 18.3573L50.5768 32.3853C50.8545 32.8793 50.9279 33.4624 50.7812 34.0098C50.6345 34.5572 50.2794 35.0255 49.7919 35.3144L49.7882 35.3166L25.6992 49.2243C25.2052 49.5021 24.6221 49.5755 24.0747 49.4288C23.5273 49.2821 23.059 48.927 22.7701 48.4395L22.7679 48.4357L14.6682 34.4066C14.3905 33.9126 14.3171 33.3295 14.4638 32.7821C14.6104 32.2347 14.9655 31.7664 15.4531 31.4775L15.4568 31.4753ZM39.9519 18.209L15.8381 32.1311C15.5219 32.3191 15.2917 32.6231 15.1965 32.9784C15.1013 33.3338 15.1486 33.7122 15.3284 34.0331L23.4237 48.0545C23.6117 48.3706 23.9157 48.6009 24.271 48.6961C24.6264 48.7913 25.0048 48.7439 25.3256 48.5641L49.4069 34.6608C49.7231 34.4728 49.9533 34.1688 50.0485 33.8134C50.1437 33.4581 50.0963 33.0797 49.9165 32.7588L41.8201 18.7354L41.8188 18.7331C41.6393 18.4169 41.342 18.1845 40.9919 18.0866C40.6426 17.9889 40.2689 18.0329 39.9519 18.209Z" fill="white"/>
<path fill-rule="evenodd" clip-rule="evenodd" d="M9.29417 35.0335L10.227 34.4949L10.4166 34.8234L10.2293 34.4936C10.5992 34.2835 11.0369 34.2274 11.4478 34.3375C11.8587 34.4476 12.2097 34.715 12.425 35.0819L12.4264 35.0842L14.178 38.1182C14.3881 38.4881 14.4442 38.9258 14.3341 39.3367C14.224 39.7476 13.9566 40.0987 13.5897 40.3139L13.5874 40.3153L12.6523 40.8552C12.2823 41.0653 11.8445 41.1214 11.4335 41.0112C11.0226 40.901 10.6715 40.6334 10.4563 40.2664L10.455 40.2642L8.70353 37.2305C8.49343 36.8606 8.43737 36.4229 8.54747 36.012C8.65757 35.6011 8.92498 35.2501 9.29187 35.0348L9.29417 35.0335ZM10.605 35.1526L9.67471 35.6897C9.48028 35.8041 9.33858 35.9904 9.28017 36.2084C9.22177 36.4263 9.25135 36.6585 9.36251 36.8548L11.1113 39.8837C11.2257 40.0783 11.412 40.22 11.63 40.2785C11.848 40.3369 12.0802 40.3074 12.2766 40.1962L13.2068 39.6591C13.4013 39.5446 13.543 39.3584 13.6014 39.1404C13.6598 38.9224 13.6302 38.6903 13.5191 38.4939L11.7701 35.4648C11.6557 35.2703 11.4694 35.1286 11.2515 35.0702C11.0335 35.0118 10.8014 35.0414 10.605 35.1526Z" fill="white"/>
<path fill-rule="evenodd" clip-rule="evenodd" d="M47.2958 18.6899L48.2286 18.1513L48.4182 18.4797L48.2294 18.1508C48.6006 17.9377 49.04 17.877 49.4551 17.9814C49.8702 18.0859 50.2285 18.3473 50.4547 18.7107L50.458 18.716L54.2707 25.3199C54.4809 25.6898 54.5369 26.1275 54.4268 26.5384C54.3167 26.9493 54.0493 27.3004 53.6824 27.5156L53.6801 27.517L52.7118 28.076C52.3419 28.2861 51.9042 28.3422 51.4933 28.2321C51.0824 28.122 50.7314 27.8546 50.5161 27.4877L50.5148 27.4854L46.7051 20.8869C46.495 20.517 46.4389 20.0793 46.549 19.6684C46.6591 19.2575 46.9266 18.9065 47.2935 18.6912L47.2958 18.6899ZM48.6074 18.8085L47.6763 19.3461C47.4819 19.4605 47.3402 19.6468 47.2818 19.8647C47.2234 20.0827 47.2529 20.3148 47.3641 20.5112L51.171 27.1049C51.2854 27.2993 51.4717 27.441 51.6896 27.4994C51.9076 27.5578 52.1397 27.5282 52.3361 27.4171L53.2996 26.8608C53.494 26.7463 53.6357 26.5601 53.6941 26.3421C53.7525 26.1241 53.7229 25.892 53.6118 25.6957L49.8076 19.1066C49.6851 18.9126 49.4926 18.7731 49.27 18.717C49.0456 18.6606 48.8081 18.6934 48.6074 18.8085Z" fill="white"/>
<path fill-rule="evenodd" clip-rule="evenodd" d="M18.8157 29.9736L17.2001 27.1754L17.8571 26.7961L19.4726 29.5943L18.8157 29.9736Z" fill="white"/>
<path fill-rule="evenodd" clip-rule="evenodd" d="M35.2387 20.4917L33.6232 17.6935L34.2801 17.3143L35.8956 20.1124L35.2387 20.4917Z" fill="white"/>
<path fill-rule="evenodd" clip-rule="evenodd" d="M25.2311 43.8653L48.883 30.2098L49.2623 30.8668L25.6104 44.5222L25.2311 43.8653Z" fill="white"/>
<path fill-rule="evenodd" clip-rule="evenodd" d="M12.1201 35.3118L14.7853 33.773L15.1645 34.43L12.4994 35.9687L12.1201 35.3118Z" fill="white"/>
<path fill-rule="evenodd" clip-rule="evenodd" d="M13.7547 38.1431L16.4198 36.6044L16.7991 37.2613L14.134 38.8001L13.7547 38.1431Z" fill="white"/>
<path fill-rule="evenodd" clip-rule="evenodd" d="M44.3251 22.3149L47.0566 20.7379L47.4359 21.3948L44.7044 22.9719L44.3251 22.3149Z" fill="white"/>
<path fill-rule="evenodd" clip-rule="evenodd" d="M47.6907 28.1445L50.4222 26.5674L50.8014 27.2244L48.0699 28.8014L47.6907 28.1445Z" fill="white"/>
<path d="M31.4541 25.5641C31.5088 25.658 31.5334 25.7666 31.5245 25.875C31.5155 25.9833 31.4735 26.0864 31.4041 26.1701C30.0565 27.8717 29.0715 29.8311 28.5097 31.9277C27.9479 34.0243 27.8213 36.2137 28.1376 38.361C28.1558 38.4683 28.1407 38.5785 28.0942 38.6768C28.0478 38.7752 27.9722 38.8569 27.8778 38.9109L22.9926 30.4493L31.4541 25.5641Z" fill="url(#paint0_linear)"/>
<path d="M22.993 30.4493L27.8783 38.9109C27.7843 38.9656 27.6758 38.9902 27.5674 38.9812C27.459 38.9723 27.356 38.9303 27.2722 38.8609C25.5707 37.5133 23.6113 36.5283 21.5147 35.9665C19.4181 35.4047 17.2287 35.2781 15.0813 35.5944C14.9741 35.6126 14.8639 35.5974 14.7655 35.551C14.6672 35.5045 14.5855 35.429 14.5315 35.3346L22.993 30.4493Z" fill="url(#paint1_linear)"/>
<path d="M18.1072 21.988L22.9924 30.4495L14.5644 35.3155C14.5097 35.2215 14.4851 35.113 14.494 35.0046C14.503 34.8962 14.545 34.7932 14.6144 34.7094C15.9619 33.0079 16.9469 31.0485 17.5086 28.9519C18.0703 26.8554 18.1969 24.666 17.8806 22.5187C17.8563 22.4176 17.8652 22.3114 17.906 22.2159C17.9469 22.1203 18.0174 22.0404 18.1072 21.988Z" fill="url(#paint2_linear)"/>
<path d="M31.4548 25.5641L22.9932 30.4493L18.108 21.9878C18.2019 21.9331 18.3105 21.9085 18.4189 21.9174C18.5272 21.9264 18.6303 21.9683 18.714 22.0377C20.4156 23.3853 22.3749 24.3702 24.4715 24.932C26.5681 25.4937 28.7574 25.6203 30.9048 25.304C31.0123 25.2802 31.1247 25.2928 31.2243 25.3399C31.3238 25.387 31.4049 25.4658 31.4548 25.5641Z" fill="url(#paint3_linear)"/>
<path d="M30.7995 14.6602C30.8306 14.7007 30.8459 14.7511 30.8426 14.8021C30.8393 14.853 30.8176 14.901 30.7816 14.9372C30.1054 15.7971 29.6107 16.7854 29.3277 17.8421C29.0446 18.8988 28.9789 20.002 29.1347 21.0848C29.1426 21.1339 29.135 21.1843 29.1129 21.2289C29.0909 21.2735 29.0555 21.3101 29.0116 21.3337L26.5689 17.1027L30.7995 14.6602Z" fill="url(#paint4_linear)"/>
<path d="M26.5691 17.1027L29.0116 21.3333C28.9711 21.3643 28.9207 21.3795 28.8699 21.3762C28.819 21.3729 28.771 21.3512 28.7349 21.3153C27.8841 20.6416 26.9044 20.1491 25.8562 19.8683C24.8079 19.5875 23.7133 19.5242 22.6396 19.6823C22.5904 19.6903 22.54 19.6826 22.4954 19.6605C22.4507 19.6384 22.4141 19.6029 22.3906 19.559L26.588 17.1356L26.5691 17.1027Z" fill="url(#paint5_linear)"/>
<path d="M24.1457 12.9053L26.5691 17.1027L22.3385 19.5452C22.3074 19.5047 22.2921 19.4543 22.2954 19.4034C22.2987 19.3524 22.3203 19.3044 22.3563 19.2682C23.03 18.4175 23.5225 17.4379 23.8034 16.3897C24.0842 15.3415 24.1476 14.2469 23.9895 13.1733C23.9875 13.1184 24.0012 13.0641 24.0288 13.0167C24.0565 12.9692 24.097 12.9306 24.1457 12.9053Z" fill="url(#paint6_linear)"/>
<path d="M30.7992 14.6602L26.5686 17.1027L24.1452 12.9053C24.1858 12.8742 24.2362 12.8589 24.2871 12.8622C24.3381 12.8655 24.3861 12.8872 24.4223 12.9232C25.273 13.5969 26.2526 14.0893 27.3008 14.3702C28.349 14.6511 29.4436 14.7144 30.5172 14.5563C30.5692 14.5455 30.6232 14.5495 30.6731 14.5679C30.7229 14.5863 30.7666 14.6182 30.7992 14.6602Z" fill="url(#paint7_linear)"/>
<path d="M12.5636 22.0794C12.5947 22.1199 12.61 22.1703 12.6067 22.2213C12.6034 22.2722 12.5818 22.3203 12.5458 22.3564C11.8721 23.2072 11.3796 24.1868 11.0987 25.235C10.8179 26.2832 10.7545 27.3778 10.9126 28.4514C10.9205 28.5005 10.9129 28.5509 10.8909 28.5955C10.8688 28.6401 10.8334 28.6767 10.7896 28.7002L8.36621 24.5028L12.5636 22.0794Z" fill="url(#paint8_linear)"/>
<path d="M8.33322 24.5221L10.7758 28.7527C10.7352 28.7838 10.6848 28.7991 10.6339 28.7958C10.583 28.7925 10.5349 28.7709 10.4987 28.7349C9.63724 28.0695 8.65096 27.5838 7.59832 27.3065C6.54568 27.0293 5.44811 26.9662 4.37062 27.1209C4.31504 27.1275 4.25882 27.1158 4.21046 27.0876C4.16211 27.0595 4.12425 27.0163 4.10262 26.9647L8.33322 24.5221Z" fill="url(#paint9_linear)"/>
<path d="M5.90952 20.3248L8.3329 24.5222L4.1023 26.9647C4.07124 26.9242 4.05594 26.8738 4.05922 26.8229C4.06251 26.7719 4.08416 26.7239 4.12017 26.6877C4.79388 25.837 5.28633 24.8574 5.56719 23.8092C5.84806 22.761 5.91139 21.6664 5.7533 20.5928C5.74668 20.5372 5.75835 20.481 5.78653 20.4326C5.81472 20.3843 5.85789 20.3464 5.90952 20.3248Z" fill="url(#paint10_linear)"/>
<path d="M12.5635 22.0796L8.33285 24.5222L5.90947 20.3247C5.94998 20.2937 6.00039 20.2784 6.05133 20.2817C6.10228 20.2849 6.1503 20.3066 6.18649 20.3426C7.03721 21.0163 8.01683 21.5088 9.06503 21.7896C10.1132 22.0705 11.2078 22.1338 12.2814 21.9757C12.3335 21.9649 12.3875 21.969 12.4373 21.9873C12.4872 22.0057 12.5309 22.0377 12.5635 22.0796Z" fill="url(#paint11_linear)"/>
</g>
<defs>
<linearGradient id="paint0_linear" x1="23.1111" y1="32.5696" x2="31.8468" y2="32.1066" gradientUnits="userSpaceOnUse">
<stop stop-color="#F1E2B8"/>
<stop offset="1" stop-color="#DBB64D"/>
</linearGradient>
<linearGradient id="paint1_linear" x1="20.018" y1="38.9362" x2="24.7869" y2="31.6023" gradientUnits="userSpaceOnUse">
<stop stop-color="#F1E2B8"/>
<stop offset="1" stop-color="#DBB64D"/>
</linearGradient>
<linearGradient id="paint2_linear" x1="14.1435" y1="28.7667" x2="22.8895" y2="28.2801" gradientUnits="userSpaceOnUse">
<stop stop-color="#F1E2B8"/>
<stop offset="1" stop-color="#DBB64D"/>
</linearGradient>
<linearGradient id="paint3_linear" x1="21.2113" y1="29.2781" x2="25.9754" y2="21.9353" gradientUnits="userSpaceOnUse">
<stop stop-color="#F1E2B8"/>
<stop offset="1" stop-color="#DBB64D"/>
</linearGradient>
<linearGradient id="paint4_linear" x1="26.6269" y1="18.1806" x2="30.996" y2="17.9495" gradientUnits="userSpaceOnUse">
<stop stop-color="#F1E2B8"/>
<stop offset="1" stop-color="#DBB64D"/>
</linearGradient>
<linearGradient id="paint5_linear" x1="25.079" y1="21.3657" x2="27.4901" y2="17.7124" gradientUnits="userSpaceOnUse">
<stop stop-color="#F1E2B8"/>
<stop offset="1" stop-color="#DBB64D"/>
</linearGradient>
<linearGradient id="paint6_linear" x1="22.1452" y1="16.2819" x2="26.515" y2="16.0779" gradientUnits="userSpaceOnUse">
<stop stop-color="#F1E2B8"/>
<stop offset="1" stop-color="#DBB64D"/>
</linearGradient>
<linearGradient id="paint7_linear" x1="25.6753" y1="16.5324" x2="28.0373" y2="12.8515" gradientUnits="userSpaceOnUse">
<stop stop-color="#F1E2B8"/>
<stop offset="1" stop-color="#DBB64D"/>
</linearGradient>
<linearGradient id="paint8_linear" x1="8.38416" y1="25.6006" x2="12.758" y2="25.3713" gradientUnits="userSpaceOnUse">
<stop stop-color="#F1E2B8"/>
<stop offset="1" stop-color="#DBB64D"/>
</linearGradient>
<linearGradient id="paint9_linear" x1="6.83971" y1="28.7871" x2="9.22496" y2="25.1187" gradientUnits="userSpaceOnUse">
<stop stop-color="#F1E2B8"/>
<stop offset="1" stop-color="#DBB64D"/>
</linearGradient>
<linearGradient id="paint10_linear" x1="3.90424" y1="23.7029" x2="8.27678" y2="23.5025" gradientUnits="userSpaceOnUse">
<stop stop-color="#F1E2B8"/>
<stop offset="1" stop-color="#DBB64D"/>
</linearGradient>
<linearGradient id="paint11_linear" x1="7.43767" y1="23.9585" x2="9.79726" y2="20.2733" gradientUnits="userSpaceOnUse">
<stop stop-color="#F1E2B8"/>
<stop offset="1" stop-color="#DBB64D"/>
</linearGradient>
<clipPath id="clip0">
<rect width="59" height="50" fill="white" transform="translate(0.265869 0.295776)"/>
</clipPath>
</defs>
</svg>
