<svg width="49" height="51" viewBox="0 0 49 51" fill="none" xmlns="http://www.w3.org/2000/svg">
<g clip-path="url(#clip0)">
<path fill-rule="evenodd" clip-rule="evenodd" d="M45.3163 25.1888L38.1757 23.2742L38.384 22.4971L45.5265 24.4121C46.0729 24.5603 46.5384 24.9188 46.8214 25.4091C47.1044 25.8995 47.1819 26.4819 47.0369 27.0292L47.0366 27.0303L41.733 46.8113L41.7327 46.8125C41.5844 47.3589 41.226 47.8244 40.7357 48.1074C40.2453 48.3904 39.6629 48.4679 39.1156 48.3229L39.1145 48.3226L31.74 46.3454L31.9484 45.5682L39.3217 47.5451C39.3218 47.5452 39.322 47.5452 39.3222 47.5453C39.6638 47.6356 40.0274 47.5872 40.3335 47.4106C40.6395 47.2339 40.8633 46.9434 40.956 46.6023L46.2593 26.8226C46.3496 26.4809 46.3012 26.1174 46.1246 25.8113C45.9479 25.5052 45.6574 25.2815 45.3163 25.1888Z" fill="white"/>
<path fill-rule="evenodd" clip-rule="evenodd" d="M10.0218 14.8927L23.8684 18.6052L23.6601 19.3823L9.81407 15.67C9.47243 15.5797 9.10891 15.6281 8.80283 15.8047C8.49674 15.9814 8.27295 16.2719 8.18026 16.613L2.87699 36.3927C2.78664 36.7344 2.83507 37.0979 3.01173 37.404C3.18838 37.71 3.47892 37.9338 3.81993 38.0265C3.82011 38.0266 3.82029 38.0266 3.82048 38.0267L17.5653 41.7119L17.3569 42.489L3.61094 38.8035L3.60978 38.8032C3.06338 38.6549 2.59785 38.2965 2.31486 37.8062C2.03186 37.3158 1.95438 36.7334 2.09936 36.1861L2.09967 36.185L7.40359 16.4028C7.55184 15.8564 7.91029 15.3909 8.40063 15.1079C8.89097 14.8249 9.47338 14.7474 10.0207 14.8924L10.0218 14.8927Z" fill="white"/>
<path fill-rule="evenodd" clip-rule="evenodd" d="M27.9987 12.3095L27.9998 12.3098L37.9585 14.9799C38.354 15.0871 38.6992 15.33 38.9336 15.666C39.168 16.0021 39.2766 16.41 39.2405 16.8181L39.2397 16.8276L38.4216 22.8353L37.6243 22.7267L38.4398 16.7386C38.457 16.5215 38.3983 16.3051 38.2736 16.1263C38.1474 15.9453 37.9615 15.8145 37.7486 15.7566L27.792 13.0871C27.5786 13.0306 27.3522 13.051 27.1524 13.1445C26.9525 13.2381 26.792 13.3989 26.6987 13.5989C26.6986 13.5991 26.6986 13.5992 26.6985 13.5994L24.1292 19.1624L23.3988 18.8251L25.969 13.2598C26.142 12.8884 26.4401 12.5896 26.8112 12.4158C27.1823 12.2421 27.6027 12.2045 27.9987 12.3095Z" fill="white"/>
<path fill-rule="evenodd" clip-rule="evenodd" d="M31.3342 19.1758C23.994 17.2078 16.4482 21.5627 14.4802 28.9029C12.5122 36.2431 16.8672 43.7889 24.2074 45.7569C31.5476 47.7249 39.0934 43.3699 41.0614 36.0298C43.0294 28.6896 38.6744 21.1438 31.3342 19.1758ZM13.7031 28.6946C15.7862 20.9252 23.7732 16.3155 31.5426 18.3986C39.312 20.4817 43.9216 28.4687 41.8385 36.2381C39.7554 44.0075 31.7684 48.6172 23.999 46.5341C16.2296 44.451 11.62 36.464 13.7031 28.6946Z" fill="white"/>
<path fill-rule="evenodd" clip-rule="evenodd" d="M30.3723 22.7635C25.0134 21.3267 19.5044 24.5062 18.0675 29.8651C16.6307 35.2241 19.8102 40.7331 25.1692 42.1699C30.5281 43.6067 36.0372 40.4272 37.474 35.0683C38.9108 29.7094 35.7313 24.2003 30.3723 22.7635ZM17.2904 29.6568C18.8423 23.8686 24.7926 20.4345 30.5807 21.9863C36.3689 23.5382 39.803 29.4885 38.2511 35.2767C36.6992 41.0648 30.749 44.499 24.9608 42.9471C19.1727 41.3952 15.7385 35.4449 17.2904 29.6568Z" fill="white"/>
<path fill-rule="evenodd" clip-rule="evenodd" d="M35.2292 32.6319C35.231 32.162 35.1958 31.6926 35.1241 31.2281L35.9193 31.1053C35.9974 31.6114 36.0357 32.1228 36.0338 32.6349L35.2292 32.6319Z" fill="white"/>
<path fill-rule="evenodd" clip-rule="evenodd" d="M33.7095 37.009C34.3044 36.2332 34.7403 35.3476 34.9925 34.4031L35.7699 34.6106C35.4904 35.6574 35.0073 36.6388 34.3481 37.4986C33.6888 38.3583 32.8665 39.0797 31.9281 39.6212C30.9898 40.1628 29.9538 40.514 28.8796 40.6547C27.8053 40.7953 26.7139 40.7227 25.6677 40.441L25.8769 39.6641C26.8209 39.9183 27.8058 39.9838 28.7751 39.8569C29.7444 39.7299 30.6792 39.4131 31.526 38.9244C32.3727 38.4357 33.1147 37.7848 33.7095 37.009Z" fill="white"/>
<path fill-rule="evenodd" clip-rule="evenodd" d="M6.07059 35.8482L10.673 18.6823L11.4502 18.8907L6.84775 36.0565L6.07059 35.8482Z" fill="white"/>
<path fill-rule="evenodd" clip-rule="evenodd" d="M13.7307 13.6588L16.247 14.3335C16.6242 14.4366 16.9455 14.6844 17.1409 15.0231C17.3364 15.3617 17.3902 15.7639 17.2908 16.142L17.2898 16.1458C17.1867 16.523 16.9389 16.8442 16.6002 17.0397C16.2616 17.2351 15.8594 17.289 15.4813 17.1895L15.5836 16.8005L15.4794 17.189L12.963 16.5144C12.5858 16.4113 12.2646 16.1635 12.0691 15.8248C11.8737 15.4861 11.8198 15.084 11.9193 14.7058L11.9202 14.7021C12.0233 14.3249 12.2712 14.0037 12.6098 13.8082C12.9485 13.6127 13.3506 13.5589 13.7288 13.6583L13.7307 13.6588ZM15.6867 16.4116C15.8596 16.4568 16.0433 16.4321 16.198 16.3428C16.3525 16.2537 16.4656 16.1074 16.5131 15.9355C16.558 15.763 16.5332 15.5797 16.444 15.4253C16.3547 15.2705 16.208 15.1572 16.0357 15.1099L13.5233 14.4363C13.3505 14.391 13.1668 14.4158 13.012 14.5051C12.8576 14.5942 12.7444 14.7405 12.6969 14.9123C12.6521 15.0849 12.6769 15.2682 12.766 15.4226C12.8553 15.5774 13.002 15.6907 13.1743 15.738L15.6867 16.4116Z" fill="white"/>
<path d="M34.2363 21.0831C34.2115 21.1781 34.158 21.2632 34.0831 21.3267C34.0083 21.3903 33.9156 21.4292 33.8179 21.4383C31.8723 21.6638 29.9935 22.2852 28.2971 23.2643C26.6008 24.2433 25.1228 25.5592 23.9542 27.131C23.8975 27.2112 23.8175 27.272 23.725 27.3051C23.6325 27.3383 23.532 27.3421 23.4373 27.316L25.7206 18.7999L34.2363 21.0831Z" fill="url(#paint0_linear)"/>
<path d="M25.7206 18.7998L23.4374 27.3155C23.3423 27.2907 23.2572 27.2371 23.1937 27.1622C23.1302 27.0872 23.0913 26.9945 23.0823 26.8967C22.8568 24.9511 22.2354 23.0723 21.2563 21.376C20.2773 19.6796 18.9614 18.2016 17.3896 17.033C17.3095 16.9763 17.2488 16.8964 17.2158 16.804C17.1827 16.7116 17.1789 16.6112 17.2048 16.5166L25.7206 18.7998Z" fill="url(#paint1_linear)"/>
<path d="M27.9947 10.3171L25.7205 18.7994L17.2048 16.5162C17.2296 16.4211 17.2832 16.336 17.3581 16.2725C17.4331 16.209 17.5258 16.1701 17.6236 16.1611C19.5692 15.9356 21.448 15.3142 23.1443 14.3351C24.8407 13.3561 26.3187 12.0402 27.4872 10.4684C27.5518 10.4018 27.6324 10.353 27.7212 10.3265C27.8101 10.3 27.9043 10.2967 27.9947 10.3171Z" fill="url(#paint2_linear)"/>
<path d="M34.237 21.0827L25.7212 18.7995L27.9955 10.3172C28.0905 10.3421 28.1756 10.3956 28.2391 10.4705C28.3027 10.5455 28.3416 10.6382 28.3505 10.736C28.5761 12.6816 29.1975 14.5604 30.1765 16.2567C31.1556 17.9531 32.4715 19.4311 34.0432 20.5997C34.1232 20.6487 34.1852 20.7221 34.22 20.8091C34.2549 20.8961 34.2609 20.9921 34.237 21.0827Z" fill="url(#paint3_linear)"/>
<path d="M40.7353 13.733C40.7292 13.7786 40.7068 13.8205 40.6723 13.8509C40.6377 13.8813 40.5933 13.8982 40.5472 13.8983C39.5744 14.0111 38.6349 14.3218 37.7867 14.8113C36.9385 15.3009 36.1995 15.9589 35.6152 16.7448C35.5888 16.7812 35.5518 16.8084 35.5093 16.8227C35.4668 16.8371 35.4209 16.8379 35.3779 16.8249L36.5106 12.6003L40.7353 13.733Z" fill="url(#paint4_linear)"/>
<path d="M36.511 12.6004L35.3693 16.8584C35.3237 16.8524 35.2818 16.83 35.2514 16.7954C35.221 16.7609 35.2041 16.7165 35.204 16.6704C35.0915 15.6974 34.781 14.7577 34.2916 13.9092C33.8022 13.0607 33.1442 12.3214 32.3583 11.7369C32.3219 11.7106 32.2947 11.6736 32.2804 11.6311C32.266 11.5886 32.2652 11.5426 32.2782 11.4997L36.5024 12.6323L36.511 12.6004Z" fill="url(#paint5_linear)"/>
<path d="M37.6528 8.34288L36.5111 12.6009L32.2531 11.4593C32.2591 11.4136 32.2815 11.3717 32.3161 11.3413C32.3506 11.3109 32.3951 11.2941 32.4411 11.2939C33.4139 11.1812 34.3534 10.8705 35.2016 10.3809C36.0498 9.89139 36.7889 9.23338 37.3732 8.44743C37.3984 8.39838 37.4411 8.3605 37.4928 8.34117C37.5445 8.32184 37.6015 8.32245 37.6528 8.34288Z" fill="url(#paint6_linear)"/>
<path d="M40.7349 13.7335L36.4768 12.5918L37.6185 8.33378C37.6641 8.33981 37.706 8.36219 37.7364 8.39677C37.7668 8.43134 37.7837 8.47576 37.7838 8.5218C37.8966 9.49464 38.2073 10.4341 38.6968 11.2823C39.1864 12.1305 39.8444 12.8696 40.6303 13.4539C40.6794 13.4792 40.7173 13.5218 40.7366 13.5735C40.7559 13.6252 40.7553 13.6822 40.7349 13.7335Z" fill="url(#paint7_linear)"/>
<path d="M24.3662 6.82892C24.3602 6.87456 24.3378 6.91647 24.3033 6.94687C24.2687 6.97727 24.2243 6.99411 24.1782 6.99426C23.2054 7.10701 22.2659 7.41773 21.4177 7.90727C20.5695 8.39682 19.8304 9.05482 19.2461 9.84077C19.2198 9.8771 19.1828 9.90434 19.1403 9.91869C19.0978 9.93304 19.0519 9.9338 19.0089 9.92086L20.1416 5.69623L24.3662 6.82892Z" fill="url(#paint8_linear)"/>
<path d="M20.1415 5.69627L18.9998 9.95432C18.9542 9.94829 18.9123 9.92591 18.8819 9.89133C18.8515 9.85676 18.8346 9.81233 18.8345 9.76629C18.722 8.79326 18.4115 7.85357 17.9221 7.00509C17.4327 6.15661 16.7747 5.41733 15.9888 4.83278C15.9524 4.80645 15.9252 4.76946 15.9108 4.72695C15.8965 4.68444 15.8957 4.63851 15.9087 4.59555L20.1329 5.72814L20.1415 5.69627Z" fill="url(#paint9_linear)"/>
<path d="M21.2834 1.43798L20.1417 5.69603L15.8837 4.55438C15.8897 4.50873 15.9121 4.46683 15.9467 4.43643C15.9812 4.40602 16.0257 4.38919 16.0717 4.38904C17.0446 4.27628 17.984 3.96557 18.8322 3.47602C19.6804 2.98648 20.4195 2.32847 21.0038 1.54253C21.0291 1.49347 21.0717 1.45559 21.1234 1.43626C21.1751 1.41694 21.2321 1.41755 21.2834 1.43798Z" fill="url(#paint10_linear)"/>
<path d="M24.3663 6.82894L20.1083 5.68729L21.2499 1.42924C21.2956 1.43527 21.3375 1.45765 21.3679 1.49223C21.3983 1.5268 21.4151 1.57122 21.4153 1.61726C21.528 2.5901 21.8388 3.52956 22.3283 4.37778C22.8178 5.226 23.4759 5.96502 24.2618 6.54933C24.3108 6.57462 24.3487 6.61726 24.3681 6.66895C24.3874 6.72064 24.3868 6.77767 24.3663 6.82894Z" fill="url(#paint11_linear)"/>
</g>
<defs>
<linearGradient id="paint0_linear" x1="24.4323" y1="20.2345" x2="30.2987" y2="25.5224" gradientUnits="userSpaceOnUse">
<stop stop-color="#F1E2B8"/>
<stop offset="1" stop-color="#DBB64D"/>
</linearGradient>
<linearGradient id="paint1_linear" x1="18.3936" y1="22.3303" x2="26.1184" y2="20.6864" gradientUnits="userSpaceOnUse">
<stop stop-color="#F1E2B8"/>
<stop offset="1" stop-color="#DBB64D"/>
</linearGradient>
<linearGradient id="paint2_linear" x1="21.1371" y1="12.0971" x2="26.9878" y2="17.3985" gradientUnits="userSpaceOnUse">
<stop stop-color="#F1E2B8"/>
<stop offset="1" stop-color="#DBB64D"/>
</linearGradient>
<linearGradient id="paint3_linear" x1="25.3194" y1="16.9279" x2="33.0375" y2="15.2645" gradientUnits="userSpaceOnUse">
<stop stop-color="#F1E2B8"/>
<stop offset="1" stop-color="#DBB64D"/>
</linearGradient>
<linearGradient id="paint4_linear" x1="35.8556" y1="13.3032" x2="38.7925" y2="15.9483" gradientUnits="userSpaceOnUse">
<stop stop-color="#F1E2B8"/>
<stop offset="1" stop-color="#DBB64D"/>
</linearGradient>
<linearGradient id="paint5_linear" x1="32.8403" y1="14.3511" x2="36.7068" y2="13.554" gradientUnits="userSpaceOnUse">
<stop stop-color="#F1E2B8"/>
<stop offset="1" stop-color="#DBB64D"/>
</linearGradient>
<linearGradient id="paint6_linear" x1="34.2095" y1="9.23071" x2="37.1438" y2="11.8758" gradientUnits="userSpaceOnUse">
<stop stop-color="#F1E2B8"/>
<stop offset="1" stop-color="#DBB64D"/>
</linearGradient>
<linearGradient id="paint7_linear" x1="36.3003" y1="11.6496" x2="40.1642" y2="10.8273" gradientUnits="userSpaceOnUse">
<stop stop-color="#F1E2B8"/>
<stop offset="1" stop-color="#DBB64D"/>
</linearGradient>
<linearGradient id="paint8_linear" x1="19.4866" y1="6.39912" x2="22.4193" y2="9.0431" gradientUnits="userSpaceOnUse">
<stop stop-color="#F1E2B8"/>
<stop offset="1" stop-color="#DBB64D"/>
</linearGradient>
<linearGradient id="paint9_linear" x1="16.4665" y1="7.44589" x2="20.3319" y2="6.65297" gradientUnits="userSpaceOnUse">
<stop stop-color="#F1E2B8"/>
<stop offset="1" stop-color="#DBB64D"/>
</linearGradient>
<linearGradient id="paint10_linear" x1="17.8401" y1="2.3258" x2="20.7745" y2="4.97085" gradientUnits="userSpaceOnUse">
<stop stop-color="#F1E2B8"/>
<stop offset="1" stop-color="#DBB64D"/>
</linearGradient>
<linearGradient id="paint11_linear" x1="19.9317" y1="4.74505" x2="23.7957" y2="3.92281" gradientUnits="userSpaceOnUse">
<stop stop-color="#F1E2B8"/>
<stop offset="1" stop-color="#DBB64D"/>
</linearGradient>
<clipPath id="clip0">
<rect width="47.1698" height="50" fill="white" transform="translate(0.987549 0.295776)"/>
</clipPath>
</defs>
</svg>
