            <svg width="1366" height="15" viewBox="0 0 1366 15" fill="none" xmlns="http://www.w3.org/2000/svg">
                <line y1="-1" x2="16.778" y2="-1"
                    transform="matrix(0.632175 -0.774826 0.632175 0.774826 -0.0268555 14.8469)" stroke="#F1E2B8"
                    stroke-width="2" />
                <line y1="-1" x2="16.778" y2="-1"
                    transform="matrix(0.632175 -0.774826 0.632175 0.774826 583.025 14.8469)" stroke="#F1E2B8"
                    stroke-width="2" />
                <line y1="-1" x2="16.778" y2="-1"
                    transform="matrix(0.632175 -0.774826 0.632175 0.774826 10.5742 14.8469)" stroke="#F1E2B8"
                    stroke-width="2" />
                <line y1="-1" x2="16.778" y2="-1"
                    transform="matrix(0.632175 -0.774826 0.632175 0.774826 593.626 14.8469)" stroke="#F1E2B8"
                    stroke-width="2" />
                <line y1="-1" x2="16.778" y2="-1"
                    transform="matrix(0.632175 -0.774826 0.632175 0.774826 21.175 14.8469)" stroke="#F1E2B8"
                    stroke-width="2" />
                <line y1="-1" x2="16.778" y2="-1"
                    transform="matrix(0.632175 -0.774826 0.632175 0.774826 604.228 14.8469)" stroke="#F1E2B8"
                    stroke-width="2" />
                <line y1="-1" x2="16.778" y2="-1"
                    transform="matrix(0.632175 -0.774826 0.632175 0.774826 31.7759 14.8469)" stroke="#F1E2B8"
                    stroke-width="2" />
                <line y1="-1" x2="16.778" y2="-1"
                    transform="matrix(0.632175 -0.774826 0.632175 0.774826 614.828 14.8469)" stroke="#F1E2B8"
                    stroke-width="2" />
                <line y1="-1" x2="16.778" y2="-1"
                    transform="matrix(0.632175 -0.774826 0.632175 0.774826 42.377 14.8469)" stroke="#F1E2B8"
                    stroke-width="2" />
                <line y1="-1" x2="16.778" y2="-1"
                    transform="matrix(0.632175 -0.774826 0.632175 0.774826 625.429 14.8469)" stroke="#F1E2B8"
                    stroke-width="2" />
                <line y1="-1" x2="16.778" y2="-1"
                    transform="matrix(0.632175 -0.774826 0.632175 0.774826 52.978 14.8469)" stroke="#F1E2B8"
                    stroke-width="2" />
                <line y1="-1" x2="16.778" y2="-1"
                    transform="matrix(0.632175 -0.774826 0.632175 0.774826 636.03 14.8469)" stroke="#F1E2B8"
                    stroke-width="2" />
                <line y1="-1" x2="16.778" y2="-1"
                    transform="matrix(0.632175 -0.774826 0.632175 0.774826 63.5789 14.8469)" stroke="#F1E2B8"
                    stroke-width="2" />
                <line y1="-1" x2="16.778" y2="-1"
                    transform="matrix(0.632175 -0.774826 0.632175 0.774826 646.631 14.8469)" stroke="#F1E2B8"
                    stroke-width="2" />
                <line y1="-1" x2="16.778" y2="-1"
                    transform="matrix(0.632175 -0.774826 0.632175 0.774826 74.1797 14.8469)" stroke="#F1E2B8"
                    stroke-width="2" />
                <line y1="-1" x2="16.778" y2="-1"
                    transform="matrix(0.632175 -0.774826 0.632175 0.774826 657.232 14.8469)" stroke="#F1E2B8"
                    stroke-width="2" />
                <line y1="-1" x2="16.778" y2="-1"
                    transform="matrix(0.632175 -0.774826 0.632175 0.774826 84.7808 14.8469)" stroke="#F1E2B8"
                    stroke-width="2" />
                <line y1="-1" x2="16.778" y2="-1"
                    transform="matrix(0.632175 -0.774826 0.632175 0.774826 667.833 14.8469)" stroke="#F1E2B8"
                    stroke-width="2" />
                <line y1="-1" x2="16.778" y2="-1"
                    transform="matrix(0.632175 -0.774826 0.632175 0.774826 95.3818 14.8469)" stroke="#F1E2B8"
                    stroke-width="2" />
                <line y1="-1" x2="16.778" y2="-1"
                    transform="matrix(0.632175 -0.774826 0.632175 0.774826 678.434 14.8469)" stroke="#F1E2B8"
                    stroke-width="2" />
                <line y1="-1" x2="16.778" y2="-1"
                    transform="matrix(0.632175 -0.774826 0.632175 0.774826 105.983 14.8469)" stroke="#F1E2B8"
                    stroke-width="2" />
                <line y1="-1" x2="16.778" y2="-1"
                    transform="matrix(0.632175 -0.774826 0.632175 0.774826 689.035 14.8469)" stroke="#F1E2B8"
                    stroke-width="2" />
                <line y1="-1" x2="16.778" y2="-1"
                    transform="matrix(0.632175 -0.774826 0.632175 0.774826 116.583 14.8469)" stroke="#F1E2B8"
                    stroke-width="2" />
                <line y1="-1" x2="16.778" y2="-1"
                    transform="matrix(0.632175 -0.774826 0.632175 0.774826 699.636 14.8469)" stroke="#F1E2B8"
                    stroke-width="2" />
                <line y1="-1" x2="16.778" y2="-1"
                    transform="matrix(0.632175 -0.774826 0.632175 0.774826 127.185 14.8469)" stroke="#F1E2B8"
                    stroke-width="2" />
                <line y1="-1" x2="16.778" y2="-1"
                    transform="matrix(0.632175 -0.774826 0.632175 0.774826 710.237 14.8469)" stroke="#F1E2B8"
                    stroke-width="2" />
                <line y1="-1" x2="16.778" y2="-1"
                    transform="matrix(0.632175 -0.774826 0.632175 0.774826 137.786 14.8469)" stroke="#F1E2B8"
                    stroke-width="2" />
                <line y1="-1" x2="16.778" y2="-1"
                    transform="matrix(0.632175 -0.774826 0.632175 0.774826 720.838 14.8469)" stroke="#F1E2B8"
                    stroke-width="2" />
                <line y1="-1" x2="16.778" y2="-1"
                    transform="matrix(0.632175 -0.774826 0.632175 0.774826 148.386 14.8469)" stroke="#F1E2B8"
                    stroke-width="2" />
                <line y1="-1" x2="16.778" y2="-1"
                    transform="matrix(0.632175 -0.774826 0.632175 0.774826 731.439 14.8469)" stroke="#F1E2B8"
                    stroke-width="2" />
                <line y1="-1" x2="16.778" y2="-1"
                    transform="matrix(0.632175 -0.774826 0.632175 0.774826 158.987 14.8469)" stroke="#F1E2B8"
                    stroke-width="2" />
                <line y1="-1" x2="16.778" y2="-1"
                    transform="matrix(0.632175 -0.774826 0.632175 0.774826 742.04 14.8469)" stroke="#F1E2B8"
                    stroke-width="2" />
                <line y1="-1" x2="16.778" y2="-1"
                    transform="matrix(0.632175 -0.774826 0.632175 0.774826 169.588 14.8469)" stroke="#F1E2B8"
                    stroke-width="2" />
                <line y1="-1" x2="16.778" y2="-1"
                    transform="matrix(0.632175 -0.774826 0.632175 0.774826 752.641 14.8469)" stroke="#F1E2B8"
                    stroke-width="2" />
                <line y1="-1" x2="16.778" y2="-1"
                    transform="matrix(0.632175 -0.774826 0.632175 0.774826 180.189 14.8469)" stroke="#F1E2B8"
                    stroke-width="2" />
                <line y1="-1" x2="16.778" y2="-1"
                    transform="matrix(0.632175 -0.774826 0.632175 0.774826 763.242 14.8469)" stroke="#F1E2B8"
                    stroke-width="2" />
                <line y1="-1" x2="16.778" y2="-1"
                    transform="matrix(0.632175 -0.774826 0.632175 0.774826 190.79 14.8469)" stroke="#F1E2B8"
                    stroke-width="2" />
                <line y1="-1" x2="16.778" y2="-1"
                    transform="matrix(0.632175 -0.774826 0.632175 0.774826 773.843 14.8469)" stroke="#F1E2B8"
                    stroke-width="2" />
                <line y1="-1" x2="16.778" y2="-1"
                    transform="matrix(0.632175 -0.774826 0.632175 0.774826 201.391 14.8469)" stroke="#F1E2B8"
                    stroke-width="2" />
                <line y1="-1" x2="16.778" y2="-1"
                    transform="matrix(0.632175 -0.774826 0.632175 0.774826 784.443 14.8469)" stroke="#F1E2B8"
                    stroke-width="2" />
                <line y1="-1" x2="16.778" y2="-1"
                    transform="matrix(0.632175 -0.774826 0.632175 0.774826 211.992 14.8469)" stroke="#F1E2B8"
                    stroke-width="2" />
                <line y1="-1" x2="16.778" y2="-1"
                    transform="matrix(0.632175 -0.774826 0.632175 0.774826 795.044 14.8469)" stroke="#F1E2B8"
                    stroke-width="2" />
                <line y1="-1" x2="16.778" y2="-1"
                    transform="matrix(0.632175 -0.774826 0.632175 0.774826 222.593 14.8469)" stroke="#F1E2B8"
                    stroke-width="2" />
                <line y1="-1" x2="16.778" y2="-1"
                    transform="matrix(0.632175 -0.774826 0.632175 0.774826 805.646 14.8469)" stroke="#F1E2B8"
                    stroke-width="2" />
                <line y1="-1" x2="16.778" y2="-1"
                    transform="matrix(0.632175 -0.774826 0.632175 0.774826 233.194 14.8469)" stroke="#F1E2B8"
                    stroke-width="2" />
                <line y1="-1" x2="16.778" y2="-1"
                    transform="matrix(0.632175 -0.774826 0.632175 0.774826 816.247 14.8469)" stroke="#F1E2B8"
                    stroke-width="2" />
                <line y1="-1" x2="16.778" y2="-1"
                    transform="matrix(0.632175 -0.774826 0.632175 0.774826 243.795 14.8469)" stroke="#F1E2B8"
                    stroke-width="2" />
                <line y1="-1" x2="16.778" y2="-1"
                    transform="matrix(0.632175 -0.774826 0.632175 0.774826 826.847 14.8469)" stroke="#F1E2B8"
                    stroke-width="2" />
                <line y1="-1" x2="16.778" y2="-1"
                    transform="matrix(0.632175 -0.774826 0.632175 0.774826 254.396 14.8469)" stroke="#F1E2B8"
                    stroke-width="2" />
                <line y1="-1" x2="16.778" y2="-1"
                    transform="matrix(0.632175 -0.774826 0.632175 0.774826 837.448 14.8469)" stroke="#F1E2B8"
                    stroke-width="2" />
                <line y1="-1" x2="16.778" y2="-1"
                    transform="matrix(0.632175 -0.774826 0.632175 0.774826 264.997 14.8469)" stroke="#F1E2B8"
                    stroke-width="2" />
                <line y1="-1" x2="16.778" y2="-1"
                    transform="matrix(0.632175 -0.774826 0.632175 0.774826 848.049 14.8469)" stroke="#F1E2B8"
                    stroke-width="2" />
                <line y1="-1" x2="16.778" y2="-1"
                    transform="matrix(0.632175 -0.774826 0.632175 0.774826 275.598 14.8469)" stroke="#F1E2B8"
                    stroke-width="2" />
                <line y1="-1" x2="16.778" y2="-1"
                    transform="matrix(0.632175 -0.774826 0.632175 0.774826 858.65 14.8469)" stroke="#F1E2B8"
                    stroke-width="2" />
                <line y1="-1" x2="16.778" y2="-1"
                    transform="matrix(0.632175 -0.774826 0.632175 0.774826 286.199 14.8469)" stroke="#F1E2B8"
                    stroke-width="2" />
                <line y1="-1" x2="16.778" y2="-1"
                    transform="matrix(0.632175 -0.774826 0.632175 0.774826 869.251 14.8469)" stroke="#F1E2B8"
                    stroke-width="2" />
                <line y1="-1" x2="16.778" y2="-1" transform="matrix(0.632175 -0.774826 0.632175 0.774826 296.8 14.8469)"
                    stroke="#F1E2B8" stroke-width="2" />
                <line y1="-1" x2="16.778" y2="-1"
                    transform="matrix(0.632175 -0.774826 0.632175 0.774826 879.852 14.8469)" stroke="#F1E2B8"
                    stroke-width="2" />
                <line y1="-1" x2="16.778" y2="-1"
                    transform="matrix(0.632175 -0.774826 0.632175 0.774826 307.401 14.8469)" stroke="#F1E2B8"
                    stroke-width="2" />
                <line y1="-1" x2="16.778" y2="-1"
                    transform="matrix(0.632175 -0.774826 0.632175 0.774826 890.453 14.8469)" stroke="#F1E2B8"
                    stroke-width="2" />
                <line y1="-1" x2="16.778" y2="-1"
                    transform="matrix(0.632175 -0.774826 0.632175 0.774826 318.002 14.8469)" stroke="#F1E2B8"
                    stroke-width="2" />
                <line y1="-1" x2="16.778" y2="-1"
                    transform="matrix(0.632175 -0.774826 0.632175 0.774826 901.054 14.8469)" stroke="#F1E2B8"
                    stroke-width="2" />
                <line y1="-1" x2="16.778" y2="-1"
                    transform="matrix(0.632175 -0.774826 0.632175 0.774826 328.603 14.8469)" stroke="#F1E2B8"
                    stroke-width="2" />
                <line y1="-1" x2="16.778" y2="-1"
                    transform="matrix(0.632175 -0.774826 0.632175 0.774826 911.655 14.8469)" stroke="#F1E2B8"
                    stroke-width="2" />
                <line y1="-1" x2="16.778" y2="-1"
                    transform="matrix(0.632175 -0.774826 0.632175 0.774826 339.204 14.8469)" stroke="#F1E2B8"
                    stroke-width="2" />
                <line y1="-1" x2="16.778" y2="-1"
                    transform="matrix(0.632175 -0.774826 0.632175 0.774826 922.256 14.8469)" stroke="#F1E2B8"
                    stroke-width="2" />
                <line y1="-1" x2="16.778" y2="-1"
                    transform="matrix(0.632175 -0.774826 0.632175 0.774826 349.805 14.8469)" stroke="#F1E2B8"
                    stroke-width="2" />
                <line y1="-1" x2="16.778" y2="-1"
                    transform="matrix(0.632175 -0.774826 0.632175 0.774826 932.857 14.8469)" stroke="#F1E2B8"
                    stroke-width="2" />
                <line y1="-1" x2="16.778" y2="-1"
                    transform="matrix(0.632175 -0.774826 0.632175 0.774826 360.405 14.8469)" stroke="#F1E2B8"
                    stroke-width="2" />
                <line y1="-1" x2="16.778" y2="-1"
                    transform="matrix(0.632175 -0.774826 0.632175 0.774826 943.458 14.8469)" stroke="#F1E2B8"
                    stroke-width="2" />
                <line y1="-1" x2="16.778" y2="-1"
                    transform="matrix(0.632175 -0.774826 0.632175 0.774826 371.006 14.8469)" stroke="#F1E2B8"
                    stroke-width="2" />
                <line y1="-1" x2="16.778" y2="-1"
                    transform="matrix(0.632175 -0.774826 0.632175 0.774826 954.059 14.8469)" stroke="#F1E2B8"
                    stroke-width="2" />
                <line y1="-1" x2="16.778" y2="-1"
                    transform="matrix(0.632175 -0.774826 0.632175 0.774826 381.607 14.8469)" stroke="#F1E2B8"
                    stroke-width="2" />
                <line y1="-1" x2="16.778" y2="-1"
                    transform="matrix(0.632175 -0.774826 0.632175 0.774826 964.66 14.8469)" stroke="#F1E2B8"
                    stroke-width="2" />
                <line y1="-1" x2="16.778" y2="-1"
                    transform="matrix(0.632175 -0.774826 0.632175 0.774826 392.208 14.8469)" stroke="#F1E2B8"
                    stroke-width="2" />
                <line y1="-1" x2="16.778" y2="-1"
                    transform="matrix(0.632175 -0.774826 0.632175 0.774826 975.261 14.8469)" stroke="#F1E2B8"
                    stroke-width="2" />
                <line y1="-1" x2="16.778" y2="-1"
                    transform="matrix(0.632175 -0.774826 0.632175 0.774826 402.81 14.8469)" stroke="#F1E2B8"
                    stroke-width="2" />
                <line y1="-1" x2="16.778" y2="-1"
                    transform="matrix(0.632175 -0.774826 0.632175 0.774826 985.862 14.8469)" stroke="#F1E2B8"
                    stroke-width="2" />
                <line y1="-1" x2="16.778" y2="-1"
                    transform="matrix(0.632175 -0.774826 0.632175 0.774826 1165.85 14.8469)" stroke="#F1E2B8"
                    stroke-width="2" />
                <line y1="-1" x2="16.778" y2="-1"
                    transform="matrix(0.632175 -0.774826 0.632175 0.774826 413.41 14.8469)" stroke="#F1E2B8"
                    stroke-width="2" />
                <line y1="-1" x2="16.778" y2="-1"
                    transform="matrix(0.632175 -0.774826 0.632175 0.774826 996.462 14.8469)" stroke="#F1E2B8"
                    stroke-width="2" />
                <line y1="-1" x2="16.778" y2="-1"
                    transform="matrix(0.632175 -0.774826 0.632175 0.774826 1176.45 14.8469)" stroke="#F1E2B8"
                    stroke-width="2" />
                <line y1="-1" x2="16.778" y2="-1"
                    transform="matrix(0.632175 -0.774826 0.632175 0.774826 424.011 14.8469)" stroke="#F1E2B8"
                    stroke-width="2" />
                <line y1="-1" x2="16.778" y2="-1"
                    transform="matrix(0.632175 -0.774826 0.632175 0.774826 1007.06 14.8469)" stroke="#F1E2B8"
                    stroke-width="2" />
                <line y1="-1" x2="16.778" y2="-1"
                    transform="matrix(0.632175 -0.774826 0.632175 0.774826 1187.05 14.8469)" stroke="#F1E2B8"
                    stroke-width="2" />
                <line y1="-1" x2="16.778" y2="-1"
                    transform="matrix(0.632175 -0.774826 0.632175 0.774826 434.612 14.8469)" stroke="#F1E2B8"
                    stroke-width="2" />
                <line y1="-1" x2="16.778" y2="-1"
                    transform="matrix(0.632175 -0.774826 0.632175 0.774826 1017.66 14.8469)" stroke="#F1E2B8"
                    stroke-width="2" />
                <line y1="-1" x2="16.778" y2="-1"
                    transform="matrix(0.632175 -0.774826 0.632175 0.774826 1197.65 14.8469)" stroke="#F1E2B8"
                    stroke-width="2" />
                <line y1="-1" x2="16.778" y2="-1"
                    transform="matrix(0.632175 -0.774826 0.632175 0.774826 445.213 14.8469)" stroke="#F1E2B8"
                    stroke-width="2" />
                <line y1="-1" x2="16.778" y2="-1"
                    transform="matrix(0.632175 -0.774826 0.632175 0.774826 1028.27 14.8469)" stroke="#F1E2B8"
                    stroke-width="2" />
                <line y1="-1" x2="16.778" y2="-1"
                    transform="matrix(0.632175 -0.774826 0.632175 0.774826 1208.25 14.8469)" stroke="#F1E2B8"
                    stroke-width="2" />
                <line y1="-1" x2="16.778" y2="-1"
                    transform="matrix(0.632175 -0.774826 0.632175 0.774826 455.814 14.8469)" stroke="#F1E2B8"
                    stroke-width="2" />
                <line y1="-1" x2="16.778" y2="-1"
                    transform="matrix(0.632175 -0.774826 0.632175 0.774826 1038.87 14.8469)" stroke="#F1E2B8"
                    stroke-width="2" />
                <line y1="-1" x2="16.778" y2="-1"
                    transform="matrix(0.632175 -0.774826 0.632175 0.774826 1218.85 14.8469)" stroke="#F1E2B8"
                    stroke-width="2" />
                <line y1="-1" x2="16.778" y2="-1"
                    transform="matrix(0.632175 -0.774826 0.632175 0.774826 466.415 14.8469)" stroke="#F1E2B8"
                    stroke-width="2" />
                <line y1="-1" x2="16.778" y2="-1"
                    transform="matrix(0.632175 -0.774826 0.632175 0.774826 1049.47 14.8469)" stroke="#F1E2B8"
                    stroke-width="2" />
                <line y1="-1" x2="16.778" y2="-1"
                    transform="matrix(0.632175 -0.774826 0.632175 0.774826 1229.45 14.8469)" stroke="#F1E2B8"
                    stroke-width="2" />
                <line y1="-1" x2="16.778" y2="-1"
                    transform="matrix(0.632175 -0.774826 0.632175 0.774826 477.016 14.8469)" stroke="#F1E2B8"
                    stroke-width="2" />
                <line y1="-1" x2="16.778" y2="-1"
                    transform="matrix(0.632175 -0.774826 0.632175 0.774826 1060.07 14.8469)" stroke="#F1E2B8"
                    stroke-width="2" />
                <line y1="-1" x2="16.778" y2="-1"
                    transform="matrix(0.632175 -0.774826 0.632175 0.774826 1240.06 14.8469)" stroke="#F1E2B8"
                    stroke-width="2" />
                <line y1="-1" x2="16.778" y2="-1"
                    transform="matrix(0.632175 -0.774826 0.632175 0.774826 487.617 14.8469)" stroke="#F1E2B8"
                    stroke-width="2" />
                <line y1="-1" x2="16.778" y2="-1"
                    transform="matrix(0.632175 -0.774826 0.632175 0.774826 1070.67 14.8469)" stroke="#F1E2B8"
                    stroke-width="2" />
                <line y1="-1" x2="16.778" y2="-1"
                    transform="matrix(0.632175 -0.774826 0.632175 0.774826 1250.66 14.8469)" stroke="#F1E2B8"
                    stroke-width="2" />
                <line y1="-1" x2="16.778" y2="-1"
                    transform="matrix(0.632175 -0.774826 0.632175 0.774826 498.218 14.8469)" stroke="#F1E2B8"
                    stroke-width="2" />
                <line y1="-1" x2="16.778" y2="-1"
                    transform="matrix(0.632175 -0.774826 0.632175 0.774826 1081.27 14.8469)" stroke="#F1E2B8"
                    stroke-width="2" />
                <line y1="-1" x2="16.778" y2="-1"
                    transform="matrix(0.632175 -0.774826 0.632175 0.774826 1261.26 14.8469)" stroke="#F1E2B8"
                    stroke-width="2" />
                <line y1="-1" x2="16.778" y2="-1"
                    transform="matrix(0.632175 -0.774826 0.632175 0.774826 508.819 14.8469)" stroke="#F1E2B8"
                    stroke-width="2" />
                <line y1="-1" x2="16.778" y2="-1"
                    transform="matrix(0.632175 -0.774826 0.632175 0.774826 1091.87 14.8469)" stroke="#F1E2B8"
                    stroke-width="2" />
                <line y1="-1" x2="16.778" y2="-1"
                    transform="matrix(0.632175 -0.774826 0.632175 0.774826 1271.86 14.8469)" stroke="#F1E2B8"
                    stroke-width="2" />
                <line y1="-1" x2="16.778" y2="-1"
                    transform="matrix(0.632175 -0.774826 0.632175 0.774826 519.42 14.8469)" stroke="#F1E2B8"
                    stroke-width="2" />
                <line y1="-1" x2="16.778" y2="-1"
                    transform="matrix(0.632175 -0.774826 0.632175 0.774826 1102.47 14.8469)" stroke="#F1E2B8"
                    stroke-width="2" />
                <line y1="-1" x2="16.778" y2="-1"
                    transform="matrix(0.632175 -0.774826 0.632175 0.774826 1282.46 14.8469)" stroke="#F1E2B8"
                    stroke-width="2" />
                <line y1="-1" x2="16.778" y2="-1"
                    transform="matrix(0.632175 -0.774826 0.632175 0.774826 530.021 14.8469)" stroke="#F1E2B8"
                    stroke-width="2" />
                <line y1="-1" x2="16.778" y2="-1"
                    transform="matrix(0.632175 -0.774826 0.632175 0.774826 1113.07 14.8469)" stroke="#F1E2B8"
                    stroke-width="2" />
                <line y1="-1" x2="16.778" y2="-1"
                    transform="matrix(0.632175 -0.774826 0.632175 0.774826 1293.06 14.8469)" stroke="#F1E2B8"
                    stroke-width="2" />
                <line y1="-1" x2="16.778" y2="-1"
                    transform="matrix(0.632175 -0.774826 0.632175 0.774826 540.622 14.8469)" stroke="#F1E2B8"
                    stroke-width="2" />
                <line y1="-1" x2="16.778" y2="-1"
                    transform="matrix(0.632175 -0.774826 0.632175 0.774826 1123.67 14.8469)" stroke="#F1E2B8"
                    stroke-width="2" />
                <line y1="-1" x2="16.778" y2="-1"
                    transform="matrix(0.632175 -0.774826 0.632175 0.774826 1303.66 14.8469)" stroke="#F1E2B8"
                    stroke-width="2" />
                <line y1="-1" x2="16.778" y2="-1"
                    transform="matrix(0.632175 -0.774826 0.632175 0.774826 551.223 14.8469)" stroke="#F1E2B8"
                    stroke-width="2" />
                <line y1="-1" x2="16.778" y2="-1"
                    transform="matrix(0.632175 -0.774826 0.632175 0.774826 1134.27 14.8469)" stroke="#F1E2B8"
                    stroke-width="2" />
                <line y1="-1" x2="16.778" y2="-1"
                    transform="matrix(0.632175 -0.774826 0.632175 0.774826 1314.26 14.8469)" stroke="#F1E2B8"
                    stroke-width="2" />
                <line y1="-1" x2="16.778" y2="-1"
                    transform="matrix(0.632175 -0.774826 0.632175 0.774826 1344.77 14.8469)" stroke="#F1E2B8"
                    stroke-width="2" />
                <line y1="-1" x2="16.778" y2="-1"
                    transform="matrix(0.632175 -0.774826 0.632175 0.774826 561.824 14.8469)" stroke="#F1E2B8"
                    stroke-width="2" />
                <line y1="-1" x2="16.778" y2="-1"
                    transform="matrix(0.632175 -0.774826 0.632175 0.774826 1144.88 14.8469)" stroke="#F1E2B8"
                    stroke-width="2" />
                <line y1="-1" x2="16.778" y2="-1"
                    transform="matrix(0.632175 -0.774826 0.632175 0.774826 1324.86 14.8469)" stroke="#F1E2B8"
                    stroke-width="2" />
                <line y1="-1" x2="16.778" y2="-1"
                    transform="matrix(0.632175 -0.774826 0.632175 0.774826 1355.37 14.8469)" stroke="#F1E2B8"
                    stroke-width="2" />
                <line y1="-1" x2="16.778" y2="-1"
                    transform="matrix(0.632175 -0.774826 0.632175 0.774826 572.425 14.8469)" stroke="#F1E2B8"
                    stroke-width="2" />
                <line y1="-1" x2="16.778" y2="-1"
                    transform="matrix(0.632175 -0.774826 0.632175 0.774826 1155.48 14.8469)" stroke="#F1E2B8"
                    stroke-width="2" />
                <line y1="-1" x2="16.778" y2="-1"
                    transform="matrix(0.632175 -0.774826 0.632175 0.774826 1335.46 14.8469)" stroke="#F1E2B8"
                    stroke-width="2" />
            </svg>