<svg width="103" height="91" viewBox="0 0 103 91" fill="none" xmlns="http://www.w3.org/2000/svg">
<path d="M90.0929 66.1481H19.0111C18.8625 66.1481 18.714 66.1481 18.5654 66.0746C16.2629 65.1195 14.7773 63.2093 14.7773 61.0787V13.3236C14.7773 10.8991 16.6342 8.98889 18.9368 8.98889H90.0186C92.3212 8.98889 94.1781 10.8991 94.1781 13.3236V61.1522C94.1781 63.2093 92.7668 65.1195 90.39 66.1481C90.39 66.1481 90.2415 66.1481 90.0929 66.1481ZM19.2339 63.944H89.8701C90.91 63.4297 92.0984 62.4746 92.0984 61.0787V13.3236C92.0984 12.1481 91.2071 11.193 90.1672 11.193H19.0111C17.8969 11.193 17.0799 12.1481 17.0799 13.3236V61.1522C17.0056 62.4746 18.194 63.4297 19.2339 63.944Z" fill="#1B2D47"/>
<path d="M63.4276 72.8337H45.9728C44.7844 72.8337 43.8931 73.7888 43.8931 74.8909V79.6664C43.8931 80.8419 44.8587 81.7235 45.9728 81.7235H63.4276C64.616 81.7235 65.5073 80.7684 65.5073 79.6664V74.8909C65.5073 73.7888 64.616 72.8337 63.4276 72.8337Z" fill="#1B2D47"/>
<path d="M88.2357 90.9807H20.9419C19.1593 90.9807 17.748 89.5847 17.748 87.8215V83.8541C17.748 82.0909 19.1593 80.6949 20.9419 80.6949H88.2357C90.0183 80.6949 91.4296 82.0909 91.4296 83.8541V87.8215C91.4296 89.5113 90.0183 90.9807 88.2357 90.9807ZM20.9419 82.899C20.422 82.899 19.9763 83.3398 19.9763 83.8541V87.8215C19.9763 88.3358 20.422 88.7766 20.9419 88.7766H88.2357C88.7556 88.7766 89.2013 88.3358 89.2013 87.8215V83.8541C89.2013 83.3398 88.7556 82.899 88.2357 82.899H20.9419Z" fill="#1B2D47"/>
<path d="M85.1904 29.8542H64.0961C63.5019 29.8542 62.9819 29.3399 62.9819 28.7522C62.9819 28.1644 63.5019 27.6501 64.0961 27.6501H85.1904C85.7846 27.6501 86.3045 28.1644 86.3045 28.7522C86.3045 29.3399 85.7846 29.8542 85.1904 29.8542Z" fill="#1B2D47"/>
<path d="M85.1904 54.8337H64.0961C63.5019 54.8337 62.9819 54.3194 62.9819 53.7317C62.9819 53.1439 63.5019 52.6296 64.0961 52.6296H85.1904C85.7846 52.6296 86.3045 53.1439 86.3045 53.7317C86.3045 54.3194 85.7846 54.8337 85.1904 54.8337Z" fill="#1B2D47"/>
<path d="M86.3788 22.2134H54.5887C53.9945 22.2134 53.4746 21.6991 53.4746 21.1113C53.4746 20.5236 53.9945 20.0093 54.5887 20.0093H86.3788C86.973 20.0093 87.4929 20.5236 87.4929 21.1113C87.4929 21.6991 86.973 22.2134 86.3788 22.2134Z" fill="#1B2D47"/>
<path d="M85.1904 47.4868H71.7465C71.1523 47.4868 70.6323 46.9725 70.6323 46.3848C70.6323 45.797 71.1523 45.2827 71.7465 45.2827H85.1904C85.7846 45.2827 86.3045 45.797 86.3045 46.3848C86.3045 46.9725 85.7846 47.4868 85.1904 47.4868Z" fill="#1B2D47"/>
<path d="M85.1904 40.1399H71.7465C71.1523 40.1399 70.6323 39.6256 70.6323 39.0378C70.6323 38.4501 71.1523 37.9358 71.7465 37.9358H85.1904C85.7846 37.9358 86.3045 38.4501 86.3045 39.0378C86.3045 39.6256 85.7846 40.1399 85.1904 40.1399Z" fill="#1B2D47"/>
<path d="M98.4115 74.1562H10.7662C8.31507 74.1562 6.23535 72.1725 6.23535 69.6746V5.46235C6.23535 3.03786 8.2408 0.980713 10.7662 0.980713H98.4115C100.863 0.980713 102.942 2.96439 102.942 5.46235V69.6746C102.868 72.0991 100.863 74.1562 98.4115 74.1562ZM10.6919 3.18479C9.42921 3.18479 8.38935 4.21337 8.38935 5.46235V69.6746C8.38935 70.9236 9.42921 71.9521 10.6919 71.9521H98.3372C99.5999 71.9521 100.64 70.9236 100.64 69.6746V5.46235C100.64 4.21337 99.5999 3.18479 98.3372 3.18479H10.6919Z" fill="#1B2D47"/>
<path d="M46.1214 60.5643C46.1214 60.9317 45.8986 61.299 45.5272 61.5194C37.951 64.4582 31.8604 70.4092 28.8894 77.9031C28.7409 78.3439 28.3695 78.4909 27.9238 78.4909V60.5643H46.1214Z" fill="url(#paint0_linear)"/>
<path d="M27.9236 60.5643V78.5643C27.5522 78.5643 27.1809 78.3439 26.958 77.9766C23.9127 70.4827 17.8964 64.5317 10.3203 61.5194C9.87463 61.3725 9.72607 61.0051 9.72607 60.5643H27.9236Z" fill="url(#paint1_linear)"/>
<path d="M27.9236 42.5645V60.5645H9.72607C9.72607 60.1971 9.9489 59.8298 10.3203 59.6094C17.8964 56.5971 23.9127 50.6461 26.958 43.1522C27.1809 42.7849 27.5522 42.5645 27.9236 42.5645Z" fill="url(#paint2_linear)"/>
<path d="M46.1214 60.5645H27.9238V42.5645C28.2952 42.5645 28.6666 42.7849 28.8894 43.1522C31.8604 50.6461 37.951 56.5971 45.5272 59.6094C45.8986 59.7563 46.1214 60.1236 46.1214 60.5645Z" fill="url(#paint3_linear)"/>
<path d="M55.1827 42.5645C55.1827 42.7849 55.1085 42.9318 54.8856 43.0053C51.0976 44.4747 48.0523 47.4869 46.5667 51.2338C46.4925 51.4543 46.2696 51.5277 46.1211 51.5277V42.5645H55.1827Z" fill="url(#paint4_linear)"/>
<path d="M46.1212 42.5645V51.5277C45.8984 51.5277 45.7498 51.4543 45.6756 51.2338C44.19 47.4869 41.1447 44.4747 37.3567 43.0053C37.1338 42.9318 37.0596 42.7114 37.0596 42.5645H46.1212Z" fill="url(#paint5_linear)"/>
<path d="M46.1212 33.5276V42.4909H37.0596C37.0596 42.2704 37.1338 42.1235 37.3567 42.05C41.1447 40.5807 44.19 37.5684 45.6756 33.8215C45.7498 33.6745 45.8984 33.5276 46.1212 33.5276Z" fill="url(#paint6_linear)"/>
<path d="M55.1827 42.5643H46.1211V33.5276C46.3439 33.5276 46.4925 33.6011 46.5667 33.8215C48.0523 37.5684 51.0976 40.5807 54.8856 42.05C55.1085 42.197 55.1827 42.3439 55.1827 42.5643Z" fill="url(#paint7_linear)"/>
<path d="M18.8624 37.5685C18.8624 37.7889 18.7881 37.9358 18.5653 38.0093C14.7773 39.4787 11.7319 42.4909 10.2464 46.2379C10.1722 46.4583 9.94933 46.5317 9.80078 46.5317V37.5685H18.8624Z" fill="url(#paint8_linear)"/>
<path d="M9.72619 37.5685V46.5317C9.50336 46.5317 9.35481 46.4583 9.28053 46.2379C7.79502 42.4909 4.74972 39.4787 0.961654 38.0093C0.738826 37.9358 0.664551 37.7889 0.664551 37.5685H9.72619Z" fill="url(#paint9_linear)"/>
<path d="M9.72619 28.6052V37.5685H0.664551C0.664551 37.3481 0.738826 37.2011 0.961654 37.1277C4.74972 35.6583 7.79502 32.646 9.28053 28.8991C9.35481 28.6787 9.57764 28.6052 9.72619 28.6052Z" fill="url(#paint10_linear)"/>
<path d="M18.862 37.5685H9.72607V28.6052C9.9489 28.6052 10.0975 28.6787 10.1717 28.8991C11.6572 32.646 14.7025 35.6583 18.4906 37.1277C18.7134 37.2011 18.862 37.4215 18.862 37.5685Z" fill="url(#paint11_linear)"/>
<defs>
<linearGradient id="paint0_linear" x1="26.1366" y1="64.0387" x2="40.6088" y2="71.4936" gradientUnits="userSpaceOnUse">
<stop stop-color="#F1E2B8"/>
<stop offset="1" stop-color="#DBB64D"/>
</linearGradient>
<linearGradient id="paint1_linear" x1="15.2061" y1="71.3657" x2="29.6782" y2="63.9109" gradientUnits="userSpaceOnUse">
<stop stop-color="#F1E2B8"/>
<stop offset="1" stop-color="#DBB64D"/>
</linearGradient>
<linearGradient id="paint2_linear" x1="15.2061" y1="49.7081" x2="29.6783" y2="57.163" gradientUnits="userSpaceOnUse">
<stop stop-color="#F1E2B8"/>
<stop offset="1" stop-color="#DBB64D"/>
</linearGradient>
<linearGradient id="paint3_linear" x1="26.1365" y1="57.0352" x2="40.6088" y2="49.5803" gradientUnits="userSpaceOnUse">
<stop stop-color="#F1E2B8"/>
<stop offset="1" stop-color="#DBB64D"/>
</linearGradient>
<linearGradient id="paint4_linear" x1="45.2221" y1="44.3014" x2="52.4581" y2="48.0289" gradientUnits="userSpaceOnUse">
<stop stop-color="#F1E2B8"/>
<stop offset="1" stop-color="#DBB64D"/>
</linearGradient>
<linearGradient id="paint5_linear" x1="39.757" y1="47.965" x2="46.9931" y2="44.2375" gradientUnits="userSpaceOnUse">
<stop stop-color="#F1E2B8"/>
<stop offset="1" stop-color="#DBB64D"/>
</linearGradient>
<linearGradient id="paint6_linear" x1="39.757" y1="37.136" x2="46.9931" y2="40.8633" gradientUnits="userSpaceOnUse">
<stop stop-color="#F1E2B8"/>
<stop offset="1" stop-color="#DBB64D"/>
</linearGradient>
<linearGradient id="paint7_linear" x1="45.2221" y1="40.7994" x2="52.4581" y2="37.0721" gradientUnits="userSpaceOnUse">
<stop stop-color="#F1E2B8"/>
<stop offset="1" stop-color="#DBB64D"/>
</linearGradient>
<linearGradient id="paint8_linear" x1="8.85488" y1="39.3364" x2="16.091" y2="43.0638" gradientUnits="userSpaceOnUse">
<stop stop-color="#F1E2B8"/>
<stop offset="1" stop-color="#DBB64D"/>
</linearGradient>
<linearGradient id="paint9_linear" x1="3.38943" y1="42.9999" x2="10.6255" y2="39.2725" gradientUnits="userSpaceOnUse">
<stop stop-color="#F1E2B8"/>
<stop offset="1" stop-color="#DBB64D"/>
</linearGradient>
<linearGradient id="paint10_linear" x1="3.38943" y1="32.171" x2="10.6255" y2="35.8984" gradientUnits="userSpaceOnUse">
<stop stop-color="#F1E2B8"/>
<stop offset="1" stop-color="#DBB64D"/>
</linearGradient>
<linearGradient id="paint11_linear" x1="8.85445" y1="35.8345" x2="16.0905" y2="32.1071" gradientUnits="userSpaceOnUse">
<stop stop-color="#F1E2B8"/>
<stop offset="1" stop-color="#DBB64D"/>
</linearGradient>
</defs>
</svg>
