<svg width="92" height="96" viewBox="0 0 92 96" fill="none" xmlns="http://www.w3.org/2000/svg">
<path d="M86.5064 90.9525H5.09983C2.33507 90.9525 0.10791 88.7254 0.10791 85.9606V40.6494C0.10791 37.8846 2.33507 35.6575 5.09983 35.6575H86.5064C89.2712 35.6575 91.4984 37.8846 91.4984 40.6494V85.9606C91.4984 88.7254 89.2712 90.9525 86.5064 90.9525ZM5.09983 37.9614C3.64065 37.9614 2.41187 39.1902 2.41187 40.6494V85.9606C2.41187 87.4198 3.64065 88.6486 5.09983 88.6486H86.5064C87.9656 88.6486 89.1944 87.4198 89.1944 85.9606V40.6494C89.1944 39.1902 87.9656 37.9614 86.5064 37.9614H5.09983Z" fill="#1B2D47"/>
<path d="M70.3022 37.9614H35.9731L38.9683 19.9137H64.5423C66.539 19.9137 68.2286 21.4497 68.459 23.3696L70.3022 37.9614ZM38.6611 35.6574H67.691L66.2318 23.6768C66.0782 22.832 65.3871 22.2177 64.5423 22.2177H40.8883L38.6611 35.6574Z" fill="#1B2D47"/>
<path d="M53.1757 94.6388C70.4809 94.6388 84.5095 80.6102 84.5095 63.3049C84.5095 45.9997 70.4809 31.9711 53.1757 31.9711C35.8704 31.9711 21.8418 45.9997 21.8418 63.3049C21.8418 80.6102 35.8704 94.6388 53.1757 94.6388Z" fill="#D6D6D6"/>
<path d="M53.1757 95.714C35.2816 95.714 20.7666 81.1222 20.7666 63.3049C20.7666 45.4876 35.3584 30.8191 53.1757 30.8191C70.993 30.8191 85.5847 45.4108 85.5847 63.3049C85.5847 81.199 71.0698 95.714 53.1757 95.714ZM53.1757 33.1231C36.5871 33.1231 23.0706 46.6396 23.0706 63.3049C23.0706 79.9703 36.5871 93.41 53.1757 93.41C69.7642 93.41 83.2808 79.8935 83.2808 63.3049C83.2808 46.7164 69.7642 33.1231 53.1757 33.1231Z" fill="#1B2D47"/>
<path d="M53.176 86.4213C65.9428 86.4213 76.2924 76.0717 76.2924 63.3049C76.2924 50.538 65.9428 40.1885 53.176 40.1885C40.4091 40.1885 30.0596 50.538 30.0596 63.3049C30.0596 76.0717 40.4091 86.4213 53.176 86.4213Z" fill="#1B2D47"/>
<path d="M53.1756 87.5734C39.7358 87.5734 28.9072 76.668 28.9072 63.305C28.9072 49.942 39.8126 39.0366 53.1756 39.0366C66.5386 39.0366 77.444 49.942 77.444 63.305C77.444 76.668 66.5386 87.5734 53.1756 87.5734ZM53.1756 41.3406C41.0414 41.3406 31.2112 51.2476 31.2112 63.305C31.2112 75.3624 41.1182 85.2694 53.1756 85.2694C65.233 85.2694 75.14 75.3624 75.14 63.305C75.14 51.2476 65.3098 41.3406 53.1756 41.3406Z" fill="#1B2D47"/>
<path d="M60.3951 35.2733C60.3951 35.6573 60.1647 36.1181 59.7039 36.2717C51.5632 39.4972 45.1121 45.9483 41.8866 54.089C41.733 54.5498 41.2722 54.7802 40.8882 54.7802V35.2733H60.3951Z" fill="url(#paint0_linear)"/>
<path d="M40.9649 35.2733V54.7802C40.5809 54.7802 40.1201 54.5498 39.9665 54.089C36.741 45.9483 30.2899 39.4972 22.1492 36.2717C21.6884 36.1181 21.458 35.6573 21.458 35.2733H40.9649Z" fill="url(#paint1_linear)"/>
<path d="M40.9649 15.8434V35.2735H21.458C21.458 34.8895 21.6884 34.4287 22.1492 34.2751C30.2899 31.0495 36.741 24.5984 39.9665 16.4578C40.1201 16.0738 40.5041 15.8434 40.9649 15.8434Z" fill="url(#paint2_linear)"/>
<path d="M60.3949 35.2735H40.9648V15.8434C41.3488 15.8434 41.8096 16.0738 41.9632 16.5346C45.1888 24.6752 51.6399 31.1263 59.7805 34.3519C60.1645 34.5055 60.3949 34.8895 60.3949 35.2735Z" fill="url(#paint3_linear)"/>
<path d="M70.1483 15.8434C70.1483 16.0738 70.0715 16.2274 69.8411 16.3042C65.7708 17.9169 62.5452 21.1425 60.9325 25.2128C60.8557 25.4432 60.6253 25.52 60.4717 25.52V15.8434H70.1483Z" fill="url(#paint4_linear)"/>
<path d="M60.3949 15.8434V25.5968C60.1645 25.5968 60.0109 25.52 59.9341 25.2896C58.3213 21.2193 55.0958 17.9937 51.0255 16.381C50.7951 16.3042 50.7183 16.0738 50.7183 15.9202H60.3949V15.8434Z" fill="url(#paint5_linear)"/>
<path d="M60.395 6.08984V15.8433H50.6416C50.6416 15.6129 50.7184 15.4593 50.9488 15.3825C55.0191 13.7697 58.2447 10.5442 59.8574 6.47384C60.011 6.16664 60.1646 6.08984 60.395 6.08984Z" fill="url(#paint6_linear)"/>
<path d="M70.1485 15.8433H60.395V6.08984C60.6254 6.08984 60.779 6.16664 60.8558 6.39704C62.4686 10.4674 65.6941 13.6929 69.7645 15.3057C69.9949 15.3825 70.1485 15.6129 70.1485 15.8433Z" fill="url(#paint7_linear)"/>
<path d="M31.2113 10.4674C31.2113 10.6978 31.1345 10.8514 30.9041 10.9282C26.8338 12.541 23.6082 15.7665 21.9955 19.8368C21.9187 20.0672 21.6883 20.144 21.5347 20.144V10.4674H31.2113Z" fill="url(#paint8_linear)"/>
<path d="M21.4579 10.4674V20.2208C21.2275 20.2208 21.0739 20.144 20.9971 19.9136C19.3843 15.8433 16.1588 12.6178 12.0884 11.005C11.858 10.9282 11.7812 10.6978 11.7812 10.5442H21.4579V10.4674Z" fill="url(#paint9_linear)"/>
<path d="M21.458 0.713989V10.4674H11.7046C11.7046 10.237 11.7814 10.0834 12.0118 10.0066C16.0821 8.31706 19.3077 5.09152 20.9972 1.02118C21.074 0.790788 21.2276 0.713989 21.458 0.713989Z" fill="url(#paint10_linear)"/>
<path d="M31.2114 10.4674H21.458V0.713989C21.6884 0.713989 21.842 0.790788 21.9188 1.02118C23.6084 5.09152 26.8339 8.31706 30.8275 9.92983C31.0578 10.0066 31.2114 10.237 31.2114 10.4674Z" fill="url(#paint11_linear)"/>
<path d="M9.55432 84.1174C8.93993 84.1174 8.40234 83.5799 8.40234 82.9655V43.6445C8.40234 43.0301 8.93993 42.4926 9.55432 42.4926C10.1687 42.4926 10.7063 43.0301 10.7063 43.6445V82.9655C10.7063 83.5799 10.1687 84.1174 9.55432 84.1174Z" fill="#1B2D47"/>
<path d="M18.1554 37.9614H12.3955C10.4756 37.9614 8.86279 36.3486 8.86279 34.4286C8.86279 32.5086 10.4756 30.8959 12.3955 30.8959H18.1554C20.0754 30.8959 21.6882 32.5086 21.6882 34.4286C21.6882 36.3486 20.0754 37.9614 18.1554 37.9614ZM12.3955 33.123C11.7043 33.123 11.1668 33.6606 11.1668 34.3518C11.1668 35.043 11.7043 35.5806 12.3955 35.5806H18.1554C18.8466 35.5806 19.3842 35.043 19.3842 34.3518C19.3842 33.6606 18.8466 33.123 18.1554 33.123H12.3955Z" fill="#1B2D47"/>
<path d="M60.1645 79.9702C59.7037 79.9702 59.3197 79.7398 59.0893 79.279C58.7821 78.6646 59.0893 78.0502 59.6269 77.743C66.1548 74.6711 69.9179 67.836 68.9963 60.6937C68.9196 60.0793 69.3803 59.4649 69.9947 59.3881C70.6091 59.3113 71.2235 59.7721 71.3003 60.3865C72.3755 68.5272 68.0748 76.3607 60.6253 79.8166C60.4717 79.8934 60.3181 79.9702 60.1645 79.9702ZM69.3803 58.0826C68.9196 58.0826 68.4588 57.7754 68.3052 57.3146C68.1516 56.8538 67.9212 56.3162 67.6908 55.8554C67.4604 55.241 67.6908 54.6266 68.2284 54.3194C68.8428 54.089 69.4571 54.3194 69.7643 54.857C69.9947 55.3946 70.2251 55.9322 70.4555 56.5466C70.6859 57.161 70.3787 57.7754 69.7643 58.0058C69.6107 58.0826 69.4571 58.0826 69.3803 58.0826Z" fill="white"/>
<defs>
<linearGradient id="paint0_linear" x1="38.9996" y1="39.0867" x2="54.5669" y2="47.0186" gradientUnits="userSpaceOnUse">
<stop stop-color="#F1E2B8"/>
<stop offset="1" stop-color="#DBB64D"/>
</linearGradient>
<linearGradient id="paint1_linear" x1="27.2953" y1="47.0185" x2="42.8626" y2="39.0867" gradientUnits="userSpaceOnUse">
<stop stop-color="#F1E2B8"/>
<stop offset="1" stop-color="#DBB64D"/>
</linearGradient>
<linearGradient id="paint2_linear" x1="27.2953" y1="23.573" x2="42.8627" y2="31.505" gradientUnits="userSpaceOnUse">
<stop stop-color="#F1E2B8"/>
<stop offset="1" stop-color="#DBB64D"/>
</linearGradient>
<linearGradient id="paint3_linear" x1="38.9994" y1="31.505" x2="54.5667" y2="23.573" gradientUnits="userSpaceOnUse">
<stop stop-color="#F1E2B8"/>
<stop offset="1" stop-color="#DBB64D"/>
</linearGradient>
<linearGradient id="paint4_linear" x1="59.4365" y1="17.72" x2="67.2201" y2="21.686" gradientUnits="userSpaceOnUse">
<stop stop-color="#F1E2B8"/>
<stop offset="1" stop-color="#DBB64D"/>
</linearGradient>
<linearGradient id="paint5_linear" x1="53.5844" y1="21.686" x2="61.368" y2="17.72" gradientUnits="userSpaceOnUse">
<stop stop-color="#F1E2B8"/>
<stop offset="1" stop-color="#DBB64D"/>
</linearGradient>
<linearGradient id="paint6_linear" x1="53.5845" y1="9.96303" x2="61.3682" y2="13.9291" gradientUnits="userSpaceOnUse">
<stop stop-color="#F1E2B8"/>
<stop offset="1" stop-color="#DBB64D"/>
</linearGradient>
<linearGradient id="paint7_linear" x1="59.4366" y1="13.9291" x2="67.2203" y2="9.96304" gradientUnits="userSpaceOnUse">
<stop stop-color="#F1E2B8"/>
<stop offset="1" stop-color="#DBB64D"/>
</linearGradient>
<linearGradient id="paint8_linear" x1="20.4939" y1="12.3451" x2="28.2775" y2="16.311" gradientUnits="userSpaceOnUse">
<stop stop-color="#F1E2B8"/>
<stop offset="1" stop-color="#DBB64D"/>
</linearGradient>
<linearGradient id="paint9_linear" x1="14.6418" y1="16.311" x2="22.4255" y2="12.3451" gradientUnits="userSpaceOnUse">
<stop stop-color="#F1E2B8"/>
<stop offset="1" stop-color="#DBB64D"/>
</linearGradient>
<linearGradient id="paint10_linear" x1="14.642" y1="4.58825" x2="22.4256" y2="8.55422" gradientUnits="userSpaceOnUse">
<stop stop-color="#F1E2B8"/>
<stop offset="1" stop-color="#DBB64D"/>
</linearGradient>
<linearGradient id="paint11_linear" x1="20.494" y1="8.55422" x2="28.2777" y2="4.58825" gradientUnits="userSpaceOnUse">
<stop stop-color="#F1E2B8"/>
<stop offset="1" stop-color="#DBB64D"/>
</linearGradient>
</defs>
</svg>
