<svg width="108" height="111" viewBox="0 0 108 111" fill="none" xmlns="http://www.w3.org/2000/svg">
<path d="M81.0944 104.587L6.60019 84.6263C4.0702 83.9484 2.57824 81.3643 3.25615 78.8343L14.3663 37.3705C15.0442 34.8405 17.6284 33.3486 20.1584 34.0265L94.6526 53.9872C97.1826 54.6651 98.6745 57.2492 97.9966 59.7792L86.8864 101.243C86.2085 103.773 83.6244 105.265 81.0944 104.587ZM19.5934 36.1348C18.2582 35.777 16.8324 36.6002 16.4747 37.9355L5.36448 79.3992C5.00669 80.7345 5.82984 82.1602 7.16511 82.518L81.6593 102.479C82.9946 102.836 84.4203 102.013 84.7781 100.678L95.8883 59.2143C96.2461 57.879 95.4229 56.4533 94.0876 56.0955L19.5934 36.1348Z" fill="#1B2D47"/>
<path d="M79.2588 52.122L47.8448 43.7047L55.0108 27.9239L78.4133 34.1945C80.2405 34.6841 81.41 36.5039 81.15 38.3174L79.2588 52.122ZM50.8694 42.2554L77.4343 49.3735L79.0367 38.0524C79.1032 37.2417 78.6214 36.51 77.8483 36.3028L56.2029 30.503L50.8694 42.2554Z" fill="#1B2D47"/>
<path d="M49.6896 99.7878C65.5254 104.031 81.8026 94.6333 86.0458 78.7975C90.289 62.9617 80.8914 46.6845 65.0556 42.4413C49.2198 38.1981 32.9425 47.5957 28.6994 63.4315C24.4562 79.2673 33.8538 95.5446 49.6896 99.7878Z" fill="white"/>
<path d="M49.4262 100.772C33.0516 96.384 23.347 79.4722 27.7157 63.1678C32.0845 46.8634 49.0339 37.0183 65.3383 41.387C81.6427 45.7558 91.4175 62.6864 87.03 79.061C82.6424 95.4357 65.8009 105.159 49.4262 100.772ZM64.7733 43.4954C49.5934 39.4279 33.9103 48.4825 29.824 63.7328C25.7378 78.983 34.8112 94.5958 49.9912 98.6632C65.1711 102.731 80.8542 93.6761 84.9216 78.4961C88.9891 63.3162 79.9533 47.5628 64.7733 43.4954Z" fill="#1B2D47"/>
<path d="M51.7051 92.2679C63.3879 95.3983 75.3963 88.4652 78.5267 76.7824C81.6571 65.0996 74.724 53.0912 63.0412 49.9608C51.3585 46.8304 39.35 53.7635 36.2196 65.4463C33.0892 77.129 40.0223 89.1375 51.7051 92.2679Z" fill="#1B2D47"/>
<path d="M51.4224 93.3222C39.1238 90.0268 31.8886 77.3923 35.1652 65.164C38.4417 52.9357 51.0951 45.6303 63.3234 48.9068C75.5517 52.1834 82.8571 64.8368 79.5806 77.0651C76.304 89.2934 63.6506 96.5988 51.4224 93.3222ZM62.7585 51.0152C51.6546 48.0399 40.23 54.6954 37.2735 65.7289C34.3171 76.7625 40.9537 88.2575 51.9873 91.2139C63.0208 94.1703 74.5158 87.5337 77.4723 76.5001C80.4287 65.4666 73.8623 53.9904 62.7585 51.0152Z" fill="#1B2D47"/>
<path d="M70.852 47.233C70.7578 47.5844 70.434 47.9495 69.9747 47.9771C61.7343 48.9327 54.2492 53.2542 49.3015 59.9127C49.048 60.2968 48.5698 60.3946 48.2184 60.3004L53.0015 42.45L70.852 47.233Z" fill="url(#paint0_linear)"/>
<path d="M53.0722 42.4688L48.2892 60.3193C47.9378 60.2252 47.5726 59.9013 47.545 59.442C46.5894 51.2017 42.2679 43.7166 35.6094 38.7689C35.2254 38.5153 35.1275 38.0372 35.2217 37.6858L53.0722 42.4688Z" fill="url(#paint1_linear)"/>
<path d="M57.8363 24.6888L53.0721 42.469L35.2216 37.686C35.3158 37.3346 35.6396 36.9694 36.0989 36.9418C44.3393 35.9863 51.8244 31.6647 56.7721 25.0062C57.0068 24.6925 57.4147 24.5758 57.8363 24.6888Z" fill="url(#paint2_linear)"/>
<path d="M70.8524 47.2334L53.0722 42.4692L57.8364 24.689C58.1878 24.7831 58.553 25.1069 58.5806 25.5663C59.5361 33.8066 63.8577 41.2917 70.5162 46.2394C70.8299 46.4741 70.9466 46.882 70.8524 47.2334Z" fill="url(#paint3_linear)"/>
<path d="M84.5415 31.8444C84.485 32.0552 84.3771 32.1769 84.1474 32.1907C80.0272 32.6685 76.2847 34.8293 73.8108 38.1585C73.6841 38.3505 73.4544 38.3643 73.3138 38.3266L75.6865 29.4717L84.5415 31.8444Z" fill="url(#paint4_linear)"/>
<path d="M75.6162 29.453L73.2247 38.3783C73.0139 38.3218 72.8921 38.2138 72.8783 37.9842C72.4006 33.864 70.2398 30.1214 66.9105 27.6476C66.7185 27.5208 66.7047 27.2912 66.7424 27.1506L75.5974 29.5233L75.6162 29.453Z" fill="url(#paint5_linear)"/>
<path d="M78.0078 20.5275L75.6163 29.4527L66.691 27.0612C66.7475 26.8504 66.8554 26.7287 67.0851 26.7149C71.2053 26.2371 74.9478 24.0763 77.4217 20.7471C77.6375 20.5036 77.7969 20.471 78.0078 20.5275Z" fill="url(#paint6_linear)"/>
<path d="M84.5415 31.8443L75.6163 29.4528L78.0078 20.5276C78.2186 20.5841 78.3404 20.692 78.3542 20.9217C78.8319 25.0418 80.9927 28.7844 84.322 31.2583C84.514 31.385 84.598 31.6335 84.5415 31.8443Z" fill="url(#paint7_linear)"/>
<path d="M50.229 17.3778C50.1725 17.5886 50.0646 17.7104 49.8349 17.7242C45.7147 18.2019 41.9722 20.3627 39.4983 23.692C39.3716 23.884 39.1419 23.8978 39.0013 23.8601L41.374 15.0051L50.229 17.3778Z" fill="url(#paint8_linear)"/>
<path d="M41.3037 14.9862L38.9122 23.9115C38.7014 23.855 38.5796 23.747 38.5658 23.5174C38.0881 19.3972 35.9273 15.6547 32.598 13.1808C32.406 13.054 32.3922 12.8244 32.4299 12.6838L41.2849 15.0565L41.3037 14.9862Z" fill="url(#paint9_linear)"/>
<path d="M43.6953 6.06107L41.3038 14.9863L32.3785 12.5948C32.435 12.384 32.5429 12.2622 32.7726 12.2485C36.9116 11.7004 40.6541 9.53963 43.1983 6.22919C43.325 6.03719 43.4844 6.00458 43.6953 6.06107Z" fill="url(#paint10_linear)"/>
<path d="M50.229 17.3778L41.3038 14.9863L43.6953 6.06104C43.9061 6.11753 44.0279 6.22547 44.0417 6.45513C44.5897 10.5941 46.7505 14.3367 50.0095 16.7917C50.2015 16.9185 50.2855 17.167 50.229 17.3778Z" fill="url(#paint11_linear)"/>
<path d="M12.3518 79.4637C11.7896 79.3131 11.4294 78.6893 11.5801 78.1271L21.2214 42.145C21.3721 41.5828 21.9958 41.2226 22.5581 41.3733C23.1203 41.5239 23.4804 42.1477 23.3298 42.7099L13.6884 78.692C13.5378 79.2542 12.914 79.6143 12.3518 79.4637Z" fill="#1B2D47"/>
<path d="M31.5402 39.3359L26.2694 37.9235C24.5124 37.4528 23.4321 35.5815 23.9028 33.8246C24.3736 32.0676 26.2449 30.9872 28.0018 31.458L33.2726 32.8703C35.0296 33.3411 36.1099 35.2124 35.6392 36.9693C35.1684 38.7262 33.2971 39.8066 31.5402 39.3359ZM27.4557 33.4961C26.8232 33.3266 26.1995 33.6867 26.03 34.3192C25.8605 34.9517 26.2206 35.5755 26.8531 35.7449L32.1239 37.1573C32.7564 37.3267 33.3802 36.9666 33.5497 36.3341C33.7192 35.7016 33.359 35.0779 32.7265 34.9084L27.4557 33.4961Z" fill="#1B2D47"/>
<path d="M59.6817 88.0781C59.26 87.9651 58.9652 87.6602 58.8673 87.182C58.7368 86.5445 59.1686 86.0576 59.7359 85.9083C66.4627 84.6978 71.5822 79.3658 72.4902 72.604C72.5705 72.023 73.1428 71.5737 73.7239 71.6541C74.3049 71.7345 74.7542 72.3068 74.6738 72.8878C73.6616 80.6009 67.8054 86.7147 60.141 88.0506C59.9817 88.0832 59.8223 88.1158 59.6817 88.0781ZM73.4818 70.3087C73.0601 70.1957 72.7138 69.8016 72.6862 69.3423C72.6587 68.883 72.5796 68.3346 72.4818 67.8564C72.4216 67.2377 72.7831 66.732 73.3503 66.5827C73.9691 66.5225 74.4748 66.884 74.6241 67.4512C74.7031 67.9997 74.7821 68.5481 74.8423 69.1668C74.9025 69.7855 74.4707 70.2724 73.852 70.3326C73.6926 70.3652 73.5521 70.3276 73.4818 70.3087Z" fill="white"/>
<defs>
<linearGradient id="paint0_linear" x1="50.3382" y1="45.4764" x2="62.6388" y2="56.5519" gradientUnits="userSpaceOnUse">
<stop stop-color="#F1E2B8"/>
<stop offset="1" stop-color="#DBB64D"/>
</linearGradient>
<linearGradient id="paint1_linear" x1="37.6834" y1="49.865" x2="53.8737" y2="46.4237" gradientUnits="userSpaceOnUse">
<stop stop-color="#F1E2B8"/>
<stop offset="1" stop-color="#DBB64D"/>
</linearGradient>
<linearGradient id="paint2_linear" x1="43.4322" y1="28.4103" x2="55.7328" y2="39.4859" gradientUnits="userSpaceOnUse">
<stop stop-color="#F1E2B8"/>
<stop offset="1" stop-color="#DBB64D"/>
</linearGradient>
<linearGradient id="paint3_linear" x1="52.1977" y1="38.5388" x2="68.3881" y2="35.0974" gradientUnits="userSpaceOnUse">
<stop stop-color="#F1E2B8"/>
<stop offset="1" stop-color="#DBB64D"/>
</linearGradient>
<linearGradient id="paint4_linear" x1="74.2791" y1="30.9352" x2="80.4294" y2="36.4729" gradientUnits="userSpaceOnUse">
<stop stop-color="#F1E2B8"/>
<stop offset="1" stop-color="#DBB64D"/>
</linearGradient>
<linearGradient id="paint5_linear" x1="67.9514" y1="33.1296" x2="76.0465" y2="31.4089" gradientUnits="userSpaceOnUse">
<stop stop-color="#F1E2B8"/>
<stop offset="1" stop-color="#DBB64D"/>
</linearGradient>
<linearGradient id="paint6_linear" x1="70.8259" y1="22.4019" x2="76.9762" y2="27.9397" gradientUnits="userSpaceOnUse">
<stop stop-color="#F1E2B8"/>
<stop offset="1" stop-color="#DBB64D"/>
</linearGradient>
<linearGradient id="paint7_linear" x1="75.2086" y1="27.4662" x2="83.3038" y2="25.7454" gradientUnits="userSpaceOnUse">
<stop stop-color="#F1E2B8"/>
<stop offset="1" stop-color="#DBB64D"/>
</linearGradient>
<linearGradient id="paint8_linear" x1="39.9612" y1="16.4681" x2="46.1115" y2="22.0059" gradientUnits="userSpaceOnUse">
<stop stop-color="#F1E2B8"/>
<stop offset="1" stop-color="#DBB64D"/>
</linearGradient>
<linearGradient id="paint9_linear" x1="33.6336" y1="18.6624" x2="41.7287" y2="16.9417" gradientUnits="userSpaceOnUse">
<stop stop-color="#F1E2B8"/>
<stop offset="1" stop-color="#DBB64D"/>
</linearGradient>
<linearGradient id="paint10_linear" x1="36.508" y1="7.93509" x2="42.6583" y2="13.4728" gradientUnits="userSpaceOnUse">
<stop stop-color="#F1E2B8"/>
<stop offset="1" stop-color="#DBB64D"/>
</linearGradient>
<linearGradient id="paint11_linear" x1="40.8908" y1="12.9992" x2="48.9859" y2="11.2785" gradientUnits="userSpaceOnUse">
<stop stop-color="#F1E2B8"/>
<stop offset="1" stop-color="#DBB64D"/>
</linearGradient>
</defs>
</svg>
