<svg width="63" height="56" viewBox="0 0 63 56" fill="none" xmlns="http://www.w3.org/2000/svg">
<g opacity="0.5">
<path d="M34.9314 18.465C35.0053 18.0214 35.449 17.7996 35.8187 17.7996C36.1884 17.7996 36.632 18.0214 36.7799 18.465C39.8853 26.3025 46.0962 32.5134 53.9337 35.6189C54.3774 35.7667 54.5992 36.1364 54.5992 36.5801C54.5992 36.9498 54.3774 37.3935 53.9337 37.5414C46.0962 40.6468 39.8853 46.8577 36.7799 54.6952C36.632 55.1388 36.1884 55.3606 35.8186 55.3606C35.4489 55.3606 35.0053 55.1388 34.8574 54.6952C31.7519 46.8577 25.5411 40.6468 17.7035 37.5414C17.2599 37.3935 17.0381 36.9499 17.0381 36.5802L17.1121 36.5747C17.1143 36.2061 17.3361 35.766 17.7776 35.6189C25.6151 32.5134 31.826 26.3025 34.9314 18.465Z" fill="#DBDDE0"/>
<path d="M53.2513 1.06333C53.2849 0.862092 53.4861 0.761475 53.6538 0.761475C53.8215 0.761475 54.0227 0.862092 54.0898 1.06333C55.4985 4.6185 58.3158 7.4358 61.8709 8.84445C62.0722 8.91153 62.1728 9.07923 62.1728 9.28047C62.1728 9.44816 62.0722 9.64944 61.8709 9.71652C58.3158 11.1252 55.4985 13.9425 54.0898 17.4976C54.0227 17.6989 53.8215 17.7995 53.6538 17.7995C53.4861 17.7995 53.2848 17.6989 53.2177 17.4976C51.8091 13.9425 48.9918 11.1252 45.4366 9.71652C45.2354 9.64944 45.1348 9.4482 45.1348 9.28051L45.1684 9.27803C45.1693 9.11082 45.2699 8.91121 45.4702 8.84445C49.0254 7.4358 51.8427 4.6185 53.2513 1.06333Z" fill="#DBDDE0"/>
<path d="M8.11656 9.58237C8.1501 9.38114 8.35133 9.28052 8.51903 9.28052C8.68673 9.28052 8.88796 9.38114 8.95504 9.58237C10.3637 13.1375 13.181 15.9548 16.7362 17.3635C16.9374 17.4306 17.038 17.5983 17.038 17.7995C17.038 17.9672 16.9374 18.1685 16.7362 18.2356C13.181 19.6442 10.3637 22.4615 8.95504 26.0167C8.88796 26.2179 8.68672 26.3185 8.51899 26.3185C8.35129 26.3185 8.15006 26.2179 8.08298 26.0167C6.67433 22.4615 3.85702 19.6442 0.301854 18.2356C0.100618 18.1685 0 17.9672 0 17.7996L0.0335876 17.7971C0.0345571 17.6299 0.135173 17.4303 0.335435 17.3635C3.8906 15.9548 6.70791 13.1375 8.11656 9.58237Z" fill="#DBDDE0"/>
</g>
</svg>
