<svg width="9" height="10" viewBox="0 0 9 10" fill="none" xmlns="http://www.w3.org/2000/svg">
<path d="M0.0810818 4.60972C0.0810818 4.54289 0.147915 4.40922 0.21475 4.40922C2.08609 3.67405 3.55644 2.20371 4.29161 0.332364C4.35844 0.198697 4.42528 0.198697 4.49211 0.198697C4.55894 0.198697 4.69261 0.26553 4.69261 0.332364C5.49462 2.13688 6.96496 3.60722 8.8363 4.34239C8.90314 4.40922 8.96997 4.47606 8.96997 4.60972C8.96997 4.67656 8.90314 4.81023 8.8363 4.81023C6.96496 5.5454 5.49462 7.01574 4.75944 8.88708C4.69261 8.95392 4.62578 9.02075 4.55894 9.02075C4.42528 9.02075 4.35844 8.95392 4.29161 8.88708C3.55644 7.01574 2.08609 5.5454 0.21475 4.81022C0.147915 4.74339 0.0810818 4.67656 0.0810818 4.60972Z" fill="url(#paint0_linear)"/>
<path d="M0.0811601 4.60974C0.0811601 4.54291 0.147994 4.40924 0.214828 4.40924C2.08617 3.67407 3.55652 2.20373 4.29169 0.332382C4.35852 0.198715 4.42535 0.198715 4.49219 0.198715L4.49219 4.60974L0.0811601 4.60974Z" fill="url(#paint1_linear)"/>
<path d="M4.559 4.60974L4.559 0.198713C4.62584 0.198713 4.75951 0.265546 4.75951 0.33238C5.49468 2.13689 6.96502 3.60723 8.83636 4.34241C8.9032 4.40924 8.97003 4.47607 8.97003 4.60974L4.559 4.60974Z" fill="url(#paint2_linear)"/>
<path d="M4.55894 9.02075L4.55894 4.60972L8.96997 4.60972C8.96997 4.67656 8.90314 4.81023 8.8363 4.81023C6.96496 5.5454 5.49462 7.01574 4.75944 8.88708C4.69261 8.95392 4.62578 9.02075 4.55894 9.02075Z" fill="url(#paint3_linear)"/>
<path d="M0.08116 4.60972L4.55902 4.60972L4.55902 9.02075C4.42535 9.02075 4.35852 8.95392 4.29169 8.88708C3.55651 7.01574 2.08617 5.5454 0.214827 4.81023C0.147993 4.74339 0.08116 4.67656 0.08116 4.60972Z" fill="url(#paint4_linear)"/>
<defs>
<linearGradient id="paint0_linear" x1="8.07861" y1="6.39178" x2="0.988885" y2="2.77941" gradientUnits="userSpaceOnUse">
<stop stop-color="#F1E2B8"/>
<stop offset="1" stop-color="#DBB64D"/>
</linearGradient>
<linearGradient id="paint1_linear" x1="4.97393" y1="3.72159" x2="1.42873" y2="1.9152" gradientUnits="userSpaceOnUse">
<stop stop-color="#F1E2B8"/>
<stop offset="1" stop-color="#DBB64D"/>
</linearGradient>
<linearGradient id="paint2_linear" x1="7.63944" y1="1.9152" x2="4.09418" y2="3.72159" gradientUnits="userSpaceOnUse">
<stop stop-color="#F1E2B8"/>
<stop offset="1" stop-color="#DBB64D"/>
</linearGradient>
<linearGradient id="paint3_linear" x1="7.63938" y1="7.2546" x2="4.09411" y2="5.44822" gradientUnits="userSpaceOnUse">
<stop stop-color="#F1E2B8"/>
<stop offset="1" stop-color="#DBB64D"/>
</linearGradient>
<linearGradient id="paint4_linear" x1="4.97399" y1="5.44822" x2="1.42873" y2="7.2546" gradientUnits="userSpaceOnUse">
<stop stop-color="#F1E2B8"/>
<stop offset="1" stop-color="#DBB64D"/>
</linearGradient>
</defs>
</svg>