                <svg width="56" height="17" viewBox="0 0 56 17" fill="none" xmlns="http://www.w3.org/2000/svg">
                    <g clip-path="url(#clip0)">
                        <path
                            d="M44.1725 7.81842C44.1725 7.73249 44.2584 7.56064 44.3444 7.56064C46.7504 6.61542 48.6408 4.72498 49.586 2.31896C49.672 2.1471 49.7579 2.1471 49.8438 2.1471C49.9298 2.1471 50.1016 2.23303 50.1016 2.31896C51.1328 4.63905 53.0232 6.52949 55.4292 7.47471C55.5151 7.56064 55.6011 7.64657 55.6011 7.81843C55.6011 7.90435 55.5151 8.07621 55.4292 8.07621C53.0232 9.02143 51.1328 10.9119 50.1875 13.3179C50.1016 13.4038 50.0157 13.4897 49.9298 13.4897C49.7579 13.4897 49.672 13.4038 49.586 13.3179C48.6408 10.9119 46.7504 9.02143 44.3444 8.07621C44.2584 7.99028 44.1725 7.90435 44.1725 7.81842Z"
                            fill="url(#paint0_linear)" />
                        <path
                            d="M44.1724 7.81848C44.1724 7.73255 44.2584 7.56069 44.3443 7.56069C46.7503 6.61547 48.6407 4.72503 49.586 2.31902C49.6719 2.14716 49.7578 2.14716 49.8438 2.14716L49.8438 7.81848L44.1724 7.81848Z"
                            fill="url(#paint1_linear)" />
                        <path
                            d="M49.9298 7.81848L49.9298 2.14716C50.0157 2.14716 50.1875 2.23309 50.1875 2.31902C51.1328 4.6391 53.0232 6.52954 55.4292 7.47476C55.5151 7.56069 55.6011 7.64662 55.6011 7.81848L49.9298 7.81848Z"
                            fill="url(#paint2_linear)" />
                        <path
                            d="M49.9298 13.4897L49.9298 7.81842L55.6011 7.81843C55.6011 7.90435 55.5151 8.07621 55.4292 8.07621C53.0232 9.02143 51.1328 10.9119 50.1875 13.3179C50.1016 13.4038 50.0157 13.4897 49.9298 13.4897Z"
                            fill="url(#paint3_linear)" />
                        <path
                            d="M44.1724 7.81842L49.9297 7.81843L49.9297 13.4897C49.7578 13.4897 49.6719 13.4038 49.586 13.3179C48.6408 10.9119 46.7503 9.02143 44.3443 8.07621C44.2584 7.99028 44.1724 7.90435 44.1724 7.81842Z"
                            fill="url(#paint4_linear)" />
                    </g>
                    <g clip-path="url(#clip1)">
                        <path
                            d="M0.74428 7.81842C0.74428 7.73249 0.830209 7.56064 0.916138 7.56064C3.32215 6.61542 5.21259 4.72498 6.15782 2.31896C6.24374 2.1471 6.32967 2.1471 6.4156 2.1471C6.50153 2.1471 6.67339 2.23303 6.67339 2.31896C7.70454 4.63905 9.59498 6.52949 12.001 7.47471C12.0869 7.56064 12.1729 7.64657 12.1729 7.81843C12.1729 7.90435 12.0869 8.07621 12.001 8.07621C9.59498 9.02143 7.70454 10.9119 6.75932 13.3179C6.67339 13.4038 6.58746 13.4897 6.50153 13.4897C6.32967 13.4897 6.24374 13.4038 6.15781 13.3179C5.21259 10.9119 3.32215 9.02143 0.916138 8.07621C0.830209 7.99028 0.74428 7.90435 0.74428 7.81842Z"
                            fill="url(#paint5_linear)" />
                        <path
                            d="M0.744205 7.81848C0.744205 7.73255 0.830134 7.56069 0.916063 7.56069C3.32208 6.61547 5.21252 4.72503 6.15774 2.31902C6.24367 2.14716 6.3296 2.14716 6.41553 2.14716L6.41553 7.81848L0.744205 7.81848Z"
                            fill="url(#paint6_linear)" />
                        <path
                            d="M6.50153 7.81848L6.50153 2.14716C6.58746 2.14716 6.75932 2.23309 6.75932 2.31902C7.70454 4.6391 9.59498 6.52954 12.001 7.47476C12.0869 7.56069 12.1729 7.64662 12.1729 7.81848L6.50153 7.81848Z"
                            fill="url(#paint7_linear)" />
                        <path
                            d="M6.50153 13.4897L6.50153 7.81842L12.1729 7.81843C12.1729 7.90435 12.0869 8.07621 12.001 8.07621C9.59498 9.02143 7.70454 10.9119 6.75932 13.3179C6.67339 13.4038 6.58746 13.4897 6.50153 13.4897Z"
                            fill="url(#paint8_linear)" />
                        <path
                            d="M0.744215 7.81842L6.50147 7.81843L6.50146 13.4897C6.32961 13.4897 6.24368 13.4038 6.15775 13.3179C5.21253 10.9119 3.32209 9.02143 0.916073 8.07621C0.830144 7.99028 0.744215 7.90435 0.744215 7.81842Z"
                            fill="url(#paint9_linear)" />
                    </g>
                    <g clip-path="url(#clip2)">
                        <path
                            d="M20.1729 8.40707C20.1729 8.28677 20.2932 8.04617 20.4135 8.04617C23.7819 6.72286 26.4285 4.07625 27.7518 0.707826C27.8721 0.467224 27.9924 0.467225 28.1127 0.467225C28.233 0.467225 28.4736 0.587526 28.4736 0.707826C29.9172 3.95595 32.5638 6.60256 35.9323 7.92587C36.0526 8.04617 36.1729 8.16647 36.1729 8.40707C36.1729 8.52738 36.0526 8.76798 35.9323 8.76798C32.5638 10.0913 29.9172 12.7379 28.5939 16.1063C28.4736 16.2266 28.3533 16.3469 28.233 16.3469C27.9924 16.3469 27.8721 16.2266 27.7518 16.1063C26.4285 12.7379 23.7819 10.0913 20.4135 8.76798C20.2932 8.64767 20.1729 8.52737 20.1729 8.40707Z"
                            fill="url(#paint10_linear)" />
                        <path
                            d="M20.1729 8.4071C20.1729 8.2868 20.2932 8.0462 20.4135 8.0462C23.782 6.72289 26.4286 4.07628 27.7519 0.707855C27.8722 0.467254 27.9925 0.467254 28.1128 0.467254L28.1128 8.4071L20.1729 8.4071Z"
                            fill="url(#paint11_linear)" />
                        <path
                            d="M28.233 8.4071L28.233 0.467253C28.3533 0.467253 28.5939 0.587554 28.5939 0.707855C29.9172 3.95598 32.5638 6.60259 35.9323 7.9259C36.0526 8.0462 36.1729 8.1665 36.1729 8.4071L28.233 8.4071Z"
                            fill="url(#paint12_linear)" />
                        <path
                            d="M28.233 16.3469L28.233 8.40707L36.1729 8.40707C36.1729 8.52738 36.0526 8.76798 35.9323 8.76798C32.5638 10.0913 29.9172 12.7379 28.5939 16.1063C28.4736 16.2266 28.3533 16.3469 28.233 16.3469Z"
                            fill="url(#paint13_linear)" />
                        <path
                            d="M20.1728 8.40707L28.2329 8.40707L28.2329 16.3469C27.9923 16.3469 27.872 16.2266 27.7517 16.1063C26.4284 12.7379 23.7818 10.0913 20.4134 8.76798C20.2931 8.64768 20.1728 8.52737 20.1728 8.40707Z"
                            fill="url(#paint14_linear)" />
                    </g>
                    <defs>
                        <linearGradient id="paint0_linear" x1="54.455" y1="10.1096" x2="45.3397" y2="5.46517"
                            gradientUnits="userSpaceOnUse">
                            <stop stop-color="#F1E2B8" />
                            <stop offset="1" stop-color="#DBB64D" />
                        </linearGradient>
                        <linearGradient id="paint1_linear" x1="50.4631" y1="6.67657" x2="45.905" y2="4.35408"
                            gradientUnits="userSpaceOnUse">
                            <stop stop-color="#F1E2B8" />
                            <stop offset="1" stop-color="#DBB64D" />
                        </linearGradient>
                        <linearGradient id="paint2_linear" x1="53.8903" y1="4.35408" x2="49.3321" y2="6.67657"
                            gradientUnits="userSpaceOnUse">
                            <stop stop-color="#F1E2B8" />
                            <stop offset="1" stop-color="#DBB64D" />
                        </linearGradient>
                        <linearGradient id="paint3_linear" x1="53.8903" y1="11.219" x2="49.3321" y2="8.89649"
                            gradientUnits="userSpaceOnUse">
                            <stop stop-color="#F1E2B8" />
                            <stop offset="1" stop-color="#DBB64D" />
                        </linearGradient>
                        <linearGradient id="paint4_linear" x1="50.4632" y1="8.89649" x2="45.905" y2="11.219"
                            gradientUnits="userSpaceOnUse">
                            <stop stop-color="#F1E2B8" />
                            <stop offset="1" stop-color="#DBB64D" />
                        </linearGradient>
                        <linearGradient id="paint5_linear" x1="11.0268" y1="10.1096" x2="1.91146" y2="5.46517"
                            gradientUnits="userSpaceOnUse">
                            <stop stop-color="#F1E2B8" />
                            <stop offset="1" stop-color="#DBB64D" />
                        </linearGradient>
                        <linearGradient id="paint6_linear" x1="7.0349" y1="6.67657" x2="2.47679" y2="4.35408"
                            gradientUnits="userSpaceOnUse">
                            <stop stop-color="#F1E2B8" />
                            <stop offset="1" stop-color="#DBB64D" />
                        </linearGradient>
                        <linearGradient id="paint7_linear" x1="10.4621" y1="4.35408" x2="5.90389" y2="6.67657"
                            gradientUnits="userSpaceOnUse">
                            <stop stop-color="#F1E2B8" />
                            <stop offset="1" stop-color="#DBB64D" />
                        </linearGradient>
                        <linearGradient id="paint8_linear" x1="10.4621" y1="11.219" x2="5.90389" y2="8.89649"
                            gradientUnits="userSpaceOnUse">
                            <stop stop-color="#F1E2B8" />
                            <stop offset="1" stop-color="#DBB64D" />
                        </linearGradient>
                        <linearGradient id="paint9_linear" x1="7.035" y1="8.89649" x2="2.4768" y2="11.219"
                            gradientUnits="userSpaceOnUse">
                            <stop stop-color="#F1E2B8" />
                            <stop offset="1" stop-color="#DBB64D" />
                        </linearGradient>
                        <linearGradient id="paint10_linear" x1="34.5684" y1="11.6148" x2="21.8069" y2="5.11252"
                            gradientUnits="userSpaceOnUse">
                            <stop stop-color="#F1E2B8" />
                            <stop offset="1" stop-color="#DBB64D" />
                        </linearGradient>
                        <linearGradient id="paint11_linear" x1="28.9799" y1="6.80843" x2="22.5986" y2="3.55694"
                            gradientUnits="userSpaceOnUse">
                            <stop stop-color="#F1E2B8" />
                            <stop offset="1" stop-color="#DBB64D" />
                        </linearGradient>
                        <linearGradient id="paint12_linear" x1="33.7778" y1="3.55694" x2="27.3963" y2="6.80843"
                            gradientUnits="userSpaceOnUse">
                            <stop stop-color="#F1E2B8" />
                            <stop offset="1" stop-color="#DBB64D" />
                        </linearGradient>
                        <linearGradient id="paint13_linear" x1="33.7778" y1="13.1679" x2="27.3963" y2="9.91637"
                            gradientUnits="userSpaceOnUse">
                            <stop stop-color="#F1E2B8" />
                            <stop offset="1" stop-color="#DBB64D" />
                        </linearGradient>
                        <linearGradient id="paint14_linear" x1="28.9799" y1="9.91637" x2="22.5984" y2="13.1679"
                            gradientUnits="userSpaceOnUse">
                            <stop stop-color="#F1E2B8" />
                            <stop offset="1" stop-color="#DBB64D" />
                        </linearGradient>
                        <clipPath id="clip0">
                            <rect width="11.4286" height="11.4286" fill="white"
                                transform="translate(55.6011 13.4897) rotate(-180)" />
                        </clipPath>
                        <clipPath id="clip1">
                            <rect width="11.4286" height="11.4286" fill="white"
                                transform="translate(12.1729 13.4897) rotate(-180)" />
                        </clipPath>
                        <clipPath id="clip2">
                            <rect width="16" height="16" fill="white"
                                transform="translate(36.1729 16.3469) rotate(-180)" />
                        </clipPath>
                    </defs>
                </svg>