<svg width="22" height="21" viewBox="0 0 22 21" fill="none" xmlns="http://www.w3.org/2000/svg">
<path d="M17.7949 12.9302C18.059 12.9302 18.2683 13.2155 18.0177 13.299C15.0106 14.4905 12.6277 16.8734 11.4362 19.8805C11.3527 20.131 11.0674 19.9218 11.0674 19.6577V15.9302C11.0674 14.2733 12.4105 12.9302 14.0674 12.9302H17.7949Z" fill="url(#paint0_linear)"/>
<path d="M10.7387 5.93268C10.8152 5.71506 11.0672 5.91112 11.0672 6.14178V9.92978C11.0672 11.5866 9.72404 12.9298 8.06719 12.9298H4.36805C4.10397 12.9298 3.89469 12.6445 4.14521 12.561C7.1385 11.375 9.5134 9.00837 10.7103 6.02079C10.7213 5.99335 10.7289 5.96056 10.7387 5.93268Z" fill="url(#paint1_linear)"/>
<path d="M18.0177 12.561C18.2703 12.6452 18.0573 12.9298 17.7911 12.9298H14.0674C12.4105 12.9298 11.0674 11.5866 11.0674 9.92979V6.20227C11.0674 5.9382 11.3527 5.72892 11.4362 5.97944C12.6277 8.98653 15.0106 11.3695 18.0177 12.561Z" fill="url(#paint2_linear)"/>
<path d="M21.625 5.72412C21.7477 5.72412 21.8501 5.85553 21.7337 5.89433C20.2301 6.49008 19.0387 7.68157 18.4429 9.18511C18.4048 9.29959 18.2727 9.20076 18.2727 9.08009V7.51135C18.2727 6.52429 19.0729 5.72412 20.0599 5.72412H21.625Z" fill="url(#paint3_linear)"/>
<path d="M18.273 5.72412V9.10474C18.273 9.22747 18.1415 9.3299 18.1027 9.21348C17.507 7.70993 16.3155 6.51845 14.812 5.9227C14.6975 5.88454 14.7963 5.75249 14.917 5.75249H18.2446C18.2602 5.75249 18.273 5.73979 18.273 5.72412Z" fill="url(#paint4_linear)"/>
<path d="M18.0744 2.26343C18.1198 2.12722 18.273 2.23797 18.273 2.38155V3.923C18.273 4.91789 17.4665 5.72442 16.4716 5.72442H14.8924C14.7697 5.72442 14.6672 5.59301 14.7836 5.5542C16.2872 4.95846 17.4787 3.76697 18.0744 2.26343Z" fill="url(#paint5_linear)"/>
<path d="M21.7566 5.54284C21.8481 5.61857 21.7509 5.72442 21.6321 5.72442H20.0599C19.0729 5.72442 18.2727 4.92424 18.2727 3.93718V2.34379C18.2727 2.22107 18.4041 2.11863 18.4429 2.23506C19.0359 3.73154 20.219 4.91889 21.7125 5.5174C21.7266 5.52303 21.7449 5.5332 21.7566 5.54284Z" fill="url(#paint6_linear)"/>
<path d="M7.24215 3.73877C7.36487 3.73877 7.46731 3.87017 7.35088 3.90898C5.84734 4.50473 4.65585 5.69621 4.06011 7.19976C4.02195 7.31424 3.88989 7.21541 3.88989 7.09474V5.526C3.88989 4.53894 4.69006 3.73877 5.67712 3.73877H7.24215Z" fill="url(#paint7_linear)"/>
<path d="M3.89014 3.73877V7.11939C3.89014 7.24212 3.75873 7.34455 3.71992 7.22813C3.12418 5.72458 1.93269 4.5331 0.429149 3.93735C0.314671 3.89919 0.413497 3.76714 0.534167 3.76714H3.86177C3.87744 3.76714 3.89014 3.75444 3.89014 3.73877Z" fill="url(#paint8_linear)"/>
<path d="M3.69136 0.277586C3.73676 0.141379 3.88994 0.252133 3.88994 0.395708V1.93716C3.88994 2.93205 3.08342 3.73857 2.08853 3.73857H0.509319C0.386596 3.73857 0.284159 3.60717 0.400584 3.56836C1.90413 2.97262 3.09562 1.78113 3.69136 0.277586Z" fill="url(#paint9_linear)"/>
<path d="M7.37377 3.557C7.4653 3.63273 7.36805 3.73857 7.24925 3.73857H5.67712C4.69006 3.73857 3.88989 2.9384 3.88989 1.95134V0.357953C3.88989 0.235229 4.0213 0.132792 4.06011 0.249217C4.65305 1.7457 5.83616 2.93305 7.32972 3.53156C7.34376 3.53719 7.36212 3.54736 7.37377 3.557Z" fill="url(#paint10_linear)"/>
<defs>
<linearGradient id="paint0_linear" x1="10.3554" y1="14.3246" x2="16.1058" y2="17.2546" gradientUnits="userSpaceOnUse">
<stop stop-color="#F1E2B8"/>
<stop offset="1" stop-color="#DBB64D"/>
</linearGradient>
<linearGradient id="paint1_linear" x1="6.03185" y1="8.59356" x2="11.7823" y2="11.5236" gradientUnits="userSpaceOnUse">
<stop stop-color="#F1E2B8"/>
<stop offset="1" stop-color="#DBB64D"/>
</linearGradient>
<linearGradient id="paint2_linear" x1="10.3554" y1="11.5236" x2="16.1058" y2="8.59357" gradientUnits="userSpaceOnUse">
<stop stop-color="#F1E2B8"/>
<stop offset="1" stop-color="#DBB64D"/>
</linearGradient>
<linearGradient id="paint3_linear" x1="17.9044" y1="6.43152" x2="20.7796" y2="7.89652" gradientUnits="userSpaceOnUse">
<stop stop-color="#F1E2B8"/>
<stop offset="1" stop-color="#DBB64D"/>
</linearGradient>
<linearGradient id="paint4_linear" x1="15.7429" y1="7.89652" x2="18.6181" y2="6.43152" gradientUnits="userSpaceOnUse">
<stop stop-color="#F1E2B8"/>
<stop offset="1" stop-color="#DBB64D"/>
</linearGradient>
<linearGradient id="paint5_linear" x1="15.743" y1="3.56649" x2="18.6182" y2="5.03151" gradientUnits="userSpaceOnUse">
<stop stop-color="#F1E2B8"/>
<stop offset="1" stop-color="#DBB64D"/>
</linearGradient>
<linearGradient id="paint6_linear" x1="17.9044" y1="5.03151" x2="20.7796" y2="3.56649" gradientUnits="userSpaceOnUse">
<stop stop-color="#F1E2B8"/>
<stop offset="1" stop-color="#DBB64D"/>
</linearGradient>
<linearGradient id="paint7_linear" x1="3.51948" y1="4.44654" x2="6.39468" y2="5.91153" gradientUnits="userSpaceOnUse">
<stop stop-color="#F1E2B8"/>
<stop offset="1" stop-color="#DBB64D"/>
</linearGradient>
<linearGradient id="paint8_linear" x1="1.35803" y1="5.91153" x2="4.23323" y2="4.44654" gradientUnits="userSpaceOnUse">
<stop stop-color="#F1E2B8"/>
<stop offset="1" stop-color="#DBB64D"/>
</linearGradient>
<linearGradient id="paint9_linear" x1="1.35783" y1="1.58105" x2="4.23303" y2="3.04604" gradientUnits="userSpaceOnUse">
<stop stop-color="#F1E2B8"/>
<stop offset="1" stop-color="#DBB64D"/>
</linearGradient>
<linearGradient id="paint10_linear" x1="3.51948" y1="3.04604" x2="6.39468" y2="1.58105" gradientUnits="userSpaceOnUse">
<stop stop-color="#F1E2B8"/>
<stop offset="1" stop-color="#DBB64D"/>
</linearGradient>
</defs>
</svg>
